<?xml version="1.0" encoding="utf-8"?>
<!-- Generator: Adobe Illustrator 27.5.0, SVG Export Plug-In . SVG Version: 6.00 Build 0)  -->
<svg version="1.1" id="_x2018_лой_x5F_1" xmlns="http://www.w3.org/2000/svg" xmlns:xlink="http://www.w3.org/1999/xlink"
	 x="0px" y="0px" viewBox="0 0 3200 2000" style="enable-background:new 0 0 3200 2000;" xml:space="preserve">
<rect style="fill:#FFFFFF;" width="3200" height="2000"/>
<g>
	<path style="fill:#EBF3FA;" d="M2963.603,1630.183c-53.653,0-163.601,3.804-164.767,5.538h-277.199l-81.131-0.17h-726.45
		l-212.156-0.178H942.607l-233.603-0.17h-422.44c0,0-0.7-1.391-2.1-4.171l-0.233-0.348c0,0-0.233-0.348-0.233-0.518
		c-0.934-1.39-351.536-553.395,227.331-825.514c226.49-106.471,107.141-319.071,442.362-447.86
		c432.214-166.052,550.017,75.217,1061.101,16.887c443.879-50.66,646.126,110.689,614.976,350.651
		c-14.633,112.714,85.83,199.111,184.928,214.608c273.398,42.753,263.603,293.17,241.253,477.157
		C3042.17,1529.523,2965.502,1630.183,2963.603,1630.183z"/>
	<path style="fill:#F2A16B;" d="M1312.058,1196.227c0,0-3.511-4.27-8.774-5.593c-5.264-1.322-16.642-6.879-15.319-3.969
		c1.323,2.911,7.673,6.351,6.615,8.468c0,0-18.081-5.028-18.61-1.853c-0.529,3.175,6.368,15.304,14.112,17.908
		c2.558,0.86,20.374-2.562,20.374-2.562L1312.058,1196.227z"/>
	<path style="fill:#FFB27D;" d="M1893.654,1249.829c0,0-7.095-7.731-16.561-6.505c-4.838,0.628-11.832-6.978-11.479-2.038
		c0.353,4.938,7.355,16.374,9.738,18.334c4.676,3.848,14.959,2.579,14.959,2.579l12.614,7.774L1893.654,1249.829z"/>
	<g>
		<path style="fill:#ED7D2B;" d="M387.745,1039.626c0,0-52.225,54.147-54.692,74.527c-2.468,20.381,25.016,52.195,25.016,52.195
			L387.745,1039.626z"/>
		<path style="fill:#2358A5;" d="M411.343,1600.797c0,0,1.843,28.722,7.402,29.121c0.739,0.054,28.187-0.006,28.187-0.006
			l35.038-0.279c0,0-0.247-8.442-10.494-10.205c-10.246-1.763-27.404-8.923-33.638-22.446
			C431.281,1582.755,411.343,1600.797,411.343,1600.797z"/>
		<path style="fill:#2358A5;" d="M333.301,1600.967c0,0,1.843,28.722,7.402,29.121c0.739,0.053,28.187-0.006,28.187-0.006
			l35.038-0.279c0,0-0.247-8.442-10.494-10.205c-10.246-1.763-27.404-8.924-33.638-22.446
			C353.238,1582.925,333.301,1600.967,333.301,1600.967z"/>
		<path style="fill:#163560;" d="M449.477,1291.992c0,0-9.037,58.63-42.996,162.746c-33.96,104.117-38.521,149.181-38.521,149.181
			l-36.675-0.948c0,0-0.56-113.705,15.081-166.059c15.641-52.354,2.991-188.623,2.991-188.623L449.477,1291.992z"/>
		<path style="fill:#1C468A;" d="M467.235,1251.244c0,0,1.49,88.318-13.556,196.795c-15.045,108.477-9.766,154.498-9.766,154.498
			l-36.597,1.296c0,0-22.108-108.436-15.955-162.728c6.153-54.293-30.356-186.188-30.356-186.188L467.235,1251.244z"/>
		<path style="fill:#FFB27D;" d="M395.935,1044.714l19.528,12.743l28.171-5.314c-0.395-2.273-2.276-11.699-3.989-20.235
			c-0.103-0.504-0.207-1.008-0.304-1.499c-1.467-7.265-2.734-13.504-2.734-13.504l-26.347-11.557l-9.823-4.309
			c0.026,0.152,0.778,8.063,0.883,9.218C403.206,1030.764,395.935,1044.714,395.935,1044.714z"/>
		<path style="fill:#ED7D2B;" d="M436.385,1038.175c-0.547-0.229-33.959-10.01-37.583-8.805c-3.625,1.206-5.757,8.229-5.757,8.229
			l54.642,12.229C447.686,1049.828,443.369,1041.097,436.385,1038.175z"/>
		<path style="fill:#F99746;" d="M346.958,1262.408c5.716,25.808,99.917,28.665,124.147,5.176
			c2.756-2.678,2.865-15.107,1.787-31.863c-2.109-32.736-8.758-81.974-9.068-107.136c-0.151-12.151-1.847-24.576-4.096-35.857
			c-4.784-24.043-12.041-42.902-12.041-42.902s-46.04-14.774-54.643-12.226C351.596,1049.875,341.243,1236.602,346.958,1262.408z"/>
		<path style="fill:#ED7D2B;" d="M472.892,1235.721c-2.109-32.736-8.758-81.974-9.068-107.136
			c-0.151-12.151-1.847-24.576-4.096-35.857l-27.686-4.824C432.042,1087.903,405.223,1198.485,472.892,1235.721z"/>
		<path style="fill:#FFB27D;" d="M457.806,1190.116c0,0-1.876,4.514,2.092,7.533c3.968,3.019,6.548,7.918,5.649,11.505
			c-0.9,3.586-9.577,9.453-12.592,8.517c-3.015-0.937-9.156-5.645-8.5-7.537c0.656-1.892-4.16-16.583,3.172-22.259
			C454.958,1182.199,457.806,1190.116,457.806,1190.116z"/>
		<path style="fill:#F99746;" d="M426.54,1043.246c0,0,27.002,4.992,48.578,36.641c21.576,31.647,35.776,55.181,31.839,66.612
			c-3.937,11.432-39.964,51.128-46.19,51.142s-16.282-4.493-16.871-14.679c0,0,23.788-39.6,18.767-45.296
			c-2.146-2.434-31.513-25.989-35.896-14.66C419.517,1141.75,426.54,1043.246,426.54,1043.246z"/>
		<path style="fill:#FCA56B;" d="M403.296,1010.614c5.801,9.779,27.359,18.199,36.348,21.293c-0.103-0.504-0.207-1.008-0.304-1.499
			c-1.467-7.265-2.734-13.504-2.734-13.504l-26.347-11.557C404.442,1005.28,400.903,1006.59,403.296,1010.614z"/>
		<path style="fill:#FFB27D;" d="M446.525,1015.281c0,0-42.371,13.318-50.259-13.195c-7.888-26.514-18.669-42.652,8.05-52.276
			c26.719-9.624,35.009-1.078,39.794,7.131C448.896,965.15,457.344,1011.134,446.525,1015.281z"/>
		<path style="fill:#163560;" d="M442.44,954.389c0,0-2.637,30.879-9.024,29.553c-6.388-1.326-12.181-2.307-11.226,6.997
			c0.955,9.305,9.832,20.032-9.841,21.722c-19.673,1.688-48.071-48.996-42.686-58.615C385.2,926.289,464.91,920.521,442.44,954.389z
			"/>
	</g>
	<g>
		<path style="fill:#FFB27D;" d="M2657.834,1148.06c0,0-3.612-5.964-5.821-9.261c-2.209-3.299-6.613-7.409-7.738-6.351
			c-1.126,1.058,3.382,5.424,3.179,6.879c-0.203,1.456-7.756-3.437-8.571-4.538c-1.637-2.208-5.959-4.59-6.488-1.813
			c-0.529,2.779,2.685,11.511,4.14,14.024c1.456,2.514,7.551,6.482,10.92,7.673c3.369,1.191,9.142,3.969,9.142,3.969
			L2657.834,1148.06z"/>
		<path style="fill:#163560;" d="M2811.059,952.148c-12.893-6.688-23.222-2.485-23.222-2.485
			c-39.444-4.632-50.952,41.369-50.417,57.198c0.528,15.826,2.341,32.828-15.275,53.391c-50.882,59.397,55.684,62.018,55.684,62.018
			c0.901-47.457,57.789-30.141,55.296-25.332C2906.049,1114.438,2840.375,967.357,2811.059,952.148z"/>
		<path style="fill:#F99746;" d="M2759.221,1153.408c0,0-3.77,7.467-10.609,16.045c-8.242,10.324-20.952,22.251-36.91,24.605
			c-7.621,1.124-15.076-0.517-21.928-3.56c-0.019-0.007-0.024-0.007-0.024-0.007c-19.381-8.604-33.953-28.388-33.953-28.388
			c-3.417-9.317,2.174-15.635,2.174-15.635s39.134,8.802,42.861,6.938c3.727-1.863,25.468-64.496,30.643-72.367
			c5.181-7.87,22.821-11.957,22.821-11.957L2759.221,1153.408z"/>
		<path style="fill:#ED7D2B;" d="M2748.611,1169.453c-8.242,10.324-20.952,22.251-36.91,24.605
			c-7.621,1.124-15.076-0.517-21.928-3.56c0.758,0.099,20.114,2.49,27.829-11.312c7.87-14.082,16.38-36.445,28.071-28.99
			C2750.717,1153.414,2750.494,1161.409,2748.611,1169.453z"/>
		<path style="fill:#2358A5;" d="M2905.223,1575.839c0,0,11.941,10.898,9.611,18.641c-2.33,7.743-13.105,12.905-14.562,22.369
			c-1.457,9.464-7.282,14.626-12.524,14.626s-24.994,0-24.994,0s-3.858-6.659,5.461-8.667c9.32-2.008,12.835-13.128,12.252-23.452
			c-0.582-10.324,0.874-24.09,0.874-24.09l19.805-4.589L2905.223,1575.839z"/>
		<path style="fill:#2358A5;" d="M2804.152,1580.466c0,0,4.297,46.166-0.946,48.747l-67.092-0.138c0,0,0-7.743,10.776-9.464
			s29.707-8.029,32.911-22.082S2804.152,1580.466,2804.152,1580.466z"/>
		<path style="fill:#FFB27D;" d="M2851.964,1249.26c-13.807-30.962-22.255-39.85-20.642-49.46
			c1.2-7.152-3.655-133.359-3.655-133.359c-1.638-0.507-4.921-0.962-6.718-1.36c-5.662-1.258-10.35-5.235-12.301-10.699
			c-2.35-6.58-4.218-16.298-4.175-28.476l-1.769,0.349l-29.736,5.889c0,0,0.676,9.358,0.696,18.174c0,0.074,0,0.147,0.001,0.22
			c0.036,7.657-4.986,14.415-12.344,16.538c-3.756,1.084-7.023,2.012-7.023,2.012s-10.92,31.174-13.006,63.2
			c-2.085,32.026,19.856,45.938-0.165,109.938C2720.687,1307.588,2859.591,1266.369,2851.964,1249.26z"/>
		<path style="fill:#E8945B;" d="M2772.969,1032.143c0,0,0.676,9.358,0.696,18.174c16.641-0.469,25.437-15.648,29.04-24.063
			L2772.969,1032.143z"/>
		<path style="fill:#FFB27D;" d="M2767.411,1040.49c0,0,39.371,0.649,39.397-23.875c0.027-24.524,5.127-40.957-20.009-42.409
			c-25.136-1.452-30.03,7.901-32.03,16.085S2757.17,1039.689,2767.411,1040.49z"/>
		<path style="fill:#163560;" d="M2768.868,973.606c0,0,10.78,28.772,27.323,33.026c16.543,4.254,23.719-0.179,23.719-0.179
			s-12.689-10.08-15.322-27.677C2804.588,978.776,2777,959.912,2768.868,973.606z"/>
		<path style="fill:#163560;" d="M2771.54,975.941c0,0-7.993,2.989-11.284,8.818c-3.217,5.702-5.957,13.252-5.321,22.515
			c0,0-8.122-19.556,1.005-30.619C2765.618,964.925,2771.54,975.941,2771.54,975.941z"/>
		<path style="fill:#EBF3FA;" d="M2775.978,1025.276c0,0-2.716,3.574-8.152,3.317c-4.378-0.208-6.066-4.006-6.066-4.006
			S2769.801,1022.654,2775.978,1025.276z"/>
		<path style="fill:#F99746;" d="M2855.764,1122.27c0,0,1,14.096,0,31.01c-0.665,11.212-12.007,26.23-13.615,29.945
			c-4.038,9.317-8.592,10.834-8.592,10.834l-35.227,8.634l-12.386,3.031l-39.06-11.665c0,0-17.791-49.657-10.646-77.61
			c7.143-27.952,18.057-47.364,18.057-47.364s31.873,31.208,73.373-2.646L2855.764,1122.27z"/>
		<path style="fill:#F2CCAA;" d="M2845.453,1157.855c-0.665,11.213-1.696,21.654-3.305,25.369
			c-4.038,9.317-8.592,10.834-8.592,10.834l-35.227,8.634l-15.299-4.497c0,0,51.072-7.74,45.414-51.682L2845.453,1157.855z"/>
		<path style="fill:#163560;" d="M2749.369,1201.596c0,0-19.344,60.207-20.586,80.706s36.976,291.203,38.514,300.648
			c1.449,8.903,12.505,14.579,12.505,14.579s5.085,2.999,12.342,0.95c10.069-2.843,13.251-6.247,13.251-6.247
			s15.057-193.064,5.739-262.031c-9.317-68.966-9.427-128.605-9.427-128.605H2749.369z"/>
		<path style="fill:#1C468A;" d="M2831.322,1199.8c0,0,29.506,39.589,32.256,66.352c2.751,26.763,4.316,120.767,10.176,146.855
			c5.86,26.089,27.392,76.297,27.392,157.67c0,0-2.237,4.664-9.148,7.148c-2.21,0.795-5.171,1.565-8.045,2.225
			c-5.699,1.307-11.546-1.479-14.147-6.715c-14.557-29.31-60.926-123.837-63.303-143.459
			c-1.683-13.887-16.323-105.791-48.259-159.719c-7.667-12.946,4.705-64.434,4.705-64.434L2831.322,1199.8z"/>
		<path style="fill:#FFFFFF;" d="M2775.103,1025.933c0,0-0.681,2.89-7.87,2.444c0,0-6.037-0.373-5.852-3.55
			C2761.381,1024.827,2767.233,1022.567,2775.103,1025.933z"/>
		<path style="fill:#233862;" d="M2746.279,1192.301c0,0,7.766,6.143,23.191,6.453c18.426,0.371,64.084-4.697,64.084-4.697
			s2.029,5.668,1.946,11.653c0,0-55.764,14.065-88.073,2.054C2747.428,1207.764,2743.26,1199.923,2746.279,1192.301z"/>
		<g>
			<path style="fill:#FFFFFF;" d="M2765.05,1214.633c-4.636,0-8.408-4.269-8.408-9.516c0-5.248,3.772-9.517,8.408-9.517
				c4.637,0,8.408,4.269,8.408,9.517C2773.458,1210.364,2769.687,1214.633,2765.05,1214.633z M2765.05,1198.388
				c-3.1,0-5.621,3.019-5.621,6.729c0,3.71,2.521,6.729,5.621,6.729s5.621-3.019,5.621-6.729
				C2770.671,1201.406,2768.149,1198.388,2765.05,1198.388z"/>
		</g>
		
			<rect x="2793.094" y="1137.116" transform="matrix(0.7542 -0.6567 0.6567 0.7542 -84.8167 2151.3655)" style="fill:#AFCDFB;" width="75.755" height="103.698"/>
		<path style="fill:#FFB27D;" d="M2820.669,1203.374c0,0-22.212,3.412-22.147,8.382c0.066,4.969,4.595,13.956,9.082,14.667
			c5.7,0.902,17.035-13.806,17.035-13.806L2820.669,1203.374z"/>
		<path style="fill:#FFB27D;" d="M2820.201,1204.55c0,0-7.439-2.719-12.9-1.596c-5.459,1.123-10.506,0.296-9.265,2.28
			c1.241,1.986,8.628,1.248,9.799,2.025c1.172,0.777,1.189,0.291,1.189,0.291L2820.201,1204.55z"/>
		<path style="fill:#F99746;" d="M2827.668,1066.438c0,0,27.948,1.96,38.661,28.002c10.713,26.043,31.039,69.769,31.039,77.124
			c0,7.356-11.354,30.032-72.332,43.069c0,0-6.307-6.635-5.925-11.881c0,0,38.064-32.695,37.962-36.516
			c-0.193-7.229-6.24-16.771-39.659-50.2C2808.328,1106.947,2827.668,1066.438,2827.668,1066.438z"/>
	</g>
	<g>
		<path style="fill:#2B478B;" d="M1045.958,1630.982c-14.704,0-29.379-1.289-43.824-3.882c-13.211-2.371-26.122-5.81-38.6-10.252
			c-19.48,1.84-39.104,1.878-58.556,0.063c-59.972-5.59-115.095-23.558-160.81-51.551c-10.867,2.355-22.079,3.24-33.615,2.642
			c-28.026-1.451-54.559-11.996-78.861-31.341c-23.102-18.389-43.055-43.771-59.304-75.443
			c-28.486-55.522-42.583-125.293-39.694-196.462c3.201-78.835,26.804-154.617,68.259-219.155
			c32.635-50.808,68.689-90.259,107.16-117.259c33.315-23.382,69.406-38.082,107.268-43.693c10.581-1.568,21.035-2.413,31.352-2.64
			c32.992-19.723,70.953-34.402,110.833-42.56c46.667-9.545,117.627-11.753,190.678,31.936
			c75.948,45.423,136.711,129.958,180.602,251.256c2.51,6.937,4.837,13.854,6.983,20.759c10.069,5.206,20.941,11.063,33.08,17.604
			l0.795,0.429c37.938,20.44,97.123,36.796,158.32,43.752c51.026,5.798,126.814,7.823,198.095-15.468
			c66.609-21.767,113.673-60.672,139.882-115.638l5.732,2.732c-26.987,56.597-75.315,96.614-143.642,118.941
			c-72.367,23.646-149.131,21.611-200.785,15.741c-61.959-7.042-122.002-23.667-160.615-44.472l-0.795-0.428
			c-9.99-5.384-19.081-10.281-27.52-14.711c17.645,60.89,21.059,120.389,10.127,177.264
			c-11.048,57.478-36.646,109.724-74.027,151.091c-10.868,12.027-22.551,22.903-34.831,32.475c-0.852,1.876-1.726,3.739-2.613,5.571
			c4.363,8.313,6.965,16.331,6.506,23.263c-0.753,11.377-13.673,21.38-38.4,29.73c-2.038,0.688-4.143,1.361-6.316,2.021
			c-20.156,20.399-44.521,35.364-73.016,44.794C1099.934,1626.655,1072.898,1630.982,1045.958,1630.982z M978.616,1615.06
			c8.067,2.356,16.291,4.292,24.64,5.791c39.874,7.155,81.562,4.119,120.558-8.787c23.542-7.79,44.284-19.572,62.005-35.188
			c-33.4,8.349-78.418,13.808-126.927,15.675c-1.898,0.815-3.811,1.614-5.731,2.395
			C1029.208,1604.675,1004.112,1611.416,978.616,1615.06z M752.828,1563.15c43.818,25.659,96.06,42.155,152.74,47.439
			c14.694,1.368,29.499,1.658,44.252,0.896c-16.153-6.896-31.441-15.528-45.522-25.742c-22.854-3.156-43.884-7.257-62.378-12.198
			c-24.229-6.474-44.11-14.312-59.469-23.423C772.916,1555.801,763.034,1560.146,752.828,1563.15z M918.122,1587.512
			c14.4,9.286,29.919,16.965,46.221,22.879c25.874-2.562,51.461-8.368,75.98-17.305c-23.682,0.455-47.934,0.059-71.852-1.267
			C951.053,1590.854,934.197,1589.408,918.122,1587.512z M906.806,1579.712c19.269,2.607,40.001,4.547,62.017,5.767
			c29.621,1.643,59.743,1.853,88.613,0.784c17.675-7.669,34.344-16.883,49.75-27.457c-8.493-0.557-16.806-1.846-24.879-3.873
			c-19.047-4.782-34.658-16.137-47.439-34.832c-19.843,0.574-40.146-0.56-60.765-3.443c-49.289-6.892-89.652-21.854-120.674-44.656
			c-5.131,9.011-10.248,17.006-15.243,24.095c13.874,29.664,33.653,55.203,58.96,76.088
			C900.296,1574.782,903.515,1577.291,906.806,1579.712z M1117.726,1559.122c-13.545,9.894-28.126,18.729-43.553,26.371
			c47.702-2.632,90.906-8.811,121.312-17.821c5.981-6.15,11.563-12.794,16.736-19.927c6.006-8.28,11.506-17.276,16.488-26.961
			c-15.125,10.547-31.01,19.144-47.266,25.516C1159.965,1554.718,1138.416,1559.02,1117.726,1559.122z M788.575,1546.261
			c24.673,13.823,60.709,24.606,105.474,31.595c-0.316-0.258-0.629-0.515-0.943-0.774c-25.143-20.749-44.98-45.954-59.164-75.134
			c-6.737,9.016-13.181,16.375-19.035,22.332C806.476,1532.855,797.69,1540.186,788.575,1546.261z M1233.46,1525.364
			c-7.461,14.18-16.046,26.938-25.748,38.27c18.561-6.878,28.981-14.798,29.492-22.506
			C1237.492,1536.783,1236.214,1531.479,1233.46,1525.364z M836.004,888.717c-6.94,0.507-13.453,1.289-19.691,2.214
			c-36.876,5.464-72.052,19.8-104.552,42.61c-37.793,26.524-73.277,65.382-105.465,115.493
			c-40.845,63.589-64.103,138.274-67.257,215.981c-2.846,70.092,11.005,138.742,38.999,193.306
			c15.834,30.863,35.217,55.55,57.609,73.374c23.245,18.503,48.558,28.585,75.234,29.967c8.654,0.449,17.123,0.015,25.393-1.294
			c-28.758-18.796-53.491-41.701-72.974-68.083c-9.859-13.351-18.275-27.396-25.232-42.057
			c-21.555-11.604-39.258-28.406-52.901-50.265c-18.88-30.25-28.831-68.886-28.776-111.73c0.023-18.023,1.906-36.331,5.441-54.025
			c-1.962-51.606,19.303-111.354,60.071-168.606c39.095-54.902,90.145-98.945,140.062-120.835
			c5.578-2.446,11.083-4.588,16.507-6.425c7.122-8.172,14.851-15.982,23.166-23.402C812.185,905.527,823.7,896.757,836.004,888.717z
			 M647.444,1454.839c6.019,11.661,13.011,22.901,20.965,33.673c20.267,27.443,46.366,51.046,76.856,70.068
			c10.73-2.576,21.107-6.677,31.101-12.292c-7.28-4.882-13.351-10.101-18.187-15.642c-17.2-19.709-32.365-40.363-44.936-61.104
			c-10.453-0.561-20.909-1.825-31.351-3.894C669.579,1463.211,658.09,1459.603,647.444,1454.839z M1042.47,1519.797
			c11.433,15.414,25.08,24.883,41.384,28.977c10.227,2.568,20.876,3.896,31.794,3.994c18.312-13.582,34.646-29.152,48.529-46.365
			c7.338-9.099,13.903-18.541,19.685-28.275C1141.913,1503.018,1093.836,1517.172,1042.47,1519.797z M1193.69,1473.712
			c-6.931,12.711-15.128,24.97-24.57,36.677c-12.413,15.392-26.735,29.497-42.642,42.08c17.199-1.095,34.934-5.139,52.647-12.081
			c16.576-6.497,32.768-15.385,48.135-26.352c-6.007-9.507-14.641-20.344-25.669-32.127
			C1199.054,1479.199,1196.419,1476.465,1193.69,1473.712z M720.828,1469.829c11.775,18.964,25.903,38.04,42.136,56.642
			c5.003,5.733,11.546,11.133,19.513,16.165c9.684-6.141,18.994-13.747,27.9-22.809c6.268-6.376,13.229-14.408,20.506-24.427
			c-1.924-4.291-3.728-8.66-5.415-13.113c-1.755-4.633-3.371-9.33-4.845-14.086c-2.287-0.493-4.551-1.052-6.791-1.677
			c-5.67-1.582-11.173-3.607-16.501-6.07C772.593,1466.755,746.825,1470.407,720.828,1469.829z M861.868,1470.194
			c29.535,20.32,67.357,33.775,113.115,40.174c18.933,2.647,37.597,3.787,55.875,3.471c-8.166-13.591-15.086-30.516-20.947-51.007
			c-0.744-2.6-1.466-5.243-2.167-7.922c-8.436-1.164-16.867-2.633-25.286-4.405c-10.924-2.301-21.309-5.176-31.134-8.616
			c-19.621,9.541-39.65,17.615-59.445,22.787C881.404,1467.413,871.422,1469.252,861.868,1470.194z M1014.545,1455.783
			c0.481,1.785,0.971,3.555,1.471,5.303c6.169,21.569,13.492,38.984,22.201,52.544c54.88-2.161,106-17.666,149.819-45.522
			c-8.608-8.385-18.022-16.913-28.06-25.443c-9.217,2.799-18.477,5.225-27.768,7.273
			C1093.363,1458.505,1053.914,1460.455,1014.545,1455.783z M1198.079,1469.119c2.815,2.839,5.533,5.657,8.148,8.45
			c9.011,9.628,18.837,21.21,26.15,32.717c0.716-0.54,1.427-1.081,2.14-1.629c8.604-19.318,15.346-41.046,20.155-65.003
			c1.964-9.785,3.613-19.971,4.948-30.562c-9.644,11.744-20.258,22.778-31.781,32.97
			C1218.371,1454.438,1208.438,1462.125,1198.079,1469.119z M1267.108,1403.575c-1.516,14.474-3.586,28.257-6.21,41.329
			c-4.019,20.021-9.342,38.456-15.955,55.283c8.649-7.407,16.955-15.498,24.823-24.206c36.033-39.876,60.89-90.101,71.986-145.402
			c-10.254,10.616-30.707,30.289-59.59,50.971C1277.49,1389.108,1272.466,1396.461,1267.108,1403.575z M827.699,1469.5
			c1.155,3.55,2.39,7.061,3.708,10.538c1.189,3.139,2.44,6.239,3.751,9.296c3.808-5.569,7.682-11.688,11.568-18.396
			C840.19,1470.92,833.856,1470.44,827.699,1469.5z M825.603,1462.718c5.901,1.054,12.01,1.653,18.318,1.803
			c-5.167-4.351-10.038-8.949-14.608-13.793c-2.107,0.743-4.229,1.471-6.358,2.181
			C823.771,1456.206,824.655,1459.477,825.603,1462.718z M872.732,1432.736c-4.896,11.538-9.923,21.979-14.968,31.412
			c10.322-0.774,21.15-2.648,32.51-5.617c17.507-4.573,35.262-11.498,52.775-19.727c-14.77-5.847-28.191-13.058-40.202-21.6
			C893.334,1422.497,883.267,1427.732,872.732,1432.736z M716.898,1463.359c24.315,0.957,48.491-1.926,71.852-7.335
			c-15.911-9.107-30.118-22.393-42.437-39.717c-6.7-9.422-12.671-19.293-17.886-29.537c-14.302-2.612-28.746-6.216-43.318-10.81
			c-1.016-0.32-2.033-0.647-3.056-0.982C686.634,1402.231,698.611,1432.553,716.898,1463.359z M1167.115,1440.419
			c8.853,7.617,17.199,15.221,24.916,22.718c6.124-12.307,11.063-25.027,14.803-38.076
			C1193.723,1430.951,1180.471,1436.075,1167.115,1440.419z M642.914,1445.587c12.162,6.314,25.581,10.936,40.212,13.834
			c8.716,1.727,17.464,2.877,26.202,3.514c-6.34-10.95-11.942-21.901-16.721-32.722c-8.912-20.182-14.742-39.575-17.381-57.57
			c-18.601-6.642-37.999-15.875-55.388-28.702C620.641,1380.093,628.39,1414.267,642.914,1445.587z M835.852,1448.361
			c4.863,4.981,10.068,9.688,15.609,14.116c4.235-7.836,8.46-16.389,12.613-25.732
			C854.96,1440.857,845.532,1444.766,835.852,1448.361z M807.293,1457.762c3.671,1.358,7.431,2.514,11.281,3.464
			c-0.585-2.106-1.143-4.224-1.675-6.353C813.715,1455.877,810.518,1456.839,807.293,1457.762z M1214.397,1421.571
			c-3.383,12.958-7.905,25.61-13.553,37.891c7.869-5.631,15.471-11.685,22.788-18.156c13.822-12.226,26.303-25.686,37.344-40.154
			c0.189-1.869,0.37-3.758,0.541-5.651c-4.365,2.778-8.876,5.544-13.525,8.273
			C1236.927,1410.271,1225.718,1416.208,1214.397,1421.571z M736.29,1388.109c4.533,8.465,9.604,16.651,15.198,24.519
			c13.417,18.867,28.844,32.561,46.442,41.132c5.899-1.542,11.741-3.239,17.508-5.065c-1.453-6.516-2.658-13.128-3.616-19.842
			c-0.367-0.545-0.731-1.093-1.092-1.642c-7.13-10.855-13.139-22.665-18.022-35.405
			C774.213,1392.359,755.388,1391.123,736.29,1388.109z M1012.831,1449.176c39.484,4.966,79.053,3.151,118.009-5.439
			c7.793-1.719,15.566-3.708,23.31-5.965c-26.596-22.078-57.163-44.003-88.585-63.36c-6.945,4.307-14.244,8.937-21.84,13.754
			c-12.14,7.699-25.101,15.92-38.618,24.077C1007.379,1425.183,1009.921,1437.538,1012.831,1449.176z M959.372,1437.884
			c7.788,2.486,15.92,4.622,24.395,6.406c7.424,1.563,14.859,2.887,22.297,3.968c-2.52-10.342-4.76-21.21-6.787-32.523
			C986.365,1423.411,972.991,1430.956,959.372,1437.884z M820.161,1440.201c0.42,2.182,0.87,4.356,1.345,6.516
			c1.066-0.357,2.128-0.719,3.189-1.084C823.146,1443.853,821.634,1442.043,820.161,1440.201z M817.909,1426.509
			c4.05,5.902,8.467,11.516,13.245,16.834c12.693-4.621,24.956-9.803,36.669-15.297c3.989-9.553,7.89-19.863,11.64-30.987
			c-1.318-1.374-2.608-2.769-3.876-4.188c-3.673-4.113-7.122-8.42-10.341-12.907c-2.964,0.902-5.944,1.755-8.933,2.557
			c-13.417,3.597-27.064,6.162-40.91,7.697C815.456,1402.608,816.293,1414.714,817.909,1426.509z M564.507,1258.059
			c-1.151,10.041-1.752,20.154-1.765,30.182c-0.053,41.652,9.565,79.122,27.813,108.36c11.413,18.285,25.81,32.874,43.052,43.67
			c-13.255-31.407-20.039-65.445-20.194-101.313C590.137,1319.968,571.364,1293.877,564.507,1258.059z M1071.616,1370.688
			c31.975,19.879,62.985,42.343,89.801,64.885c16.01-5.022,31.877-11.186,47.537-18.463c5.79-23.453,7.772-47.911,5.865-72.886
			c-9.688,7.939-19.924,14.288-30.515,18.845c-28.429,12.229-54.273,12.673-76.812,1.317c-4.169-2.101-8.177-4.563-12.038-7.363
			C1088.192,1360.802,1080.206,1365.45,1071.616,1370.688z M908.985,1413.74c12.471,8.533,26.475,15.633,41.951,21.266
			c16.123-7.952,31.974-16.884,47.173-25.97c-2.781-16.405-5.155-33.682-7.319-51.574c-11.583,9.382-23.534,18.416-35.618,26.898
			C942.358,1393.354,926.738,1403.572,908.985,1413.74z M884.468,1402.052c-2.642,7.68-5.354,14.969-8.118,21.894
			c7.211-3.552,14.197-7.209,20.903-10.895C892.779,1409.583,888.516,1405.915,884.468,1402.052z M799.411,1391.528
			c3.122,7.878,6.693,15.378,10.712,22.493c-0.663-7.612-1.019-15.335-1.069-23.173
			C805.851,1391.13,802.636,1391.356,799.411,1391.528z M1220.763,1339.092c2.429,25.489,0.924,50.479-4.436,74.502
			c9.575-4.684,19.062-9.784,28.448-15.296c6.046-3.551,11.848-7.155,17.4-10.773c2.352-31.256,2.261-65.563-0.273-102.762
			C1250.392,1306.483,1236.385,1324.898,1220.763,1339.092z M886.714,1395.376c5.151,5.11,10.684,9.878,16.591,14.298
			c18.606-10.532,34.938-21.189,48.219-30.512c13.462-9.449,26.304-19.246,38.381-29.145c-0.646-5.522-1.273-11.093-1.89-16.717
			c-7.051-3.069-13.932-5.858-20.634-8.363c-23.063,18.548-47.388,33.342-72.765,44.263
			C892.082,1378.37,889.441,1387.088,886.714,1395.376z M996.614,1352.689c2.176,18.341,4.554,36.039,7.343,52.824
			c12.702-7.703,24.904-15.441,36.366-22.712c6.623-4.2,13.025-8.26,19.17-12.092c-1.693-1.021-3.386-2.034-5.083-3.04
			c-15.835-9.385-31.235-17.723-46.042-24.957C1004.505,1346.07,1000.584,1349.399,996.614,1352.689z M1268.262,1391.122
			c-0.001,0.014-0.002,0.026-0.003,0.04c0.014-0.021,0.034-0.049,0.049-0.07C1268.293,1391.102,1268.275,1391.113,1268.262,1391.122
			z M871.625,1377.938c2.734,3.703,5.636,7.275,8.698,10.703c0.463,0.519,0.932,1.037,1.402,1.549
			c1.853-5.759,3.664-11.72,5.428-17.901C882.017,1374.328,876.843,1376.211,871.625,1377.938z M732.677,1381.073
			c19.558,3.377,38.825,4.854,57.736,4.438c-11.532-33.3-15.74-72.675-12.616-117.91c-3.153-2.871-6.191-5.884-9.11-9.04
			c-1.794-1.94-3.544-3.931-5.243-5.966c-14.421,6.67-27.133,13.103-37.499,18.9c-6.362,3.558-12.076,7.554-17.134,11.976
			c0.019,0.697,0.041,1.393,0.066,2.089C710.085,1319.238,718.224,1351.688,732.677,1381.073z M783.813,1272.788
			c-2.512,43.206,1.905,80.776,13.246,112.496c4.022-0.186,8.033-0.457,12.021-0.815c0.178-12.127,1.08-24.517,2.707-37.133
			c0.098-2.358,1.191-23.447,9.661-52.07C807.697,1289.519,795.097,1282.005,783.813,1272.788z M827.448,1297.634
			c-8.415,28.786-9.309,49.765-9.32,50.085l-0.024,0.292c-1.575,12.171-2.461,24.113-2.661,35.812
			c13.28-1.509,26.358-3.986,39.225-7.436c2.277-0.611,4.544-1.251,6.807-1.921c-14.093-21.51-23.158-46.767-26.538-74.247
			C832.405,1299.411,829.912,1298.551,827.448,1297.634z M1267.446,1273.624c3.147,39.671,3.617,76.223,1.407,109.463
			c2.934-1.986,5.786-3.969,8.564-5.945c28.338-46.308,43.342-100.587,42.414-156.869c-0.422-25.588-7.972-42.814-23.082-52.666
			c-1.634-1.064-3.348-2.034-5.135-2.911C1291.934,1200.689,1283.329,1239.557,1267.446,1273.624z M681.026,1367.942
			c1.974,0.671,3.969,1.324,5.992,1.962c12.747,4.019,25.399,7.266,37.931,9.739c-13.088-28.001-20.671-58.576-22.263-90.27
			c-11.168,11.887-18.277,26.384-21.217,43.344C679.59,1343.553,679.48,1355.387,681.026,1367.942z M841.599,1302.195
			c3.603,26.09,12.54,50,26.199,70.313c7.245-2.341,14.418-4.994,21.506-7.954c5.178-19.134,9.182-37.855,12.144-55.34
			c-2.349-0.134-4.641-0.202-6.878-0.202C875.742,1309.012,858.011,1306.71,841.599,1302.195z M1291.434,1157.634
			c3.142,1.332,6.067,2.883,8.783,4.653c16.774,10.937,25.51,30.41,25.963,57.88c0.864,52.418-11.798,103.135-35.982,147.543
			c31.375-24,50.251-44.85,53.669-48.73c9.041-54.978,4.564-112.41-13.324-171.166c-15.608-8.018-29.116-14.324-42.459-19.118
			c1.646,8.483,2.729,17.295,3.225,26.359C1291.356,1155.911,1291.398,1156.773,1291.434,1157.634z M1013.524,1338.182
			c14.241,7.034,28.997,15.062,44.123,24.025c2.638,1.563,5.274,3.147,7.904,4.749c8.739-5.373,16.912-10.2,24.42-14.217
			c-14.086-11.812-26.092-28.265-36.567-47.931c-2.27,0.621-4.535,1.181-6.798,1.679
			C1036.357,1317.133,1025.236,1327.779,1013.524,1338.182z M1101.939,1353.795c2.756,1.845,5.557,3.483,8.41,4.921
			c21.077,10.62,44.447,10.136,71.445-1.48c11.26-4.844,22.116-11.837,32.314-20.713c-1.85-17.135-5.52-34.496-11.035-51.933
			c-2.209-6.984-4.79-13.624-7.738-19.914c-29.085,44.204-60.98,76.2-85.402,85.657
			C1107.403,1351.313,1104.734,1352.474,1101.939,1353.795z M619.772,1336.005c15.051,11.818,33.293,21.707,54.573,29.57
			c-1.229-12.076-0.953-23.456,0.866-33.942c3.534-20.385,12.648-37.441,27.187-50.952c-0.621-38.147,7.111-76.325,22.497-111.145
			c-4.042-18.987-6.077-39.571-6.052-61.556c-6.667-0.344-13.284-0.447-19.83-0.317c-35.359,50.932-60.381,108.26-72.419,165.969
			C622.153,1294.918,619.889,1315.759,619.772,1336.005z M907.792,1309.727c-2.752,16.359-6.403,33.778-11.059,51.599
			c22.081-9.975,43.345-22.98,63.639-38.928C941.026,1315.615,923.33,1311.33,907.792,1309.727z M1059.697,1302.935
			c11.168,20.69,23.246,36.139,36.439,46.619c4.065-2.019,7.906-3.75,11.504-5.143c22.994-8.903,54.712-41.02,82.778-83.815
			c0.546-0.833,1.09-1.667,1.63-2.503c-8.565-16.122-19.739-29.745-33.459-40.799c-8.028,17.543-20.46,34.363-36.608,49.076
			C1103.413,1283.288,1081.622,1295.873,1059.697,1302.935z M994.734,1336.287c0.331,2.981,0.665,5.941,1.004,8.893
			c2.164-1.816,4.303-3.637,6.414-5.456C999.66,1338.546,997.189,1337.401,994.734,1336.287z M993.933,1328.985
			c4.42,1.963,8.893,4.027,13.428,6.198c10.219-9.004,19.749-17.988,28.505-26.792c-8.371,1.117-16.59,1.343-24.486,0.606
			c-6.508-0.606-12.493-3.061-18.067-7.019c-0.673,0.654-1.343,1.3-2.019,1.947C992.163,1312.365,993.037,1320.724,993.933,1328.985
			z M1199.377,1258.428c3.784,7.579,7.036,15.663,9.751,24.248c5.151,16.284,8.731,32.503,10.762,48.546
			c14.883-14.358,28.174-32.821,38.998-54.476c0.712-1.424,1.411-2.858,2.096-4.301c-2.042-25.181-5.167-51.626-9.372-79.3
			c-1.525-10.037-3.54-19.899-6.039-29.579C1234.562,1195.415,1218.825,1227.843,1199.377,1258.428z M568.207,1234.688
			c0.026,0.622,0.057,1.243,0.09,1.863c1.631,30.2,11.627,56.575,29.71,78.393c4.633,5.59,9.799,10.877,15.483,15.854
			c0.447-19.032,2.735-38.561,6.886-58.463c11.904-57.066,36.314-113.751,70.742-164.396c-11.87,0.592-23.465,1.979-34.657,4.167
			c-25.631,5.01-49.439,26.54-67.037,60.625C579.951,1191.078,572.733,1212.362,568.207,1234.688z M973.018,1320.309
			c4.659,1.79,9.398,3.711,14.214,5.761c-0.593-5.524-1.178-11.087-1.759-16.689
			C981.365,1313.148,977.213,1316.791,973.018,1320.309z M908.811,1303.455c16.919,1.8,36.233,6.636,57.349,14.292
			c5.927-4.866,11.766-9.986,17.519-15.361c0.327-0.305,0.651-0.609,0.977-0.916c-0.274-2.664-0.547-5.338-0.822-8.016
			c-8.465-9.27-15.989-22.078-23.087-36.89c-16.301,4.653-29.483,6.591-38.366,4.433c-2.634-0.641-5.484-1.414-8.51-2.321
			C913.025,1271.953,911.375,1287.114,908.811,1303.455z M997.891,1297.46c4.432,2.941,9.106,4.752,14.078,5.216
			c10.031,0.936,20.63,0.227,31.39-1.971c1.761-1.843,3.485-3.676,5.172-5.495c-5.652-11.668-10.843-24.292-15.667-37.604
			C1021.783,1271.876,1010.09,1285.218,997.891,1297.46z M840.781,1295.354c16.564,4.837,34.579,7.308,53.787,7.308
			c2.565,0,5.205,0.085,7.909,0.255c2.681-16.977,4.36-32.647,5.164-46.217c-14.791-4.94-32.87-12.699-51.205-23.507
			c-2.746,4.293-5.366,8.703-7.86,13.233c-3.155,5.731-5.983,11.433-8.521,17.048
			C839.487,1274.23,839.721,1284.896,840.781,1295.354z M1056.205,1296.234c0.169,0.336,0.341,0.676,0.511,1.011
			c21.395-6.709,42.771-18.971,60.989-35.569c15.925-14.509,28.071-31.106,35.712-48.34c-9.448-6.864-19.997-12.61-31.628-17.219
			c-1.377-0.546-2.764-1.073-4.161-1.583c-3.349,1.319-6.695,2.652-10.034,3.995c-1.212,10.744-2.979,20.315-5.042,28.285
			C1098.301,1243.236,1081.429,1268.499,1056.205,1296.234z M989.943,1290.769c0.952,0.975,1.918,1.9,2.892,2.768
			c13.134-13.126,25.685-27.557,37.503-43.057c-1.974-5.693-3.888-11.506-5.747-17.408c-13.85,5.708-26.976,10.938-39.059,15.329
			c1.457,13.494,2.836,26.978,4.205,40.358C989.806,1289.431,989.874,1290.098,989.943,1290.769z M829.309,1291.539
			c1.616,0.605,3.251,1.188,4.898,1.746c-0.4-4.558-0.65-9.148-0.75-13.769C831.927,1283.624,830.55,1287.64,829.309,1291.539z
			 M1037.468,1251.575c2.491,7.016,5.093,13.883,7.818,20.544c2.587,6.323,5.224,12.313,7.916,17.976
			c23.905-26.568,39.36-50.028,43.203-64.872c1.777-6.866,3.329-14.957,4.479-23.979c-13.713,5.577-27.263,11.268-40.358,16.784
			C1053.218,1229.648,1045.516,1240.856,1037.468,1251.575z M784.343,1264.924c11.521,10.04,24.59,18.147,38.992,24.234
			c2.77-8.611,6.201-17.789,10.451-27.267c0.769-13.143,2.697-26.395,5.745-39.545c-0.208-0.145-0.412-0.288-0.619-0.434
			c-18.417,6.561-36.068,13.501-52.293,20.406C785.663,1250.014,784.905,1257.547,784.343,1264.924z M966.884,1254.732
			c5.025,10.435,10.233,19.754,15.786,27.346c-1.072-10.458-2.157-20.966-3.289-31.485
			C975.06,1252.102,970.893,1253.486,966.884,1254.732z M727.378,1180.039c-11.971,29.97-18.454,63.004-18.652,95.251
			c4.316-3.374,9.023-6.487,14.12-9.338c10.143-5.673,22.51-11.948,36.514-18.459
			C744.833,1228.574,734.124,1205.913,727.378,1180.039z M1250.689,1158.081c3.035,11.132,5.437,22.507,7.2,34.109
			c3.589,23.62,6.396,46.368,8.418,68.203c12.895-31.438,19.62-66.171,18.915-98.341
			C1275.357,1158.658,1263.682,1157.497,1250.689,1158.081z M769.442,1249.853c1.275,1.492,2.579,2.959,3.908,4.396
			c1.654,1.788,3.349,3.53,5.082,5.223c0.408-4.688,0.893-9.443,1.453-14.253C776.326,1246.769,772.84,1248.316,769.442,1249.853z
			 M914.229,1252.153c3.459,1.063,6.695,1.954,9.653,2.674c7.59,1.847,19.436,0.064,34.141-4.088
			c-6.711-14.679-13.089-31.018-19.579-47.643c-1.174-3.007-2.351-6.022-3.535-9.041c-9.294,2.024-18.275,4.194-26.817,6.419
			c3.428,8.254,5.468,16.727,6.061,25.325C914.652,1233.034,914.698,1241.939,914.229,1252.153z M1161.184,1211.215
			c14.128,11.064,25.737,24.668,34.766,40.744c18.833-30.124,34-61.936,44.523-93.098c-21.488,2.271-45.954,8.56-71.477,16.93
			C1168.487,1187.577,1165.816,1199.518,1161.184,1211.215z M859.912,1227.926c17.124,10.058,34.017,17.39,48.059,22.192
			c0.371-9.202,0.304-17.261-0.153-23.881c-0.565-8.172-2.56-16.242-5.929-24.117c-9.652,2.605-19.297,5.421-28.852,8.396
			C868.407,1216.062,864.03,1221.865,859.912,1227.926z M941.205,1192.717c1.056,2.695,2.106,5.386,3.154,8.071
			c6.585,16.869,13.049,33.429,19.796,48.136c4.615-1.425,9.466-3.045,14.521-4.829c-2.084-19.035-4.341-38.077-6.963-56.882
			C961.307,1188.798,951.098,1190.666,941.205,1192.717z M845.172,1226.172c-1.441,6.521-2.6,13.068-3.469,19.605
			c0.431-0.804,0.868-1.608,1.311-2.413c2.535-4.605,5.2-9.095,7.989-13.46C849.058,1228.694,847.112,1227.45,845.172,1226.172z
			 M731.542,1170.231c6.446,29.039,17.754,54.117,33.742,74.539c4.992-2.27,10.167-4.561,15.506-6.858
			c2.521-19.261,6.236-39.46,11.147-60.598c-6.178-8.226-11.678-17.087-16.25-26.603c-5.151-10.721-8.869-21.742-11.155-33.047
			c-11.64,13.43-22.184,29.688-30.972,48.201C732.875,1167.312,732.201,1168.768,731.542,1170.231z M1030.474,1230.638
			c1.45,4.604,2.941,9.171,4.476,13.688c5.239-7.111,10.324-14.434,15.243-21.945
			C1043.497,1225.198,1036.911,1227.964,1030.474,1230.638z M977.998,1186.294c2.564,18.388,4.78,36.993,6.825,55.589
			c11.813-4.328,24.586-9.428,37.879-14.905c-4.362-14.281-8.431-29.077-12.3-44.107
			C999.521,1183.622,988.677,1184.8,977.998,1186.294z M796.984,1183.718c-4.004,17.792-7.142,34.902-9.41,51.307
			c14.165-5.959,29.342-11.92,45.12-17.623C819.894,1207.798,807.624,1196.597,796.984,1183.718z M846.714,1219.632
			c2.579,1.732,5.164,3.399,7.753,5.007c2.464-3.638,5.021-7.188,7.665-10.647c-5.138,1.675-10.239,3.391-15.292,5.139
			C846.798,1219.295,846.755,1219.466,846.714,1219.632z M1016.832,1182.477c3.612,14.003,7.503,28.166,11.751,42.067
			c8.399-3.488,16.974-7.102,25.626-10.747c0.668-0.281,1.334-0.563,2.005-0.845c5.838-9.366,11.414-18.996,16.708-28.861
			C1054.707,1181.814,1035.77,1181.47,1016.832,1182.477z M798.799,1175.86c11.871,15.263,26.153,28.214,41.052,38.987
			c0.568-0.2,1.132-0.398,1.701-0.598c4.485-16.757,10.789-33.271,18.821-49.081c1.379-2.716,2.801-5.392,4.262-8.025
			c-0.01-0.008-0.018-0.014-0.027-0.021c-14.654-11.243-32.548-21.088-52.384-28.964c-2.209,6.052-4.208,12.312-5.993,18.774
			C803.513,1156.764,801.036,1166.408,798.799,1175.86z M869.668,1161.165c-1.242,2.262-2.454,4.556-3.634,6.88
			c-7.167,14.108-12.922,28.786-17.198,43.688c6.775-2.31,13.629-4.557,20.534-6.724c6.647-7.825,13.793-15.139,21.419-21.92
			C885.101,1175.471,878.039,1168.13,869.668,1161.165z M1079.623,1185.021c-4.281,8.062-8.75,15.973-13.392,23.717
			c11.571-4.862,23.456-9.818,35.463-14.68c0.142-1.444,0.273-2.911,0.394-4.394
			C1094.786,1187.727,1087.276,1186.193,1079.623,1185.021z M1126.374,1191.122c10.756,4.443,20.604,9.834,29.532,16.16
			c3.682-9.715,5.927-19.575,6.609-29.328C1150.601,1181.993,1138.487,1186.448,1126.374,1191.122z M770.381,948.113
			c-1.944,0.784-3.899,1.606-5.865,2.468c-48.177,21.127-99.556,65.503-137.439,118.703
			c-32.338,45.414-52.162,92.301-57.534,135.144c3.946-12.267,8.719-23.921,14.239-34.611
			c18.508-35.845,43.887-58.554,71.462-63.943c13.032-2.547,26.596-4.006,40.376-4.44c8.098-11.501,16.589-22.502,25.412-32.943
			c3.493-29.663,11.969-57.572,25.251-83.098C753.073,972.342,761.127,959.889,770.381,948.113z M894.456,1188.33
			c-4.648,4.163-9.115,8.534-13.39,13.103c6.002-1.787,12.029-3.506,18.059-5.144C897.73,1193.609,896.173,1190.954,894.456,1188.33
			z M899.295,1184.127c2.294,3.445,4.332,6.942,6.11,10.486c9.198-2.413,18.247-4.6,27.14-6.561
			c-2.884-7.291-5.815-14.563-8.827-21.699c-3.063,1.915-6.068,3.899-9.013,5.951
			C909.374,1176.021,904.237,1179.963,899.295,1184.127z M1108.776,1184.938c2.969,0.876,5.881,1.813,8.732,2.81
			c15.163-5.953,30.374-11.62,45.227-16.614c-0.094-18.12-5.172-36.028-14.272-52.047c-12.358,0.918-25.824,2.061-40.607,3.409
			c-0.446,1.185-0.892,2.356-1.346,3.537C1109.435,1146.986,1109.879,1167.134,1108.776,1184.938z M929.209,1163.033
			c3.296,7.78,6.49,15.715,9.629,23.665c10.914-2.293,21.575-4.236,31.975-5.829c-1.697-11.759-3.546-23.409-5.595-34.902
			C952.482,1150.754,940.465,1156.447,929.209,1163.033z M1082.741,1179.059c6.845,1.119,13.443,2.503,19.792,4.15
			c0.791-13.79,0.626-28.984-0.94-44.856C1095.853,1152.24,1089.55,1165.838,1082.741,1179.059z M971.277,1143.776
			c2.138,11.907,4.061,23.988,5.819,36.169c10.875-1.532,21.448-2.67,31.689-3.409c-3.021-11.95-5.929-24.035-8.771-36.112
			c-0.362-1.538-0.7-3.084-1.015-4.64C989.427,1138.018,980.185,1140.683,971.277,1143.776z M872.847,1155.554
			c9.011,7.393,16.619,15.218,22.762,23.375c4.965-4.162,10.12-8.107,15.465-11.833c3.3-2.301,6.673-4.517,10.117-6.648
			c-6.554-15.104-13.529-29.448-21.273-41.921C889.939,1129.465,880.834,1141.891,872.847,1155.554z M1036.256,1175.512
			c14.03,0,27.325,0.854,39.85,2.555c8.85-17.016,16.857-34.681,23.889-52.796c-0.099-0.676-0.199-1.345-0.303-2.022
			c-17.891,1.668-37.642,3.613-59.571,5.803c-12.063,1.205-23.707,2.992-34.92,5.356c0.308,1.53,0.64,3.051,0.996,4.562
			c2.821,11.993,5.807,24.482,9.013,37.153c0.933-0.053,1.864-0.103,2.791-0.148
			C1024.213,1175.666,1030.303,1175.512,1036.256,1175.512z M770.544,1115.245c2.155,11.21,5.777,22.125,10.866,32.717
			c3.599,7.489,7.798,14.564,12.461,21.228c1.918-7.857,3.996-15.841,6.236-23.948c1.841-6.662,3.903-13.117,6.182-19.358
			C794.877,1121.657,782.884,1118.077,770.544,1115.245z M1155.429,1118.585c8.39,15.663,13.191,32.937,13.626,50.456
			c7.756-2.522,15.4-4.846,22.87-6.911c18.946-5.238,35.741-8.526,50.485-9.863c-3.634-12.035-8.043-23.785-13.215-35.228
			C1209.316,1115.843,1185.854,1116.468,1155.429,1118.585z M725.192,1108.377c-0.001,18.167,1.431,35.331,4.267,51.387
			c8.799-17.84,19.225-33.572,30.71-46.711C748.465,1110.789,736.767,1109.229,725.192,1108.377z M904.42,1113.753
			c8.167,12.909,15.453,27.764,22.265,43.4c11.689-6.785,24.16-12.634,37.377-17.535c-2.126-11.438-4.46-22.702-7.049-33.734
			c-2.109-8.983-4.349-17.617-6.722-25.906C933.841,1088.007,918.351,1099.471,904.42,1113.753z M1256.837,1151.581
			c10.637,0,19.992,1.237,28.125,3.713c-0.554-10.02-1.847-19.714-3.843-28.966c-7.654-2.451-15.362-4.412-23.49-5.923
			c-2.163,10.3-4.903,20.78-8.187,31.364C1251.974,1151.644,1254.437,1151.581,1256.837,1151.581z M814.516,1122.14
			c19.737,7.834,37.893,17.734,53.3,29.442c8.407-14.259,18.007-27.2,28.547-38.564c-16.85-25.07-35.175-37.332-55.897-37.367
			C830.043,1089.352,821.381,1104.863,814.516,1122.14z M1236.389,1117.565c3.486,7.961,6.613,16.063,9.377,24.306
			c2.163-7.587,4.033-15.105,5.597-22.527C1246.561,1118.606,1241.598,1118.018,1236.389,1117.565z M1286.523,1121.447
			c13.285,4.512,26.516,10.443,41.352,17.896c-1.577-4.841-3.241-9.684-4.999-14.541c-43.38-119.886-103.231-203.313-177.89-247.966
			c-71.302-42.644-140.583-40.486-186.146-31.165c-35.441,7.25-69.319,19.728-99.42,36.365c25.511,0.659,50.199,4.905,74.086,11.098
			c30.86-8.547,62.711-11.718,91.862-8.808c40.301,4.023,71.444,18.861,89.98,42.056c35.236-8.327,71.258,2.602,104.104,32.229
			c29.445,26.559,44.338,64.362,44.001,110.768c0.945,1.317,1.868,2.654,2.771,4.017
			C1275.43,1087.285,1282.273,1103.552,1286.523,1121.447z M956.12,1077.271c2.504,8.682,4.862,17.735,7.075,27.16
			c2.538,10.812,4.832,21.84,6.924,33.025c8.927-3.063,18.181-5.708,27.749-7.93c-3.424-21.401-2.553-44.279,2.455-67.137
			C985.942,1065.592,971.152,1070.553,956.12,1077.271z M1007.147,1060.997c-5.356,22.867-6.436,45.785-3.068,67.157
			c11.379-2.393,23.187-4.201,35.411-5.422c21.841-2.182,41.446-4.104,59.167-5.747c-1.769-9.981-4.137-20.095-7.205-30.166
			c-2.086-6.851-4.622-14.035-7.702-21.366C1060.683,1057.363,1034.74,1055.881,1007.147,1060.997z M772.474,1109.111
			c12.381,2.851,24.493,6.451,36.109,10.753c6.355-16.018,14.21-30.57,23.541-43.628
			C811.583,1078.963,790.921,1090.601,772.474,1109.111z M1258.869,1114.186c7.074,1.318,13.852,2.977,20.542,4.985
			c-3.738-14.269-9.218-27.367-16.312-38.873c-0.593,10.492-1.925,21.394-4.003,32.67
			C1259.021,1113.373,1258.946,1113.779,1258.869,1114.186z M1120.113,1085.717c-2.887,9.958-6.168,20.058-9.833,30.206
			c12.429-1.117,23.891-2.083,34.495-2.888C1138.142,1102.865,1129.83,1093.6,1120.113,1085.717z M1091.886,1068.633
			c2.166,5.583,4.033,11.057,5.642,16.336c2.886,9.476,5.167,18.991,6.921,28.404c3.855-10.702,7.279-21.337,10.256-31.794
			c-1.802-1.3-3.646-2.554-5.532-3.759C1103.644,1074.283,1097.874,1071.222,1091.886,1068.633z M1233.406,1110.977
			c4.222,0.309,8.281,0.701,12.231,1.182c2.363,0.287,4.685,0.607,6.97,0.961c0.082-0.435,0.163-0.868,0.243-1.303
			c2.289-12.42,3.956-26.171,4.189-40.447c-15.521-20.834-36.849-35.506-63.495-43.657c-7.407-2.266-15.491-4.609-24.128-6.932
			C1196.803,1048.254,1218.17,1078.389,1233.406,1110.977z M1121.98,1079.094c12.094,9.389,22.23,20.786,29.963,33.413
			c30.901-2.206,54.377-2.933,74.214-1.969c-16.295-33.784-39.394-64.862-69.15-92.976c-7.245-1.81-14.812-3.578-22.634-5.255
			C1132.675,1032.663,1128.476,1055.394,1121.98,1079.094z M845.363,1069.5c20.621,1.731,38.859,14.514,55.491,38.827
			c14.463-14.62,30.547-26.343,47.624-34.527c-6.648-22.115-14.295-41.694-23.008-58.883c-10.267,3.653-20.226,8.053-29.761,13.289
			C876.127,1038.959,859.322,1052.755,845.363,1069.5z M725.25,1102.036c12.582,0.892,25.182,2.58,37.567,5.015
			c-3.285-26.989,1.35-55.491,13.894-85.226c-17.364,14.475-33.991,31.001-49.587,49.299c-0.296,2.69-0.551,5.396-0.764,8.114
			C725.753,1086.994,725.384,1094.596,725.25,1102.036z M787.684,1013.026c-0.552,1.124-1.097,2.262-1.631,3.406
			c-14.269,30.595-20.003,59.824-17.188,87.368c20.76-20.506,44.264-32.824,67.515-34.367c0.295-0.02,0.592-0.037,0.886-0.053
			c15.061-19.132,33.553-34.752,55.387-46.741c9.582-5.262,19.567-9.697,29.855-13.399c-9.727-18.098-20.721-33.387-33.069-46.056
			c-0.35-0.359-0.701-0.714-1.055-1.066c-21.309,5.14-43.198,14.165-65.272,27.009
			C811.076,996.131,799.237,1004.125,787.684,1013.026z M704.476,1101.294c4.796,0,9.607,0.12,14.43,0.359
			c0.134-7.157,0.482-14.46,1.045-21.899c-5.633,6.951-11.119,14.138-16.44,21.541
			C703.832,1101.294,704.154,1101.294,704.476,1101.294z M1088.509,1060.417c8.42,3.162,16.463,7.179,24.085,12.053
			c1.323,0.847,2.626,1.715,3.911,2.605c6.134-22.813,10.081-44.606,11.645-64.07c-24.951-5.099-52.319-9.175-80.307-10.716
			C1066.756,1018.856,1079.679,1040.107,1088.509,1060.417z M931.539,1012.856c8.604,17.111,16.172,36.491,22.766,58.273
			c16.203-7.184,32.152-12.378,47.643-15.586c2.578-10.093,5.96-20.149,10.134-30.047c3.799-9.008,8.193-17.67,13.087-25.87
			c-0.319-0.001-0.641-0.001-0.96-0.001C992.654,999.625,960.94,1003.329,931.539,1012.856z M1160.16,1011.809
			c12.876,3.246,24.728,6.614,35.243,9.831c25.127,7.687,45.769,20.923,61.548,39.432c-1.181-34.297-11.497-70.455-41.753-97.745
			c-30.273-27.307-63.329-37.901-95.7-31.299c5.706,8.459,9.875,17.89,12.369,28.194c2.114,8.734,3.215,18.879,3.35,30.11
			c6.058,4.803,12.053,9.829,17.945,15.083C1155.533,1007.529,1157.865,1009.66,1160.16,1011.809z M782.136,943.813
			c-11.897,13.846-22.01,28.734-30.219,44.51c-11.495,22.092-19.292,46.033-23.271,71.388c16.988-19.084,35.11-36.137,54.003-50.815
			c10.66-21.222,28.85-47.362,59.578-70.953c-3.101-0.552-6.271-0.953-9.505-1.199C817.049,935.545,800.093,937.922,782.136,943.813
			z M1038.437,1051.661c14.634,0,28.646,1.991,41.842,5.973c-9.31-19.85-22.765-40.293-42.211-57.776
			c-1.843-0.061-3.674-0.11-5.52-0.147c-5.52,8.871-10.436,18.342-14.615,28.253c-3.654,8.665-6.684,17.456-9.077,26.275
			C1018.942,1052.521,1028.827,1051.661,1038.437,1051.661z M1134.83,1005.918c4.232,0.9,8.38,1.826,12.455,2.772
			c-4.002-3.528-8.049-6.948-12.131-10.267C1135.087,1000.878,1134.979,1003.378,1134.83,1005.918z M895.673,960.507
			c12.281,12.955,23.223,28.442,32.913,46.642c31.878-10.475,66.385-14.218,100.495-13.817c0.143-0.221,0.286-0.44,0.429-0.66
			c-14.929-11.696-32.967-21.672-54.762-28.682C950.062,956.051,923.405,954.94,895.673,960.507z M1040.655,993.623
			c30.649,1.174,60.7,5.477,87.928,10.997c0.209-3.83,0.32-7.552,0.331-11.168c-18.953-14.806-38.499-27.438-57.478-38.143
			c-12.272,9.723-23.612,21.996-33.402,36.066C1038.919,992.12,1039.792,992.867,1040.655,993.623z M850.406,939.795
			c-20.057,14.658-40.176,34.238-55.554,60.026c8.239-5.855,16.603-11.257,25.066-16.182c21.2-12.336,42.269-21.241,62.868-26.662
			C873.171,948.845,862.343,943.102,850.406,939.795z M929.559,950.681c16.271,0,32.042,2.411,47.133,7.265
			c22.422,7.212,40.999,17.44,56.397,29.43c9.541-13.64,20.502-25.648,32.36-35.391c-26.317-14.386-51.274-25.056-71.688-32.668
			c-22.714-8.469-42.717-14.827-60.532-19.516c-15.017,4.281-29.78,9.868-43.84,16.674c-10.041,4.861-21.134,11.013-32.413,18.686
			c12.31,4.148,23.454,10.83,33.321,19.99C903.632,952.175,916.748,950.681,929.559,950.681z M1076.964,951.146
			c17.117,9.778,34.66,21.111,51.796,34.168c-0.364-8.699-1.377-16.624-3.065-23.599c-2.501-10.335-6.843-19.735-12.859-28.083
			c-8.996,2.501-17.917,6.341-26.695,11.531C1083.039,946.998,1079.977,948.996,1076.964,951.146z M945.857,896.522
			c17.131,4.948,33.838,10.772,50.124,16.844c21.259,7.927,47.399,19.14,74.902,34.361c3.928-2.931,7.944-5.616,12.026-8.03
			c8.452-4.997,17.03-8.82,25.667-11.476c-17.697-20.636-46.642-33.864-83.84-37.577
			C999.685,888.144,972.569,890.259,945.857,896.522z M848.862,888.135c-15.601,9.416-30.043,19.983-42.996,31.541
			c-5.457,4.87-10.654,9.91-15.586,15.115c15.052-3.941,29.413-5.414,42.925-4.381c5.466,0.417,10.755,1.242,15.864,2.473
			c10.986-7.822,23.438-15.291,37.555-22.125c11.183-5.413,22.803-10.072,34.646-13.937
			C891.678,889.888,868.476,887.787,848.862,888.135z"/>
	</g>
	<g>
		<path style="fill:#AFCDFB;" d="M804.445,637.451c17.761-69.026,47.784-129.053,129.053-129.053
			c71.274,0,135.919,62.787,131.221,140.161c-4.319,71.143-66.099,131.404-141.726,122.934
			C852.162,763.56,784.109,716.486,804.445,637.451z"/>
		<g style="opacity:0.8;">
			<path style="fill:#FFFFFF;" d="M914.009,683.597c0-5.644,0.337-10.555,1.014-14.728c0.673-4.175,1.788-7.991,3.338-11.45
				c1.55-3.458,3.559-6.738,6.023-9.838c2.463-3.102,5.486-6.4,9.065-9.898c2.701-2.625,5.226-5.109,7.571-7.455
				c2.344-2.344,4.413-4.75,6.202-7.215c1.789-2.465,3.2-5.088,4.233-7.871c1.034-2.783,1.55-5.883,1.55-9.302
				c0-7.473-1.848-13.178-5.544-17.113c-3.698-3.937-9.125-5.904-16.28-5.904c-2.863,0-5.646,0.4-8.348,1.192
				c-2.704,0.796-5.129,2.069-7.275,3.817c-2.146,1.75-3.875,3.977-5.188,6.679c-1.313,2.704-1.967,5.963-1.967,9.779h-28.981
				c0.078-7.473,1.449-14.052,4.113-19.738c2.663-5.684,6.321-10.454,10.973-14.311c4.65-3.856,10.097-6.757,16.338-8.706
				c6.24-1.946,13.018-2.921,20.334-2.921c8.03,0,15.184,1.033,21.467,3.1c6.28,2.068,11.607,5.089,15.98,9.063
				c4.371,3.977,7.692,8.825,9.958,14.55c2.267,5.725,3.398,12.206,3.398,19.44c0,5.247-0.834,10.136-2.504,14.669
				c-1.669,4.531-3.896,8.786-6.678,12.759c-2.785,3.977-5.964,7.794-9.542,11.45c-3.578,3.659-7.275,7.275-11.09,10.852
				c-4.375,3.977-7.296,8.33-8.767,13.059c-1.471,4.731-2.248,10.077-2.325,16.04H914.009z M911.981,720.688
				c0-2.226,0.358-4.294,1.073-6.202c0.715-1.909,1.769-3.578,3.161-5.009c1.39-1.431,3.101-2.544,5.128-3.339
				c2.029-0.794,4.354-1.192,6.977-1.192c2.624,0,4.95,0.398,6.978,1.192c2.027,0.795,3.735,1.908,5.127,3.339
				c1.39,1.431,2.464,3.1,3.221,5.009c0.754,1.908,1.133,3.977,1.133,6.202c0,4.373-1.431,8.031-4.294,10.971
				c-2.862,2.942-6.917,4.413-12.165,4.413c-5.247,0-9.283-1.471-12.104-4.413C913.392,728.719,911.981,725.061,911.981,720.688z"/>
		</g>
	</g>
	<g>
		<polygon style="fill:#EABE96;" points="1287.177,476.195 1171.378,509.478 1242.347,445.137 1248.716,461.713 1278.171,462.921 		
			"/>
		<polygon style="fill:#F9DDBF;" points="1171.378,509.478 1262.643,445.117 1358.326,426.869 		"/>
		<polygon style="fill:#F9DDBF;" points="1242.347,445.137 1171.378,509.478 1220.456,417.522 		"/>
	</g>
	<g>
		<polygon style="fill:#EDCBAB;" points="2303.961,953.042 2424.652,970.229 2344.55,915.66 2340.481,933.161 2311.133,938.483 		
			"/>
		<polygon style="fill:#F9DDBF;" points="2424.652,970.229 2324.208,918.473 2225.773,913.545 		"/>
		<polygon style="fill:#F9DDBF;" points="2344.55,915.66 2424.652,970.229 2362.632,884.929 		"/>
	</g>
	<g>
		<g>
			<g>
				<path style="fill:#2B478B;" d="M2240.146,1553.187c-113.326,0-225.604-49.974-300.344-133.681
					c-64.002-71.68-93.639-160.57-83.452-250.297l1.52,0.173l-1.52-0.173c13.933-122.717,55.407-217.809,123.271-282.633
					c64.369-61.485,151.996-95.466,260.446-100.996c126.873-6.467,224.505,29.67,290.167,107.418
					c28.724,34.011,51.317,76.169,67.155,125.307c14.42,44.735,23.354,95.535,26.557,150.989
					c3.383,58.574-1.804,111.812-15.417,158.231c-13.898,47.393-36.718,88.133-67.824,121.087
					C2475.207,1518.003,2374.085,1553.187,2240.146,1553.187z M2268.466,787.901c-9.249,0-18.653,0.244-28.242,0.733
					c-107.697,5.492-194.665,39.189-258.489,100.153c-67.332,64.317-108.495,158.781-122.345,280.768
					c-10.088,88.849,19.279,176.894,82.694,247.914c74.169,83.066,185.594,132.66,298.063,132.66
					c133.063,0,233.438-34.861,298.335-103.615c30.772-32.601,53.353-72.924,67.114-119.849
					c13.515-46.083,18.662-98.972,15.299-157.195c-3.188-55.194-12.074-105.738-26.414-150.228
					c-15.715-48.755-38.116-90.566-66.582-124.271C2467.838,823.855,2380.645,787.901,2268.466,787.901z"/>
				<path style="fill:#2B478B;" d="M2240.146,1555.304c-113.919,0-226.788-50.239-301.923-134.388
					c-63.909-71.576-93.768-160.223-84.208-249.842l-0.007-0.001l0.478-4.207l0.003,0.001
					c14.224-122.211,55.825-217.016,123.671-281.822c64.747-61.846,152.829-96.022,261.801-101.58
					c127.578-6.504,225.784,29.89,291.892,108.167c28.902,34.222,51.63,76.623,67.553,126.024
					c14.474,44.9,23.441,95.877,26.655,151.516c3.396,58.819-1.817,112.297-15.499,158.949
					c-13.994,47.717-36.979,88.745-68.316,121.944C2476.332,1519.896,2374.691,1555.304,2240.146,1555.304z M2268.466,790.018
					c-9.163,0-18.629,0.246-28.135,0.73c-107.175,5.465-193.688,38.965-257.135,99.57
					c-66.964,63.966-107.911,157.996-121.703,279.476c-10.02,88.242,19.162,175.701,82.169,246.265
					c73.774,82.625,184.61,131.953,296.484,131.953c132.458,0,232.314-34.638,296.796-102.951
					c30.54-32.354,52.955-72.39,66.621-118.991c13.447-45.85,18.567-98.496,15.218-156.478
					c-3.177-55.017-12.031-105.383-26.315-149.7c-15.63-48.493-37.898-90.063-66.185-123.555
					C2466.7,825.789,2379.959,790.018,2268.466,790.018z"/>
			</g>
		</g>
		<g>
			<g>
				<path style="fill:#2B478B;" d="M2253.792,1570.215c-63.644,0-133.685-18.074-209.431-54.152
					c-102.313-48.733-182.188-142.133-213.669-249.846c-26.959-92.234-15.49-185.23,32.291-261.857
					c65.35-104.8,143.685-172.815,232.83-202.157c84.552-27.83,178.275-20.827,278.565,20.815
					c117.331,48.719,189.929,123.329,215.776,221.758c11.307,43.057,13.576,90.835,6.744,142.008
					c-6.219,46.588-19.997,96.294-40.952,147.735c-22.135,54.338-49.711,100.17-81.963,136.226
					c-32.926,36.81-71.047,63.776-113.302,80.153C2327.442,1563.779,2291.75,1570.215,2253.792,1570.215z M1864.28,1005.168
					l1.297,0.809c-47.313,75.876-58.66,167.994-31.949,259.382c31.239,106.889,110.511,199.578,212.049,247.941
					c120.133,57.22,225.744,68.91,313.901,34.744c41.8-16.199,79.525-42.894,112.128-79.341
					c32.019-35.793,59.408-81.327,81.409-135.339c20.856-51.202,34.568-100.655,40.753-146.987
					c6.779-50.774,4.534-98.156-6.671-140.825c-25.593-97.457-97.589-171.377-213.991-219.71
					c-99.594-41.355-192.601-48.331-276.437-20.735c-88.447,29.112-166.231,96.695-231.192,200.871L1864.28,1005.168z"/>
				<path style="fill:#2B478B;" d="M2253.792,1572.332c-63.845,0-134.613-18.289-210.341-54.358
					c-102.849-48.989-183.144-142.882-214.791-251.162c-27.13-92.821-15.578-186.427,32.527-263.572
					c65.619-105.232,144.336-173.547,233.964-203.048c85.05-27.994,179.269-20.971,280.039,20.871
					c117.975,48.986,190.987,124.073,217.013,223.176c11.377,43.325,13.663,91.379,6.794,142.825
					c-6.241,46.763-20.066,96.643-41.09,148.254c-22.226,54.561-49.93,100.6-82.344,136.838
					c-33.152,37.061-71.546,64.217-114.116,80.716C2328.127,1565.784,2291.906,1572.332,2253.792,1572.332z M1867.374,1007.098
					c-46.99,75.358-58.254,166.866-31.714,257.668c31.072,106.319,109.924,198.516,210.927,246.624
					c119.588,56.96,224.634,68.63,312.226,34.682c41.485-16.077,78.938-42.582,111.316-78.778
					c31.855-35.611,59.117-80.939,81.026-134.727c20.789-51.038,34.454-100.317,40.614-146.469
					c6.743-50.499,4.516-97.604-6.62-140.007c-25.415-96.784-96.997-170.228-212.755-218.293
					c-99.112-41.155-191.623-48.112-274.963-20.68C2009.468,836.07,1932.065,903.353,1867.374,1007.098z"/>
			</g>
		</g>
		<g>
			<g>
				<path style="fill:#2B478B;" d="M2275.321,1593.767c-92.351,0.003-187.214-44.38-282.317-132.152
					c-86.211-79.566-136.539-196.415-134.627-312.571c1.638-99.467,41.502-187.899,112.251-249.006l1.034,1.198l-1.034-1.198
					c96.76-83.575,195.077-126.796,292.22-128.463c92.101-1.585,182.656,34.091,269.044,106.029
					c101.065,84.161,149.96,180.2,145.324,285.45c-2.027,46.039-14.438,93.976-36.891,142.477
					c-20.439,44.157-49.31,89.076-85.809,133.512c-38.552,46.936-79.876,83.793-122.825,109.549
					c-43.849,26.296-89.812,41.268-136.613,44.497C2288.51,1593.539,2281.916,1593.767,2275.321,1593.767z M2268.709,774.69
					c-1.939,0-3.867,0.017-5.808,0.05c-96.381,1.654-194.021,44.617-290.204,127.693c-70.057,60.51-109.532,148.109-111.154,246.662
					c-1.898,115.27,48.049,231.229,133.608,310.193c101.228,93.425,202.055,137.384,299.708,130.64
					c46.3-3.195,91.789-18.017,135.204-44.053c42.637-25.568,83.686-62.188,122.007-108.844
					c36.328-44.228,65.056-88.919,85.382-132.831c22.278-48.126,34.592-95.661,36.602-141.287
					c4.59-104.209-43.923-199.383-144.188-282.877C2445.901,810.116,2358.061,774.69,2268.709,774.69z"/>
				<path style="fill:#2B478B;" d="M2275.321,1595.884L2275.321,1595.884c-92.863,0.004-188.331-44.647-283.753-132.714
					c-86.647-79.97-137.229-197.413-135.308-314.162c1.635-99.327,41.174-187.731,111.387-249.184l-0.005-0.005l3.204-2.768
					l0.002,0.002c96.629-83.004,194.847-125.929,291.963-127.596c92.631-1.606,183.643,34.244,270.435,106.519
					c101.601,84.607,150.751,181.225,146.084,287.169c-2.039,46.318-14.517,94.522-37.084,143.273
					c-20.514,44.317-49.48,89.391-86.094,133.966c-38.706,47.123-80.215,84.14-123.372,110.021
					c-44.138,26.469-90.418,41.54-137.557,44.793C2288.638,1595.653,2281.941,1595.884,2275.321,1595.884L2275.321,1595.884z
					 M2268.709,776.807c-1.927,0-3.843,0.016-5.771,0.049c-95.871,1.646-193.057,44.435-288.856,127.179
					c-69.595,60.11-108.81,147.154-110.422,245.095c-1.889,114.676,47.804,230.041,132.928,308.603
					c94.088,86.836,187.762,130.749,278.741,130.751c6.478,0,12.936-0.222,19.386-0.667c45.964-3.173,91.136-17.895,134.261-43.757
					c42.43-25.445,83.295-61.906,121.46-108.372c36.216-44.091,64.847-88.629,85.097-132.377
					c22.161-47.87,34.41-95.139,36.408-140.49c4.559-103.515-43.697-198.109-143.429-281.158
					C2444.959,812.085,2357.549,776.807,2268.709,776.807z"/>
			</g>
		</g>
		<g>
			<g>
				<path style="fill:#2B478B;" d="M2161.34,1586.98c-36.231,0-70.785-6.035-103.142-18.049
					c-92.604-34.384-167.004-116.544-221.133-244.201c-45.797-108.01-43.541-235.216,6.035-340.278
					c42.452-89.967,115.196-154.137,204.831-180.688c122.595-36.313,229.983-35.213,319.193,3.271
					c84.614,36.501,152.412,106.286,201.512,207.414c57.441,118.312,62.447,225.965,14.882,319.967
					c-20.807,41.12-51.858,79.692-92.289,114.645c-36.811,31.82-81.617,60.866-133.176,86.328
					c-54.459,26.896-107.295,43.467-157.039,49.252C2187.592,1586.201,2174.355,1586.98,2161.34,1586.98z M2048.381,805.282
					l0.45,1.518c-88.758,26.292-160.805,89.863-202.868,179.004c-49.196,104.259-51.434,230.5-5.982,337.691
					c53.773,126.823,127.564,208.401,219.319,242.47c43.508,16.154,91.06,21.379,141.349,15.531
					c49.383-5.742,101.87-22.21,156.004-48.944c51.317-25.344,95.899-54.24,132.506-85.886
					c40.118-34.681,70.916-72.927,91.535-113.679c47.097-93.072,42.081-199.778-14.906-317.154
					c-48.757-100.427-116.02-169.698-199.916-205.891c-88.512-38.182-195.178-39.241-317.04-3.142L2048.381,805.282z"/>
				<path style="fill:#2B478B;" d="M2161.341,1589.098c-36.437,0-71.387-6.117-103.879-18.182
					c-93.173-34.595-167.98-117.146-222.346-245.359c-46.028-108.556-43.759-236.409,6.07-342.008
					c42.713-90.52,115.923-155.09,206.144-181.815c123.085-36.456,230.96-35.326,320.634,3.357
					c85.092,36.708,153.249,106.835,202.577,208.434c57.745,118.938,62.747,227.223,14.866,321.848
					c-20.932,41.367-52.152,80.156-92.793,115.29c-36.949,31.939-81.906,61.085-133.623,86.624
					c-54.676,27.004-107.745,43.644-157.732,49.457C2187.824,1588.306,2174.395,1589.098,2161.341,1589.098z M2049.433,808.829
					c-88.173,26.119-159.753,89.29-201.555,177.877c-48.944,103.723-51.168,229.316-5.949,335.961
					c53.537,126.265,126.919,207.453,218.107,241.312c43.189,16.036,90.416,21.222,140.368,15.413
					c49.14-5.714,101.394-22.112,155.311-48.74c51.157-25.264,95.588-54.061,132.059-85.589
					c39.911-34.501,70.538-72.531,91.032-113.033c46.781-92.45,41.761-198.523-14.922-315.273
					c-48.529-99.956-115.433-168.885-198.852-204.871C2276.985,773.903,2170.801,772.875,2049.433,808.829z"/>
			</g>
		</g>
		<g>
			<g>
				<path style="fill:#2B478B;" d="M2262.305,1553.187c-113.324,0-209.241-59.494-283.981-143.201
					c-64.003-71.679-110.001-151.05-99.814-240.776c13.933-122.717,55.407-217.809,123.271-282.633
					c64.369-61.485,151.995-95.466,260.446-100.996c126.88-6.467,224.505,29.67,290.167,107.418
					c28.724,34.011,51.317,76.169,67.156,125.307c14.418,44.735,23.354,95.535,26.557,150.989
					c3.383,58.574-1.805,111.812-15.418,158.232c-13.898,47.392-36.718,88.132-67.825,121.086
					C2497.365,1518.003,2396.242,1553.187,2262.305,1553.187z M1880.028,1169.382l1.52,0.173
					c-10.088,88.849,38.457,168.151,101.871,239.173c74.17,83.067,166.418,141.401,278.886,141.401
					c133.063,0,233.438-34.861,298.335-103.615c30.772-32.601,53.353-72.924,67.114-119.849
					c13.514-46.083,18.662-98.972,15.299-157.195c-3.188-55.194-12.074-105.738-26.414-150.228
					c-15.716-48.755-38.116-90.566-66.582-124.271c-65.013-76.98-161.799-112.756-287.675-106.337
					c-107.697,5.492-194.665,39.189-258.489,100.153c-67.333,64.317-108.495,158.781-122.345,280.768L1880.028,1169.382z"/>
				<path style="fill:#2B478B;" d="M2262.304,1555.304c-54.162,0-107.139-13.613-157.456-40.46
					c-45.288-24.164-88.389-58.969-128.104-103.448c-35.826-40.123-61.365-77.463-78.075-114.153
					c-19.836-43.551-27.118-85.509-22.264-128.272c13.99-123.223,55.681-218.749,123.913-283.925
					c64.747-61.846,152.829-96.022,261.801-101.58c127.584-6.495,225.784,29.89,291.892,108.167
					c28.901,34.221,51.63,76.622,67.554,126.024c14.474,44.907,23.442,95.885,26.655,151.516
					c3.396,58.816-1.818,112.296-15.5,158.95c-13.994,47.717-36.979,88.745-68.317,121.943
					C2498.489,1519.896,2396.849,1555.304,2262.304,1555.304z M1883.651,1169.794c-8.523,75.065,23.681,150.54,101.347,237.523
					c83.358,93.358,176.657,140.694,277.306,140.694c132.458,0,232.314-34.638,296.797-102.951
					c30.54-32.354,52.955-72.389,66.622-118.991c13.446-45.851,18.566-98.497,15.217-156.478
					c-3.178-55.017-12.032-105.383-26.315-149.7c-15.632-48.494-37.899-90.064-66.185-123.555
					c-64.563-76.446-160.759-111.978-285.95-105.589c-107.175,5.465-193.688,38.965-257.135,99.57
					C1938.391,954.283,1897.443,1048.313,1883.651,1169.794z M1904.537,1299.825c16.547,34.908,41.241,70.534,75.365,108.75
					c14.547,16.293,29.547,31.273,44.942,44.896c-14.609-13.145-28.95-27.593-43.005-43.333
					C1947.321,1371.478,1921.688,1335.025,1904.537,1299.825z"/>
			</g>
		</g>
	</g>
	<g>
		<path style="fill:#F99746;" d="M2187.229,1340.355c-0.186,0.332-0.382,0.677-0.578,1.021
			c-4.599,7.991-15.147,27.577-26.766,49.007c-5.496,10.168-11.25,20.754-16.709,30.713c-9.405,17.188-17.963,32.495-22.954,40.585
			c-5.078,8.225-8.815,14.004-10.328,16.315c-0.013,0.012-0.013,0.012-0.013,0.012c-0.454,0.713-0.553,1.55-0.491,2.386
			c0.528,7.254,0.381,14.458-0.332,21.553c-7.008,69.724-54.023,107.087-54.023,107.087l-13.979,2.066
			c0,0,19.783-73.29,25.61-114.724c0.983-7.02,1.414-12.713,1.07-16.426c-1.033-10.794,0.885-26.643,4.512-44.839
			c6.455-32.335,18.295-72.022,28.585-103.792c0.652-2.029,20.312-73.142,20.312-73.142c16.499,14.422,76.683,20.372,76.683,20.372
			S2208.03,1303.36,2187.229,1340.355z"/>
		<path style="fill:#2358A5;" d="M2011.716,1628.787h58.344c0,0,1.398-8.893-1.649-15.638c-2.92-6.474-7.082-6.68-0.531-16.826
			c-3.707,3.817-15.625,5.396-24.06,4.261c-1.034,1.676-6.663,12.917-10.115,15.397
			C2029.892,1618.721,2012.89,1617.744,2011.716,1628.787z"/>
		<path style="fill:#ED7D2B;" d="M2187.229,1340.355c-0.186,0.332-0.382,0.677-0.578,1.021
			c-4.599,7.991-29.467,53.925-41.085,75.354c13.462-55.389,4.099-110.777,4.099-110.777L2187.229,1340.355z"/>
		<path style="fill:#202D4F;" d="M1962.043,1066.758c0,0-2.31-25.174,25.818-25.174c0,0-8.523,2.312-12.933,6.936
			c0,0,17.94-10.532,37.464,5.651c19.522,16.184,7.392,56.771,13.329,64.478c5.937,7.707,29.056,9.248,26.23,34.166
			c-2.826,24.917-73.375,56.126-68.845,76.742c0,0-27.647-40.642-7.878-59.189c0,0-9.637,9.077-10.618,19.866
			c0,0-2.614-21.064,10.789-27.802c11.862-5.963,21.579-27.768,20.551-31.665
			C1994.924,1126.869,1962.043,1066.758,1962.043,1066.758z"/>
		<path style="fill:#FFB27D;" d="M2001.744,1172.469c0,0-40.018,100.984-48.643,97.242c-8.625-3.74-59.447-19.882-59.447-19.882
			s1.814,14.396,2.635,15.046c7.44,5.897,44.855,34.755,67.271,36.224c24.886,1.631,58.595-71.692,58.595-71.692L2001.744,1172.469z
			"/>
		<path style="fill:#202D4F;" d="M1970,1063.219c-0.382-1.533,33.322,15.232,35.031,17.128
			c15.808,17.534,11.301,40.415,2.256,40.635c-5.801,0.141-4.677,9.785-4.677,9.785l-64.623-27.338
			C1937.987,1103.429,1945.769,1058.057,1970,1063.219z"/>
		<path style="fill:#1C468A;" d="M1991.717,1174.572c0,0-8.606,8.914-8.606,35.588c0,0,11.857,18.719,42.611,23.457
			C2025.722,1233.617,1999.28,1174.558,1991.717,1174.572z"/>
		<path style="fill:#F99746;" d="M2141.745,1282.894l-0.197-10.912c21.74,2.742,74.963-25.979,74.963-25.979
			s22.745,15.128,25.858,58.33c1.52,21.087,11.134,110.266,12.197,136.895c0.388,9.651,0.517,16.539,0.561,19.291
			c-0.005,0.015-0.004,0.021-0.003,0.027c0.013,0.84,0.407,1.581,0.925,2.246c4.498,5.717,8.4,11.775,11.78,18.058
			c33.175,61.724,15.826,145.594,15.826,145.594l-7.704-1.959c0,0-28.051-86.944-46.384-124.553
			c-3.112-6.378-5.938-11.34-8.304-14.213c-6.894-8.372-14.162-22.591-21.326-39.701
			C2186.395,1413.665,2141.745,1282.894,2141.745,1282.894z"/>
		<path style="fill:#2358A5;" d="M2237.26,1628.787h58.343c0,0,1.398-8.893-1.648-15.638c-2.921-6.474-7.494-9.416-6.399-17.248
			c-3.707,3.817-9.749,8.092-18.184,6.957c-1.033,1.676-6.672,10.643-10.123,13.123
			C2255.435,1618.721,2238.434,1617.744,2237.26,1628.787z"/>
		<path style="fill:#1C468A;" d="M2029.66,1246.146c7.837,1.337-1.279,7.566,9.499,8.737c15.341,1.675,31.181,2.82,39.478,6.13
			c3.026,1.207,5.051,2.697,5.683,4.603c3.597,10.815,19.446,27.502,19.446,27.502c101.592-4.624,112.746-47.117,112.746-47.117
			c-65.936-64.036-126.559-101.8-172.851-106.798c-7.922-0.856-17.939,4.172-25.075,7.348
			c-16.214,7.219-26.869,28.021-26.869,28.021S1999.883,1241.067,2029.66,1246.146z"/>
		<path style="fill:#163560;" d="M2039.159,1254.884c15.341,1.675,31.181,2.82,39.478,6.13c3.392-50.668-20.52-88.779-20.52-88.779
			S2042.52,1235.71,2039.159,1254.884z"/>
		<path style="fill:#FFB27D;" d="M2025.924,1163.657c0,0,38.579-2.107,45.435,22.114c6.854,24.221-12.861,120.902-17.11,130.881
			c-7.735,18.166-45.395,70.016-45.395,70.016l-10.385-5.335c0,0,21.646-78.092,27.253-85.93
			C2034.521,1283.099,2014.376,1174.195,2025.924,1163.657z"/>
		<path style="fill:#FFB27D;" d="M2001.211,1374.088c0,0-3.221,11.378-9.514,17.675c-2.896,2.898-5.48,11.614-5.613,16.105
			c0,0-0.472,3.716,1.147,3.352c1.618-0.364,3.43-8.424,6.315-8.024c0,0-1.539,9.002-3.066,11.536
			c-1.526,2.534-2.433,10.375-0.262,11.331c5.259,2.315,13.038-7.603,17.665-13.825c4.628-6.223,0.074-31.474,0.074-31.474
			L2001.211,1374.088z"/>
		<path style="fill:#1C468A;" d="M2078.967,1218.161c-0.102,0.568-36.509,6.698-59.28-4.859c0,0-19.023-59.597,8.162-56.746
			c27.187,2.852,43.284,11.414,43.969,24.43C2072.503,1194.001,2078.967,1218.161,2078.967,1218.161z"/>
		<path style="fill:#FFB27D;" d="M2018.586,1146.551c0,0-10.727,40.021-26.869,28.021c0.454-1.93-2.361-7.549-5.681-13.253
			c-4.242-7.291-9.295-14.742-9.295-14.742l21.836-19.13l1.303-1.144C2006.568,1137.983,2013.127,1142.567,2018.586,1146.551z"/>
		<path style="fill:#ED985F;" d="M1976.743,1146.585c0,0,5.048,7.435,9.291,14.734c13.571-8.366,13.587-25.169,12.541-33.873
			L1976.743,1146.585z"/>
		<path style="fill:#FFB27D;" d="M1976.139,1156.171c0,0,32.953-18.337,21.218-38.683c-11.735-20.347-15.385-36.416-36.921-25.568
			s-21.11,20.948-18.846,28.691C1943.855,1128.355,1967.264,1160.416,1976.139,1156.171z"/>
		<path style="fill:#202D4F;" d="M1936.023,1108.745c1.51-9.034,6.099-9.896,9.298-9.293c12.17-20.126,32.053-12.271,32.053-12.271
			c10.619,13.327,25.974,15.601,25.974,15.601s-3.825,7.115-19.58,11.52c-4.813,1.346-10.275,0.531-15.543-1.242
			c10.931,6.095,22.361,8.43,22.361,8.43c-20.763,1.9-40.518-17.082-42.566-19.113c-0.958,2.942-2.638,9.101-1.633,13.604
			c1.367,6.118,6.799,17.2,3.482,18.635C1949.869,1134.613,1933.761,1122.293,1936.023,1108.745z"/>
	</g>
	<path style="fill:#FFB27D;" d="M1900.76,1254.422c0,0-5.889,2.612-11.878-3.493c-3.061-3.119-8.542-4.81-5.708-6.481
		c2.835-1.672,10.385,1.764,12.158,2.367S1900.76,1254.422,1900.76,1254.422z"/>
	<g>
		<path style="fill:#AFCDFB;" d="M2121.416,585.209c17.7-68.792,47.622-128.617,128.617-128.617
			c71.032,0,135.459,62.574,130.777,139.686c-4.306,70.902-65.876,130.959-141.247,122.518
			C2168.972,710.892,2101.149,663.977,2121.416,585.209z"/>
		<g style="opacity:0.8;">
			<path style="fill:#FFFFFF;" d="M2230.928,672.732c0-2.499,0.422-4.823,1.273-6.966c0.847-2.142,2.052-4.018,3.615-5.626
				c1.561-1.607,3.482-2.857,5.762-3.751c2.276-0.89,4.888-1.339,7.834-1.339c2.949,0,5.561,0.449,7.838,1.339
				c2.276,0.894,4.195,2.144,5.759,3.751c1.562,1.608,2.769,3.484,3.618,5.626c0.847,2.144,1.272,4.467,1.272,6.966
				c0,4.912-1.608,9.021-4.823,12.323c-3.215,3.304-7.77,4.957-13.664,4.957c-5.893,0-10.448-1.652-13.663-4.957
				C2232.535,681.753,2230.928,677.644,2230.928,672.732z M2262.942,630.67h-27.997l-3.081-137.571h34.294L2262.942,630.67z"/>
		</g>
	</g>
	<g>
		<path style="fill:#AFCDFB;" d="M1278.515,727.229c39.744-154.464,106.929-288.792,288.792-288.792
			c159.495,0,304.157,140.502,293.644,313.647c-9.666,159.202-147.915,294.052-317.151,275.098
			C1385.294,1009.433,1233.008,904.092,1278.515,727.229z"/>
		<g>
			<path style="fill:#F9DDBF;" d="M1689.896,709.461c0.177,29.684-10.245,56.929-27.694,78.181
				c-15.027,18.299-23.495,41.11-23.495,64.794v34.136c0,9.655-3.525,18.536-9.354,25.403c-7.239,8.544-18.033,13.989-30.044,13.989
				h-63.041c-21.665,0-39.392-17.727-39.392-39.392v-34.077c0-23.637-8.344-46.46-23.377-64.706
				c-17.372-21.092-27.812-48.125-27.812-77.59c0-58.293,40.85-107.05,95.494-119.19c1.553-0.348,3.118-0.661,4.694-0.945
				c0.839-0.153,1.677-0.295,2.521-0.431c6.318-1.016,12.796-1.541,19.397-1.541C1635.14,588.092,1689.5,642.116,1689.896,709.461z"
				/>
			<path style="fill:#ED7D2B;" d="M1599.087,925.965l-0.136,1.049l-1.731,13.278l-0.456,3.497v0.029l-0.462,3.521l-1.725,13.272
				l-0.457,3.497l-0.006,0.03l-0.456,3.527l-0.255,1.944c-0.877,6.734-8.578,11.879-17.783,11.879h-20.746
				c-2.193,0-4.292-0.291-6.242-0.824h-0.006c-1.754-0.48-3.378-1.162-4.831-2.009l-0.112-0.066
				c-1.18-0.693-2.235-1.499-3.142-2.394c-1.861-1.831-3.088-4.037-3.438-6.461l-0.735-5.146l-0.469-3.242v-0.006l-0.006-0.071
				v-0.006l-0.456-3.171l-1.761-12.306l-0.462-3.231l-0.012-0.071l-0.457-3.189l-1.909-13.331H1599.087z"/>
			<g>
				<path style="fill:#F99746;" d="M1590.854,925.965h-0.142h-11.583c-18.921,5.471-37.688,10.878-46.383,13.331l0.457,3.189
					l0.012,0.071l0.462,3.231c7.042-1.95,23.947-6.793,65.274-18.773l0.136-1.049H1590.854z"/>
				<path style="fill:#F99746;" d="M1535.894,961.264v0.006l0.006,0.071v0.006l0.469,3.242c8.144-2.288,24.943-7.107,59.934-17.249
					l0.462-3.521v-0.029l0.456-3.497c-22.11,6.402-48.873,14.131-61.783,17.8L1535.894,961.264z"/>
				<path style="fill:#F99746;" d="M1543.683,978.59l0.112,0.066c1.453,0.848,3.077,1.529,4.831,2.009h0.006
					c9.597-2.75,23.841-6.864,45.026-12.999l0.456-3.527l0.006-0.03l0.457-3.497c-18.921,5.477-40.627,11.748-54.036,15.583
					C1541.448,977.091,1542.503,977.897,1543.683,978.59z"/>
			</g>
			<g>
				<g>
					
						<rect x="1529.906" y="768.635" transform="matrix(0.986 -0.167 0.167 0.986 -120.0826 267.9017)" style="fill:#ED7D2B;" width="5.523" height="158.443"/>
				</g>
				<g>
					
						<rect x="1523.144" y="846.328" transform="matrix(0.1799 -0.9837 0.9837 0.1799 477.9258 2271.4607)" style="fill:#ED7D2B;" width="156.308" height="5.522"/>
				</g>
				<g>
					<path style="fill:#ED7D2B;" d="M1582.365,798.085c-0.707,0-1.499-0.09-2.385-0.292c-1.479-0.337-2.414-1.359-2.707-2.961
						c-0.63-3.451,2.078-9.782,5.88-15.147c-1.987-3.469-4.634-6.331-7.409-7.171c-4.1-1.244-10.391,2.542-14.772,7.378
						c0.8,1.136,1.523,2.318,2.155,3.511c2.244,4.238,3.857,9.659,1.65,12.164c-0.818,0.929-2.488,1.772-5.802,0.522
						c-4.138-1.561-5.625-5.066-4.08-9.617c0.757-2.232,2.151-4.549,3.922-6.702c-3.394-4.426-7.928-7.789-12.396-7.226
						c-2.388,0.302-4.435,1.138-6.137,2.315c2.858,5.318,3.516,12.066,1.532,15.688c-1.35,2.467-3.71,3.247-6.645,2.205
						c-2.107-0.75-3.209-3.65-2.803-7.39c0.415-3.828,2.326-8.021,5.73-10.93c-0.889-1.384-1.952-2.612-3.176-3.562
						c-7.698-5.977-14.065,0.436-14.331,0.714l-1.202-1.164c0.077-0.079,7.695-7.753,16.558-0.871
						c1.343,1.044,2.509,2.373,3.48,3.866c1.889-1.285,4.149-2.196,6.784-2.529c5.009-0.629,10.007,2.904,13.717,7.607
						c4.77-5.18,11.558-9.007,16.297-7.578c2.993,0.906,5.817,3.794,7.975,7.353c2.011-2.607,4.249-4.879,6.426-6.32
						c3.488-2.31,5.762-1.78,7.05-0.93c1.325,0.871,2.455,2.043,3.389,3.388c1.051-0.833,2.151-1.545,3.243-2.089
						c4.041-2.013,7.752-1.865,10.449,0.416l-1.08,1.276c-2.908-2.461-6.653-1.178-8.625-0.196
						c-1.084,0.541-2.133,1.228-3.107,2.011c2.689,4.852,3.212,11.175,1.671,14.236c-0.971,1.925-2.703,2.597-4.729,1.855
						c-3.651-1.337-4.542-3.853-4.647-5.728c-0.199-3.584,2.285-7.666,5.532-10.672c-0.837-1.252-1.845-2.331-3.013-3.1
						c-1.579-1.038-3.705-0.069-5.21,0.928c-2.172,1.438-4.448,3.806-6.462,6.494c2.507,4.77,3.807,10.328,2.856,13.914
						C1587.485,795.488,1586.161,798.084,1582.365,798.085z M1584.021,781.324c-3.309,4.825-5.638,10.282-5.104,13.208
						c0.17,0.93,0.625,1.448,1.432,1.631c3.274,0.743,5.287-0.212,5.98-2.842C1587.134,790.285,1586.081,785.541,1584.021,781.324z
						 M1559.853,781.203c-1.531,1.907-2.732,3.916-3.374,5.806c-1.269,3.736-0.229,6.265,3.088,7.516
						c1.335,0.503,3.106,0.902,3.957-0.062c1.313-1.49,0.542-5.716-1.874-10.277
						C1561.114,783.176,1560.512,782.173,1559.853,781.203z M1538.955,775.907c-2.917,2.603-4.559,6.275-4.923,9.635
						c-0.31,2.852,0.39,5.168,1.702,5.634c2.124,0.755,3.683,0.275,4.618-1.432C1542.051,786.64,1541.433,780.674,1538.955,775.907z
						 M1600.636,776.974c-2.904,2.79-4.877,6.365-4.724,9.119c0.111,1.998,1.306,3.428,3.552,4.251
						c1.234,0.455,2.078,0.122,2.661-1.037C1603.416,786.741,1602.866,781.248,1600.636,776.974z"/>
				</g>
			</g>
			<path style="fill:#FFF0E3;" d="M1630.823,635.048c10.038,9.456,8.778,26.858-4.134,30.73
				c-9.734,2.919-24.252-0.979-31.425-13.404c-7.174-12.425-3.866-22.638,4.936-27.719
				C1609.001,619.573,1620.38,625.21,1630.823,635.048z"/>
		</g>
		<g>
			<path style="fill:#FFF0E3;" d="M1565.111,565.128h-1.169c-2.137,0-3.885-1.748-3.885-3.885v-48.114
				c0-2.137,1.748-3.885,3.885-3.885h1.169c2.137,0,3.885,1.748,3.885,3.885v48.114
				C1568.996,563.38,1567.248,565.128,1565.111,565.128z"/>
			<g>
				<path style="fill:#FFF0E3;" d="M1710.655,621.075l-0.643-1.113c-1.053-1.823-0.422-4.175,1.4-5.227l23.592-13.621
					c1.823-1.053,4.176-0.422,5.228,1.4l0.643,1.113c1.053,1.823,0.423,4.175-1.4,5.228l-23.592,13.621
					C1714.061,623.528,1711.707,622.898,1710.655,621.075z"/>
				<path style="fill:#FFF0E3;" d="M1726.773,688.364L1726.773,688.364c0-2.458,2.011-4.47,4.469-4.47h59.66
					c2.458,0,4.47,2.011,4.47,4.47l0,0c0,2.458-2.012,4.469-4.47,4.469h-59.66C1728.784,692.833,1726.773,690.822,1726.773,688.364z
					"/>
				<path style="fill:#FFF0E3;" d="M1643.393,585.296L1643.393,585.296c-2.261-0.965-3.322-3.604-2.357-5.865l31.668-74.243
					c0.965-2.261,3.604-3.322,5.865-2.357l0,0c2.261,0.964,3.321,3.604,2.357,5.865l-31.669,74.243
					C1648.293,585.199,1645.653,586.26,1643.393,585.296z"/>
			</g>
			<g>
				<path style="fill:#FFF0E3;" d="M1424.378,621.075l0.643-1.113c1.052-1.823,0.422-4.175-1.401-5.227l-23.592-13.621
					c-1.823-1.053-4.175-0.422-5.228,1.4l-0.643,1.113c-1.052,1.823-0.422,4.175,1.4,5.228l23.592,13.621
					C1420.973,623.528,1423.325,622.898,1424.378,621.075z"/>
				<path style="fill:#FFF0E3;" d="M1408.26,688.364L1408.26,688.364c0-2.458-2.011-4.47-4.469-4.47h-59.66
					c-2.458,0-4.47,2.011-4.47,4.47l0,0c0,2.458,2.011,4.469,4.47,4.469h59.66C1406.249,692.833,1408.26,690.822,1408.26,688.364z"
					/>
				<path style="fill:#FFF0E3;" d="M1491.641,585.296L1491.641,585.296c2.261-0.965,3.322-3.604,2.357-5.865l-31.668-74.243
					c-0.964-2.261-3.604-3.322-5.865-2.357l0,0c-2.261,0.964-3.322,3.604-2.357,5.865l31.668,74.243
					C1486.74,585.199,1489.379,586.26,1491.641,585.296z"/>
			</g>
		</g>
	</g>
	<g>
		<path style="fill:#2C3A64;" d="M1449.748,938.896c0.062-1.69,1.369-19.893,29.096-20.843c0,0-13.634,1.625-15.99,7.619
			c0,0,9.284-7.406,16.844-5.024c7.561,2.382,12.001,15.628,12.045,19.984c0.044,4.357-4.156,18.401-8.954,19.596
			c-1.818,0.452-3.911,0.331-5.812,0.007c1.276,1.993,2.528,4.193,3.724,6.648c11.064,22.711-0.346,44.907-9.712,42.455
			c-6.007-1.572-7.707,8.678-7.707,8.678l-58.361-47.247C1404.921,970.769,1426.357,926.414,1449.748,938.896z"/>
		<path style="fill:#1C468A;" d="M1429.428,1607.976l12.396,4.615c0,0,53.843-74.677,60.472-140.38
			c1.184-11.73,0.79-23.096-1.771-33.591c0,0,0.526-3.006,1.447-8.319c0.425-2.479,0.951-5.465,1.548-8.886
			c1.751-10.03,4.16-23.753,6.913-39.38c6.335-35.959,14.543-81.927,20.919-115.719l-3.34-1.073l-36.141-11.659l-7.469-23.723
			l-26.911-7.084c0,0-6.011,11.76-11.386,67.313c-0.992,7.286-1.892,15.322-2.571,24.036c-2.095,26.597-2.247,59.591,2.561,97.31
			c1.234,9.655,2.793,19.624,4.726,29.866c1.417,7.51,1.629,17.741,1.032,29.492
			C1449.144,1524.504,1429.428,1607.976,1429.428,1607.976z"/>
		<path style="fill:#163560;" d="M1443.536,1314.126l58.437,116.175c0.425-2.479,0.951-5.465,1.548-8.886
			c1.751-10.03,4.16-23.753,6.913-39.38c6.335-35.959,14.543-81.927,20.919-115.719l-3.34-1.073l-36.141-11.659l-7.469-23.723
			l-34.947-19.378c0,0-0.007,5.411-3.043,64.513C1445.422,1282.283,1444.215,1305.412,1443.536,1314.126z"/>
		<path style="fill:#1C468A;" d="M1469.244,1237.686l1.353-11.601c22.664,6.02,85.846-22.133,85.846-22.133
			s19.329,24.611,16.446,70.874c-1.407,22.58-3.977,118.532-6.661,146.926c-0.97,10.291-1.82,17.614-2.167,20.539
			c-0.007,0.014-0.007,0.021-0.007,0.028c-0.106,0.893,0.206,1.735,0.659,2.515c3.952,6.707,7.224,13.689,9.908,20.836
			c26.347,70.209-4.058,156.672-4.058,156.672l-7.89-3.181c0,0-17.302-96.222-31.361-138.731c-2.387-7.21-4.674-12.875-6.771-16.261
			c-6.112-9.866-11.785-25.985-16.934-45.158c-9.731-36.247-17.564-83.401-22.777-119.798
			C1480.391,1268.382,1469.244,1237.686,1469.244,1237.686z"/>
		<path style="fill:#F2A16B;" d="M1308.427,1195.838l-1.761,13.336c0,0,8.033-1.07,9.346-1.164
			c4.128-0.282,16.344-1.073,27.694-2.294c17.074-1.688,29.447-2.082,37.515-7.053c12.29-7.505,32.459-30.489,45.592-53.474
			c0.376-0.563,0.657-1.125,0.938-1.688c6.848-12.196,11.633-24.298,12.008-33.96c0.282-5.91-0.375-10.977-1.595-15.385
			c-1.595-5.816-4.222-10.413-6.942-13.885c-0.375-0.563-0.75-1.125-1.313-1.595c-4.503-5.347-8.913-7.599-8.913-7.599
			c-2.251-0.938-9.731,8.133-12.264,10.854l-2.117,6.287c-2.064,2.158-24.726,75.013-34.951,86.363
			c-4.409,4.878-24.95,12.542-43.659,17.728C1315.862,1195.676,1308.427,1195.838,1308.427,1195.838z"/>
		<path style="fill:#FFB27D;" d="M1425.947,1096.978c7.115,3.299,15.708,5.546,26.101,6.112
			c38.965,2.136,47.81-32.021,49.419-54.691c-5.617-2.034-10.535-1.842-13.369-1.69c-2.261,0.124-4.603,0.337-6.683,0.57
			c-0.985,0.111-1.969-0.158-2.748-0.771c-4.905-3.853-12.379-15.514-16.874-33.887l-1.68,0.78l-28.115,13.218
			c0,0,2.985,9.148,5.192,17.903c0.953,3.795,1.757,7.519,2.109,10.4c0.332,2.716-1.212,5.314-3.728,6.39c0,0-0.001,0-0.001,0
			s0,0.01-0.01,0.03C1435.278,1062.062,1429.165,1077.637,1425.947,1096.978z"/>
		<path style="fill:#F99746;" d="M1564.578,1216.632c-0.318,14.415-101.807,27.189-119.27,17.517c0,0-4.53-21.846-10.298-46.4
			c-1.735-7.388-3.588-15.008-5.451-22.363c-4.392-17.283-8.912-33.043-12.383-40.526c-0.359-0.783-0.677-1.534-0.973-2.317
			c-7.779-20.617,6.784-42.664-3.271-49.184c0,0,5.958-5.493,22.639-12.044c0,0,0,0.011-0.01,0.031
			c-0.265,0.974-1.747,14.659,1.111,20.015c5.642,10.583,27.688,5.048,37.743-8.013c5.895-7.642,10.457-15.367,12.531-22.597
			c0.465-1.63,1.153-4.043,1.153-4.043s18.596-2.519,29.042,1.715c0,0-4.127,8.965-5.641,18.85c-0.148,0.942-0.264,1.885-0.36,2.826
			c-0.201,1.99-0.265,3.99-0.148,5.927c0.148,2.572,1.482,4.848,3.588,7.081c1.926,2.043,4.541,4.054,7.494,6.213
			c1.937,1.396,4.011,2.857,6.149,4.455c0.19,11.643-0.635,30.789,1.524,51.216c0.54,5.187,2.265,10.14,4.975,14.532
			c1.08,1.757,2.308,3.407,3.684,4.963C1549.39,1176.794,1564.948,1214.949,1564.578,1216.632z"/>
		<path style="fill:#ED985F;" d="M1431.998,1026.624c0,0,2.989,9.141,5.192,17.903c16.434-4.585,21.424-21.859,22.926-31.12
			L1431.998,1026.624z"/>
		<path style="fill:#FFB27D;" d="M1428.538,1036.303c0,0,39.317-9.1,33.274-33.497c-6.043-24.398-5.039-42.004-30.397-37.226
			c-25.359,4.778-27.912,15.292-27.875,23.925C1403.575,998.14,1418.154,1038.041,1428.538,1036.303z"/>
		<path style="fill:#2C3A64;" d="M1401.328,975.654c4.227-8.843,9.201-8.371,12.313-6.803c18.474-17.093,36.595-3.129,36.595-3.129
			c6.975,16.849,22.09,23.734,22.09,23.734s-6.04,6.184-23.546,6.048c-5.348-0.042-10.724-2.497-15.616-5.88
			c9.437,9.504,20.501,15.29,20.501,15.29c-21.915-4.193-36.609-29.564-38.115-32.258c-1.856,2.741-5.407,8.577-5.706,13.505
			c-0.406,6.697,1.898,19.701-1.937,20.194C1407.907,1006.356,1394.989,988.916,1401.328,975.654z"/>
		<path style="fill:#F99746;" d="M1412.928,1073.352c0,0-3.489,2.006-9.869,21.505c0,0,7.307,9.078,16.22,8.229
			C1419.278,1103.086,1420.466,1075.577,1412.928,1073.352z"/>
		<path style="fill:#2358A5;" d="M1524.691,1628.787h62.435c0,0,1.497-9.516-1.765-16.734c-3.125-6.928-8.019-10.076-6.847-18.458
			c-3.967,4.085-10.433,8.659-19.459,7.445c-1.106,1.793-7.139,11.389-10.833,14.043
			C1544.141,1618.015,1525.947,1616.97,1524.691,1628.787z"/>
		<path style="fill:#2358A5;" d="M1390.633,1628.787h62.436c0,0,2.334-9.958-1.765-16.734c-3.628-5.996-2.238-9.412,0.45-14.372
			c-2.829,1.157-6.487,2.211-10.516,1.98c-3.111-0.179-6.4-1.591-9.285-3.266c-2.688,3.063-14.194,16.104-17.789,18.688
			C1410.083,1618.015,1391.89,1616.97,1390.633,1628.787z"/>
		<path style="fill:#FFB27D;" d="M1334.242,1151.981c0,0-5.477-7.381-8.899-8.928c-3.422-1.547-6.661-11.072-8.555-8.161
			c-1.154,1.774,1.764,8.371,1.018,9.859c-0.746,1.489-8.297-1.657-9.62-3.773c-0.887-1.419-8.671-10.813-8.848-6.483
			c-0.177,4.33,6.618,20.947,9.97,23.064c3.352,2.116,16.035,4.97,16.035,4.97L1334.242,1151.981z"/>
		<path style="fill:#ED7D2B;" d="M1504.408,1111.491c-14.119,34.535-68.456,77.315-68.456,77.315l-0.942-1.059
			c-1.735-7.388-3.588-15.008-5.451-22.363l57.883-53.894H1504.408z"/>
		<path style="fill:#FFB27D;" d="M1327.113,1152.679l-1.77,9.851c0,0,31.056,7.102,37.905,8.602l0.085,0.039
			c11.829,2.348,25.171,4.773,36.796,5.993c8.21,0.786,15.562,0.97,20.954,0.25c0.544-0.06,1.002-0.159,1.586-0.304
			c13.304-2.652,34.957-18.502,54.675-37.104c2.73-2.563,5.375-5.168,7.98-7.686c9.519-9.458,18.105-19.137,24.623-27.91
			c3.946-5.205,7.231-10.097,9.402-14.364c0.791-1.494,1.543-2.903,2.086-4.307c11.207-24.79,0.505-33.849,0.505-33.849
			c-0.216-0.203-0.433-0.406-0.734-0.646c-1.974-1.322-4.856-0.895-8.452,0.858c-4.505,2.159-10.202,6.457-16.533,11.907
			c-9.918,8.757-69.408,81.18-83.29,83.938C1400.876,1150.342,1327.113,1152.679,1327.113,1152.679z"/>
		<path style="fill:#F99746;" d="M1515.653,1047.877c0,0,12.125,3.402,13.183,16.104c1.059,12.7-0.592,52.004-0.592,52.004
			s-39.627-11.363-55.768-35.6C1472.477,1080.385,1501.58,1048.191,1515.653,1047.877z"/>
	</g>
	<path style="fill:#2E3552;" d="M3051.854,1640.746H164.951c-2.251,0-4.093-1.842-4.093-4.093v-3.772
		c0-2.252,1.842-4.094,4.093-4.094h2886.903c2.252,0,4.094,1.842,4.094,4.094v3.772
		C3055.948,1638.904,3054.106,1640.746,3051.854,1640.746z"/>
</g>
</svg>
