<svg xml:space="preserve" style="max-height: 500px" viewBox="115.92 200.43636363636364 1025.6399999999999 220.6060606060606" y="0px" x="0px" xmlns:xlink="http://www.w3.org/1999/xlink" xmlns="http://www.w3.org/2000/svg" id="Calque_1" version="1.1" width="1025.6399999999999" height="220.6060606060606">
<style type="text/css">
	.st0{fill:#5785C4;}
	.st1{fill:#F9ED32;}
	.st2{fill:#FBFCFD;}
	.st3{fill:#FFFFFF;}
	.st4{fill:none;}
</style>
<g>
	<path d="M191.1,361.2c-5.5,5.7-13.4,4.9-14.5,4.8c-8-0.7-14-2.9-17.8-4.6c-1-0.5-26-12.1-31.9-37.7&#10;&#9;&#9;c-0.9-3.8-1.1-6.9-1.2-9v-79.3c0.5-7.3,6.7-13,13.9-13c7.1,0,13.2,5.4,13.9,12.6v17.4h13.9c8.1,0,14.7,6.6,14.7,14.7&#10;&#9;&#9;c0,8.1-6.6,14.7-14.7,14.7h-13.9v27.3c-0.1,1.9,0,4.7,0.9,8c2.2,8.1,7.7,12.7,9.8,14.3c5,4.1,10.2,5.6,13.2,6.2&#10;&#9;&#9;c0.6,0.1,1.6,0.3,2.7,0.6c5.2,1.2,7.9,1.7,9.7,2.9c2.9,1.8,5.1,5.4,5.6,9.2C196,356.1,192,360.2,191.1,361.2z" class="st3"/>
	<path d="M319,287.2c-0.5-1.2-0.9-2.1-1.2-2.7C318.2,285.4,318.7,286.3,319,287.2z" class="st3"/>
	<path d="M317.6,283.9c0.1,0.1,0.1,0.3,0.2,0.5C317.7,284.3,317.7,284.1,317.6,283.9z" class="st3"/>
	<path d="M453.4,251.7c-31.7,0-57.5,25.7-57.5,57.5c0,0.6,0,1.2,0,1.8c0.3,1.5,1.3,5,4.5,7.9c4.7,4.3,10.4,4.1,11.5,4&#10;&#9;&#9;h82.9c1.1,0.1,6.8,0.3,11.5-4c3.2-2.9,4.2-6.4,4.5-7.9c0-0.6,0-1.2,0-1.8C510.8,277.4,485.1,251.7,453.4,251.7z M429.5,293.5&#10;&#9;&#9;c5.1-7.8,13.9-12.9,23.9-12.9c10,0,18.8,5.1,23.8,12.9H429.5z" class="st3"/>
	<path d="M688.1,376.7c-0.7-0.5-1.4-1.1-2.1-1.7C686.7,375.5,687.4,376.1,688.1,376.7z" class="st3"/>
	<path d="M688.1,376.7c-0.7-0.5-1.4-1.1-2.1-1.7C686.7,375.5,687.4,376.1,688.1,376.7z" class="st3"/>
	<g>
		<path d="M845.5,251.7c-31.7,0-57.5,25.7-57.5,57.5c0,31.7,25.7,57.5,57.5,57.5c31.7,0,57.5-25.7,57.5-57.5&#10;&#9;&#9;&#9;C903,277.4,877.3,251.7,845.5,251.7z M845.5,337.7c-15.8,0-28.5-12.8-28.5-28.5c0-15.8,12.8-28.5,28.5-28.5&#10;&#9;&#9;&#9;c15.8,0,28.5,12.8,28.5,28.5C874.1,324.9,861.3,337.7,845.5,337.7z" class="st3"/>
	</g>
	<path d="M688.1,376.7c-0.7-0.5-1.4-1.1-2.1-1.7C686.7,375.5,687.4,376.1,688.1,376.7z" class="st3"/>
	<path d="M773.6,236.9c0,8.1-6.6,14.7-14.7,14.7c-8.1,0-14.7-6.6-14.7-14.7s6.6-14.7,14.7-14.7&#10;&#9;&#9;C767,222.2,773.6,228.8,773.6,236.9z" class="st3"/>
	<path d="M715.2,251.7c-31.7,0-57.5,25.7-57.5,57.5c0,4.1,0.4,8.1,1.2,12c1.7,8,5.1,15.5,9.8,21.9&#10;&#9;&#9;c10.5,14.3,27.4,23.6,46.5,23.6c20.3,0,38.1-10.5,48.3-26.3c4-6.2,6.9-13.3,8.2-20.9c0.6-3.3,0.9-6.8,0.9-10.3&#10;&#9;&#9;C772.7,277.4,747,251.7,715.2,251.7z M715.2,337.7c-15.7,0-28.5-12.8-28.5-28.5c0-3.3,0.6-6.5,1.6-9.4c1-2.9,2.5-5.6,4.4-8.1&#10;&#9;&#9;c5.2-6.7,13.4-11,22.6-11c8.9,0,16.8,4,22,10.4c1.8,2.1,3.2,4.6,4.3,7.1h0c1.4,3.4,2.2,7.1,2.2,11&#10;&#9;&#9;C743.7,324.9,731,337.7,715.2,337.7z" class="st3"/>
	<g>
		<path d="M715.6,415.2c0,0-0.1,0-0.1,0c-24,0-40.8-12.7-47-18.1c-5.8-5.2-6.3-14.1-1.2-19.9c5.2-5.8,14.1-6.3,19.9-1.2&#10;&#9;&#9;&#9;c3.7,3.3,13.9,11,28.3,11c0,0,0.1,0,0.1,0c14.4,0,24.6-7.7,28.3-11c5.8-5.2,14.7-4.6,19.9,1.2c5.2,5.8,4.6,14.7-1.2,19.9&#10;&#9;&#9;&#9;C756.4,402.6,739.6,415.2,715.6,415.2z" class="st3"/>
	</g>
	<path d="M773.5,236.9c0,8.1-6.6,14.7-14.7,14.7c-8.1,0-14.7-6.6-14.7-14.7s6.6-14.7,14.7-14.7&#10;&#9;&#9;C767,222.2,773.5,228.8,773.5,236.9z" class="st3"/>
	<path d="M947,350.3c0,8.1-6.6,14.7-14.7,14.7c-8.1,0-14.7-6.6-14.7-14.7s6.6-14.7,14.7-14.7&#10;&#9;&#9;C940.4,335.5,947,342.1,947,350.3z" class="st3"/>
	<path d="M641.7,309.2v40.6c0,8-6.5,14.5-14.5,14.5c-5.1,0-9.6-2.6-12.1-6.6c-1.5-2.3-2.3-5-2.3-7.9v-40.6&#10;&#9;&#9;c0-15.8-12.8-28.5-28.5-28.5c-15.8,0-28.5,12.8-28.5,28.5v40.6c0,2.9-0.9,5.6-2.3,7.9c-2.6,4-7,6.6-12.1,6.6&#10;&#9;&#9;c-8,0-14.5-6.5-14.5-14.5v-40.6c0-31.7,25.7-57.5,57.5-57.5C616,251.7,641.7,277.4,641.7,309.2z" class="st3"/>
	<path d="M435.1,288.6c-0.1,0.1-0.2,0.1-0.2,0.2" class="st3"/>
	<path d="M1076.7,251.7c-31.7,0-57.5,25.7-57.5,57.5c0,31.7,25.7,57.5,57.5,57.5c31.7,0,57.5-25.7,57.5-57.5&#10;&#9;&#9;C1134.2,277.4,1108.5,251.7,1076.7,251.7z M1076.7,337.7c-15.8,0-28.5-12.8-28.5-28.5c0-15.8,12.8-28.5,28.5-28.5&#10;&#9;&#9;c15.8,0,28.5,12.8,28.5,28.5C1105.3,324.9,1092.5,337.7,1076.7,337.7z" class="st3"/>
	<path d="M983.8,366.6L983.8,366.6c-7.6,0-13.8-6.2-13.8-13.8v-86.2c0-7.6,6.2-13.8,13.8-13.8h0&#10;&#9;&#9;c7.6,0,13.8,6.2,13.8,13.8v86.2C997.6,360.4,991.4,366.6,983.8,366.6z" class="st3"/>
	<path d="M344.3,344c-2-5.1-19.5-44.1-25.2-56.6c0-0.1-0.1-0.2-0.1-0.2c-0.4-1-0.8-1.8-1.1-2.4&#10;&#9;&#9;c-0.2-0.4-0.3-0.6-0.4-0.8c-0.1-0.2-0.2-0.4-0.2-0.4c-9.4-18.9-28.9-31.9-51.5-31.9c-31.7,0-57.5,25.7-57.5,57.5&#10;&#9;&#9;c0,31.7,25.7,57.5,57.5,57.5c19.4,0,36.6-9.7,47-24.4c0.8,2.1,1.7,4.3,2.7,6.5c1.2,2.5,2.4,4.8,3.6,6.8c0.9,1.8,4,8,10.6,9.8&#10;&#9;&#9;c1.2,0.3,2.3,0.4,3.3,0.5c1.9-0.1,5.2-0.6,7.9-2.9C345.8,359,347.2,351.3,344.3,344z M265.9,337.7c-15.8,0-28.5-12.8-28.5-28.5&#10;&#9;&#9;c0-15.8,12.8-28.5,28.5-28.5s28.5,12.8,28.5,28.5C294.5,324.9,281.7,337.7,265.9,337.7z" class="st3"/>
	<path d="M312.9,342.2c-0.2-0.5-0.4-1.1-0.6-1.6" class="st3"/>
	<path d="M361.6,365.8L361.6,365.8c-7.9,0-14.3-6.5-14.3-14.3V223.1c0-7.9,6.5-14.3,14.3-14.3h0&#10;&#9;&#9;c7.9,0,14.3,6.5,14.3,14.3v128.4C375.9,359.4,369.5,365.8,361.6,365.8z" class="st3"/>
	<path d="M435.1,288.6c-0.1,0.1-0.2,0.1-0.2,0.2" class="st3"/>
	<path d="M510.8,310.8c0,0,0,0.1,0,0.1" class="st3"/>
	<path d="M395.9,310.9c0,0,0-0.1,0-0.1" class="st3"/>
	<path d="M493,344c0,4.3-1.8,8.1-4.7,10.8l0,0c-3.7,2.8-9.5,6.6-17.4,9.1c-3.5,1.1-9.6,2.7-17.5,2.7&#10;&#9;&#9;c-6.3,0-12.4-1-18.1-2.9c-7.9-2.6-12.4-5.7-13.7-6.7c-5.3-4-6.7-7.1-7.3-8.9c-0.6-2.1-0.6-3.8-0.6-4.1c0-8,6.3-14.5,14.3-14.8&#10;&#9;&#9;c0.1,0,0.3,0,0.5,0c4,0,6.5,1.9,10.3,3.9c1.7,0.9,3.8,2,6.5,2.9c2.1,0.7,5.1,1.6,9.1,1.5c3.9-0.1,6.9-1.2,8.4-1.8&#10;&#9;&#9;c1.3-0.5,3.1-1.5,6.9-3.6c2.5-1.4,5-2.9,8.5-2.8c0.1,0,0.3,0,0.5,0C486.7,329.5,493,336,493,344z" class="st3"/>
	<path d="M488.3,354.8c-1,0.9-2,1.7-3.2,2.3C486.2,356.4,487.3,355.6,488.3,354.8z" class="st3"/>
	<path d="M421.6,357.1c-1.2-0.6-2.2-1.4-3.1-2.2C419.5,355.6,420.5,356.3,421.6,357.1z" class="st3"/>
</g>
</svg>