<?xml version="1.0" encoding="utf-8"?>
<!-- Generator: Adobe Illustrator 27.5.0, SVG Export Plug-In . SVG Version: 6.00 Build 0)  -->
<svg version="1.1" xmlns="http://www.w3.org/2000/svg" xmlns:xlink="http://www.w3.org/1999/xlink" x="0px" y="0px"
	 viewBox="0 0 750 500" style="enable-background:new 0 0 750 500;" xml:space="preserve">
<g id="Background_complete">
	<g>
		<g>
			<g>
				<g>
					<g>
						<g>
							<path style="fill:#E0E0E0;" d="M673.734,339.783H492.988c-3.232,0-5.862-2.63-5.862-5.862V70.647
								c0-3.232,2.63-5.862,5.862-5.862h180.746c3.232,0,5.862,2.629,5.862,5.862v263.273
								C679.596,337.153,676.966,339.783,673.734,339.783z M492.988,65.035c-3.095,0-5.612,2.518-5.612,5.612v263.273
								c0,3.095,2.518,5.612,5.612,5.612h180.746c3.095,0,5.612-2.518,5.612-5.612V70.647c0-3.094-2.518-5.612-5.612-5.612H492.988z
								"/>
						</g>
					</g>
					<g>
						<g>
							<path style="fill:#E0E0E0;" d="M465.306,339.783H284.56c-3.232,0-5.862-2.63-5.862-5.862V70.647
								c0-3.232,2.629-5.862,5.862-5.862h180.747c3.232,0,5.862,2.629,5.862,5.862v263.273
								C471.168,337.153,468.538,339.783,465.306,339.783z M284.56,65.035c-3.094,0-5.612,2.518-5.612,5.612v263.273
								c0,3.095,2.518,5.612,5.612,5.612h180.747c3.095,0,5.612-2.518,5.612-5.612V70.647c0-3.094-2.518-5.612-5.612-5.612H284.56z"
								/>
						</g>
					</g>
				</g>
				<g>
					<g>
						<g>
							<path style="fill:#E0E0E0;" d="M257.012,339.783H76.266c-3.232,0-5.862-2.63-5.862-5.862V70.647
								c0-3.232,2.629-5.862,5.862-5.862h180.746c3.232,0,5.862,2.629,5.862,5.862v263.273
								C262.875,337.153,260.245,339.783,257.012,339.783z M76.266,65.035c-3.094,0-5.612,2.518-5.612,5.612v263.273
								c0,3.095,2.518,5.612,5.612,5.612h180.746c3.095,0,5.612-2.518,5.612-5.612V70.647c0-3.094-2.518-5.612-5.612-5.612H76.266z"
								/>
						</g>
					</g>
				</g>
			</g>
			<g>
				<g>
					<rect y="400.852" style="fill:#E0E0E0;" width="750" height="0.12"/>
				</g>
			</g>
		</g>
		<g>
			<rect x="653.626" y="430.228" style="fill:#EBEBEB;" width="55.729" height="0.421"/>
			<rect x="495.044" y="434.794" style="fill:#EBEBEB;" width="14.627" height="0.421"/>
			<rect x="40.645" y="417.431" style="fill:#EBEBEB;" width="72.674" height="0.421"/>
			<rect x="128.299" y="417.431" style="fill:#EBEBEB;" width="10.656" height="0.421"/>
			<rect x="173.586" y="424.535" style="fill:#EBEBEB;" width="157.613" height="0.421"/>
		</g>
	</g>
	<g>
		<g>
			<g>
				<path style="fill:#F0F0F0;" d="M704.811,394.701v-29.693c-0.563-0.226-1.205-0.307-1.804-0.232
					c-1.322,0.166-2.495,0.891-3.661,1.535c-1.593,0.881-3.275,1.646-5.064,1.983c-1.789,0.337-3.705,0.219-5.332-0.596
					c-1.834-0.919-3.836-2.891-4.727-4.739c-1.347-2.796-1.146-5.837-0.222-8.8c0.924-2.963,3.373-5.506,6.41-6.146
					c3.119-0.656,6.407,0.673,9.143,1.905c1.282,0.577,2.6,1.067,3.954,1.446c0.416,0.116,0.859,0.225,1.302,0.27v-30.262
					c0-4.047-3.281-7.328-7.328-7.328h-32.032c-0.074,0.161-0.111,0.334-0.087,0.522c0.166,1.322,0.831,4.948,1.475,6.114
					c0.881,1.594,1.646,3.275,1.983,5.064c0.337,1.789,0.219,3.705-0.596,5.332c-0.919,1.834-2.891,3.836-4.739,4.727
					c-2.796,1.347-5.837,1.146-8.8,0.222s-5.506-3.373-6.146-6.41c-0.669-3.176,0.722-6.529,1.974-9.294
					c0.574-1.269,1.051-2.578,1.412-3.923c0.203-0.759,0.38-1.598,0.139-2.354h-27.993c-4.132,0-7.482,3.35-7.482,7.482v29.458
					c-1.693-0.59-3.322-1.377-5-2.02c-2.195-0.841-4.587-1.436-6.887-0.952c-3.037,0.639-5.486,3.183-6.41,6.146
					c-0.924,2.963-1.125,6.004,0.222,8.8c0.891,1.849,2.892,3.82,4.727,4.739c1.628,0.816,3.543,0.933,5.332,0.596
					c1.789-0.337,3.471-1.102,5.064-1.983c0.953-0.527,1.912-1.103,2.953-1.388v29.777c0,4.178,3.387,7.565,7.565,7.565h73.091
					C701.424,402.266,704.811,398.879,704.811,394.701z"/>
			</g>
			<path style="fill:#E6E6E6;" d="M681.563,314.045c0,0,5.844,15.438-5.691,24.665c-11.535,9.228-45.216,20.609-52.137,36.45
				c-6.921,15.841-4.756,23.919-4.756,23.919s1.065,3.983,10.139,3.335c0,0-6.149-14.797,2.462-27.562
				c8.611-12.765,52.991-17.507,61.825-36.833c6.152-13.459,2.461-23.975,2.461-23.975H681.563z"/>
		</g>
		<path style="fill:#E6E6E6;" d="M668.377,402.485c0,0,4.969-14.161,20.701-22.492c15.733-8.331,15.733-7.069,15.733-7.069v8.836
			c0,0-24.316-1.467-29.87,20.725H668.377z"/>
	</g>
	<g>
		<g>
			<g>
				<path style="fill:#F0F0F0;" d="M579.733,152.899l18.723-22.964c-0.293-0.53-0.738-0.997-1.249-1.317
					c-1.127-0.705-2.491-0.884-3.799-1.121c-1.788-0.324-3.571-0.792-5.167-1.659c-1.596-0.868-3.003-2.167-3.748-3.824
					c-0.839-1.868-1.144-4.655-0.667-6.646c0.721-3.012,2.794-5.237,5.377-6.946c2.583-1.709,6.081-2.132,8.833-0.711
					c2.826,1.459,4.531,4.56,5.869,7.239c0.627,1.255,1.338,2.465,2.146,3.612c0.248,0.352,0.523,0.716,0.837,1.03l19.082-23.404
					c2.552-3.13,2.083-7.736-1.046-10.288l-24.773-20.198c-0.159,0.078-0.296,0.188-0.396,0.349
					c-0.705,1.127-2.478,4.351-2.714,5.659c-0.324,1.788-0.792,3.571-1.659,5.167c-0.868,1.596-2.167,3.003-3.824,3.748
					c-1.868,0.839-4.654,1.144-6.646,0.667c-3.012-0.722-5.237-2.795-6.946-5.378c-1.709-2.583-2.132-6.081-0.711-8.833
					c1.486-2.878,4.676-4.593,7.387-5.943c1.244-0.619,2.438-1.331,3.565-2.144c0.636-0.458,1.302-0.996,1.591-1.733L568.151,39.61
					c-3.196-2.606-7.899-2.127-10.505,1.069l-18.575,22.782c-0.938-1.524-1.701-3.16-2.594-4.715
					c-1.167-2.034-2.642-4.003-4.725-5.079c-2.752-1.421-6.25-0.998-8.833,0.711c-2.583,1.709-4.656,3.934-5.378,6.946
					c-0.477,1.991-0.172,4.778,0.667,6.646c0.744,1.657,2.152,2.956,3.748,3.824c1.596,0.868,3.379,1.336,5.167,1.659
					c1.069,0.194,2.174,0.353,3.158,0.789l-18.776,23.028c-2.635,3.231-2.151,7.986,1.08,10.621l56.526,46.089
					C572.343,156.614,577.098,156.13,579.733,152.899z"/>
			</g>
		</g>
		<path style="fill:#E6E6E6;" d="M546.647,135.945c0,0,12.772-7.819,30.193-4.341c17.42,3.478,16.624,4.454,16.624,4.454
			l-5.572,6.833c0,0-17.88-16.468-36.169-2.807L546.647,135.945z"/>
	</g>
	<g>
		<g>
			<g>
				<path style="fill:#F0F0F0;" d="M81.37,216.286l-22.033,17.711c0.168,0.553,0.491,1.077,0.904,1.477
					c0.911,0.882,2.149,1.32,3.323,1.8c1.604,0.657,3.175,1.448,4.492,2.575c1.317,1.127,2.372,2.618,2.738,4.313
					c0.412,1.91,0.143,4.571-0.697,6.334c-1.271,2.667-3.648,4.332-6.398,5.414c-2.75,1.082-6.098,0.782-8.384-1.091
					c-2.347-1.923-3.322-5.155-4.04-7.921c-0.336-1.295-0.759-2.566-1.285-3.797c-0.161-0.378-0.345-0.772-0.577-1.127
					l-22.455,18.051c-3.003,2.414-3.48,6.805-1.067,9.808l19.106,23.769c0.164-0.041,0.314-0.117,0.439-0.247
					c0.882-0.912,3.176-3.568,3.657-4.742c0.657-1.604,1.448-3.175,2.575-4.492c1.127-1.317,2.618-2.372,4.313-2.738
					c1.91-0.412,4.571-0.143,6.334,0.697c2.667,1.272,4.332,3.648,5.414,6.398c1.082,2.75,0.782,6.098-1.091,8.384
					c-1.958,2.391-5.276,3.358-8.074,4.079c-1.284,0.331-2.54,0.758-3.753,1.292c-0.684,0.301-1.412,0.671-1.829,1.301
					l16.697,20.772c2.465,3.066,6.949,3.554,10.015,1.089l21.859-17.571c0.572,1.608,0.96,3.287,1.484,4.915
					c0.685,2.13,1.67,4.26,3.401,5.678c2.286,1.872,5.634,2.173,8.384,1.091c2.75-1.082,5.126-2.746,6.398-5.413
					c0.841-1.763,1.109-4.424,0.697-6.334c-0.366-1.694-1.421-3.186-2.738-4.313c-1.317-1.127-2.888-1.918-4.492-2.575
					c-0.96-0.393-1.959-0.762-2.791-1.363l22.095-17.761c3.1-2.492,3.593-7.026,1.101-10.126l-43.597-54.236
					C89.004,214.287,84.471,213.794,81.37,216.286z"/>
			</g>
		</g>
	</g>
	<g>
		<g>
			<g>
				<path style="fill:#F0F0F0;" d="M252.139,81.845l-6.489-18.18c-0.395-0.015-0.805,0.075-1.155,0.252
					c-0.773,0.39-1.333,1.091-1.906,1.74c-0.783,0.887-1.645,1.723-2.667,2.321c-1.022,0.597-2.22,0.944-3.395,0.8
					c-1.324-0.162-2.98-0.932-3.93-1.869c-1.436-1.418-1.977-3.324-2.059-5.34c-0.082-2.016,0.862-4.109,2.582-5.164
					c1.766-1.083,4.07-0.988,6.014-0.831c0.911,0.073,1.825,0.085,2.737,0.022c0.28-0.019,0.575-0.05,0.856-0.119l-6.613-18.529
					c-0.884-2.478-3.61-3.77-6.088-2.885l-19.613,7c-0.01,0.115,0.005,0.229,0.061,0.339c0.39,0.773,1.59,2.848,2.239,3.421
					c0.888,0.783,1.724,1.645,2.321,2.667c0.597,1.022,0.944,2.22,0.8,3.395c-0.162,1.324-0.931,2.981-1.869,3.93
					c-1.418,1.436-3.324,1.977-5.34,2.059c-2.016,0.082-4.109-0.862-5.164-2.582c-1.104-1.799-0.984-4.155-0.823-6.122
					c0.074-0.902,0.08-1.808,0.007-2.71c-0.041-0.509-0.116-1.061-0.429-1.472l-17.14,6.117c-2.53,0.903-3.849,3.686-2.946,6.216
					l6.438,18.037c-1.166,0.009-2.335-0.117-3.503-0.144c-1.527-0.035-3.122,0.123-4.425,0.922c-1.72,1.055-2.664,3.147-2.582,5.164
					c0.082,2.016,0.623,3.922,2.059,5.34c0.949,0.937,2.606,1.707,3.93,1.869c1.175,0.144,2.373-0.203,3.395-0.8
					c1.022-0.597,1.884-1.433,2.667-2.321c0.468-0.531,0.93-1.093,1.505-1.495l6.507,18.232c0.913,2.558,3.727,3.892,6.285,2.979
					l44.752-15.973C251.719,87.217,253.052,84.403,252.139,81.845z"/>
			</g>
		</g>
	</g>
</g>
<g id="Background_simple" style="display:none;">
	<g style="display:inline;">
		<path style="fill:#407BFF;" d="M470.002,135.589c-11.964,13.583-21.29,29.406-26.807,46.835
			c-6.503,20.542-9.142,46.467,10.295,61.81c35.883,28.326,73.739-1.335,85.176,28.004c12.955,33.233,43.722,59.586,88.6,37.45
			c85.24-42.043,94.673-208.266,27.604-240.996C613.115,48.318,533.526,63.466,470.002,135.589z"/>
		<path style="opacity:0.9;fill:#FFFFFF;" d="M470.002,135.589c-11.964,13.583-21.29,29.406-26.807,46.835
			c-6.503,20.542-9.142,46.467,10.295,61.81c35.883,28.326,73.739-1.335,85.176,28.004c12.955,33.233,43.722,59.586,88.6,37.45
			c85.24-42.043,94.673-208.266,27.604-240.996C613.115,48.318,533.526,63.466,470.002,135.589z"/>
	</g>
</g>
<g id="Shadow_1">
	<g>
		<g>
			<path style="fill:#F5F5F5;" d="M681.491,449.064c0,5.13-112.621,9.289-251.546,9.289s-251.546-4.159-251.546-9.289
				c0-5.131,112.621-9.29,251.546-9.29S681.491,443.933,681.491,449.064z"/>
		</g>
	</g>
</g>
<g id="Speech_Bubble_2">
	<g>
		<path style="fill:#407BFF;" d="M696.218,130.671h-29.831c-3.055,0-5.532,2.477-5.532,5.532v21.607
			c0,3.055,2.477,5.532,5.532,5.532h3.75v6.724l5.464-6.724h20.618c3.055,0,5.532-2.477,5.532-5.532v-21.607
			C701.75,133.147,699.273,130.671,696.218,130.671z"/>
		<g>
			<path style="fill:#FFFFFF;" d="M673.903,143.892c1.727-0.264,3.193,1.202,2.928,2.929c-0.165,1.076-1.044,1.956-2.121,2.121
				c-1.727,0.265-3.194-1.202-2.929-2.93C671.947,144.936,672.827,144.057,673.903,143.892z M679.552,146.012
				c-0.265,1.727,1.201,3.194,2.929,2.93c1.076-0.165,1.956-1.044,2.121-2.121c0.264-1.727-1.202-3.193-2.928-2.929
				C680.597,144.057,679.717,144.936,679.552,146.012z M687.323,146.012c-0.265,1.727,1.201,3.194,2.929,2.93
				c1.076-0.165,1.956-1.044,2.121-2.121c0.264-1.727-1.201-3.193-2.928-2.929C688.367,144.057,687.488,144.936,687.323,146.012z"/>
		</g>
		<g>
			<g>
				<path style="fill:#407BFF;" d="M666.832,129.537c6.489,0,12.978,0,19.466,0c0.483,0,0.483-0.75,0-0.75
					c-6.489,0-12.978,0-19.466,0C666.349,128.787,666.348,129.537,666.832,129.537L666.832,129.537z"/>
			</g>
		</g>
	</g>
</g>
<g id="Speech_Bubble_1">
	<g>
		<g>
			<g>
				<g>
					<path style="fill:#407BFF;" d="M88.467,108.792c-10.122-4.891-22.293-0.65-27.184,9.473s-0.65,22.293,9.473,27.184
						c7.815,3.775,16.836,2.091,22.8-3.523l6.091,0.53l-1.869-6.183c0.051-0.101,0.112-0.194,0.162-0.296
						C102.831,125.854,98.589,113.683,88.467,108.792z"/>
				</g>
				<path style="fill:none;stroke:#407BFF;stroke-linecap:round;stroke-linejoin:round;stroke-miterlimit:10;" d="M78.372,104.125
					c6.552-0.93,13.501,1.688,17.811,6.711"/>
				<path style="fill:none;stroke:#407BFF;stroke-linecap:round;stroke-linejoin:round;stroke-miterlimit:10;" d="M98.078,113.209
					c0.713,0.715,1.275,1.579,1.641,2.52"/>
			</g>
		</g>
		<g>
			<polygon style="fill:#FFFFFF;" points="79.637,137.261 69.29,129.557 71.979,125.946 78.917,131.112 88.45,119.74 91.9,122.631 
							"/>
		</g>
	</g>
</g>
<g id="Character_3">
	<g>
		<g id="freepik--character-2--inject-2_00000171678264976757363380000005301243611931463078_">
			<path style="fill:#263238;" d="M614.031,186.781c0,0-1.964-20.246,3.901-30.129c5.865-9.883,15.669-8.452,26.475-1.3
				c10.806,7.152,10.221,19.609,6.827,32.313l-3.979,1.105l-0.507-4.733l-1.157,5.019l-6.97,1.443v-4.863l-1.729,4.863
				l-15.929-0.507l-1.625-4.681l-0.455,3.81L614.031,186.781z"/>
			<path style="fill:#FDAC6D;" d="M619.011,212.358c-5.045,8.894-10.403,17.542-16.046,26.085l-2.055,3.134
				c-0.117,0.195-0.494,0.715-0.793,1.118c-0.31,0.406-0.644,0.792-1.001,1.157c-0.661,0.676-1.378,1.294-2.146,1.847
				c-2.636,1.755-5.592,2.975-8.699,3.589c-5.394,1.117-10.937,1.319-16.397,0.598c-1.612-0.185-2.77-1.642-2.585-3.255
				c0.148-1.29,1.125-2.329,2.403-2.558h0.195c4.691-0.742,9.299-1.939,13.757-3.576c1.834-0.664,3.538-1.646,5.032-2.9
				c0.236-0.23,0.453-0.478,0.65-0.741c0-0.117,0.169-0.221,0.208-0.325c0.072-0.166,0.154-0.326,0.247-0.481l1.859-3.316
				c4.954-8.868,9.987-17.711,15.24-26.371l0,0c1.652-2.812,5.27-3.752,8.082-2.1c2.812,1.652,3.752,5.27,2.1,8.082L619.011,212.358
				z"/>
			<path style="fill:#FDAC6D;" d="M561.822,244.281l2.237-1.859c0.84-0.705,1.97-0.957,3.03-0.676l4.954,1.3
				c1.985,0.525,3.594,1.979,4.317,3.901l0.442,1.183c-3.485,3.355-9.74,4.395-9.74,4.395l-1.742,0.507
				c-1.495,0.464-3.084-0.371-3.548-1.866c-0.001-0.002-0.001-0.004-0.002-0.006l-1.027-3.459
				C560.392,246.448,560.815,245.106,561.822,244.281z"/>
			<path style="fill:#407BFF;" d="M615.916,198.262c-9.492,1.742-11.04,8.127-18.127,20.896c2.684,5.452,7.688,9.399,13.615,10.741
				C611.404,229.9,627.789,207.573,615.916,198.262z"/>
			<path style="opacity:0.8;fill:#FFFFFF;enable-background:new    ;" d="M615.916,198.262c-9.492,1.742-11.04,8.127-18.127,20.896
				c2.684,5.452,7.688,9.399,13.615,10.741C611.404,229.9,627.789,207.573,615.916,198.262z"/>
			<path style="opacity:0.1;enable-background:new    ;" d="M605.605,216.181c-0.704,3.144-1.764,6.198-3.16,9.102
				c2.522,2.314,5.614,3.916,8.959,4.642c2.59-3.65,4.771-7.575,6.502-11.703L605.605,216.181z"/>
			<path style="fill:#407BFF;" d="M604.486,211.058c-0.215,5.601-0.128,11.209,0.26,16.8c0.299,7.295-0.975,28.061,4.2,29.375
				c3.992,2.341,24.238,1.482,37.164-0.182c6.151-1.807-4.278-17.945,7.139-48.112c1.99-5.201-2.003-10.585-7.802-11.131
				c-1.547-0.143-3.186-0.273-4.863-0.351c-5.906-0.397-11.831-0.397-17.737,0c-1.924,0.169-3.901,0.39-5.826,0.65
				C610.143,198.9,604.694,204.556,604.486,211.058z"/>
			<path style="opacity:0.8;fill:#FFFFFF;enable-background:new    ;" d="M604.486,211.058c-0.215,5.601-0.128,11.209,0.26,16.8
				c0.299,7.295-0.975,28.061,4.2,29.375c3.992,2.341,24.238,1.482,37.164-0.182c6.151-1.807-4.278-17.945,7.139-48.112
				c1.99-5.201-2.003-10.585-7.802-11.131c-1.547-0.143-3.186-0.273-4.863-0.351c-5.906-0.397-11.831-0.397-17.737,0
				c-1.924,0.169-3.901,0.39-5.826,0.65C610.143,198.9,604.694,204.556,604.486,211.058z"/>
			<path style="fill:#FDAC6D;" d="M607.997,257.87c0,0-6.58,51.155-6.008,83.638c-2.276,30.454-4.187,94.392-7.659,101.309
				c0.117,1.547,5.552,1.898,7.009,0.962c0,0,22.782-52.82,19.713-102.272c20.922-51.61,19.674-83.638,19.674-83.638H607.997z"/>
			<path style="fill:#FDAC6D;" d="M616.905,257.87c0,0,14.954,57.735,20.883,86.082c6.216,29.778,14.421,79.815,12.678,99.593
				c1.677,0.988,4.759,1.105,8.127,0c0,0,13.341-66.46-0.091-98.332c5.891-70.439-12.756-87.344-12.756-87.344H616.905z"/>
			<path style="opacity:0.1;enable-background:new    ;" d="M644.225,216.831c-0.65,6.697,2.276,13.38,3.576,15.955
				c0.278-3.766,0.822-7.507,1.625-11.196L644.225,216.831z"/>
			<path style="fill:#FDAC6D;" d="M639.349,177.418c-1.547,5.695-3.446,16.15,0.273,19.96c0,0,2.601,5.006-12.405,4.551
				c-1.126,3.101-2.081,6.261-2.861,9.467c0,0-1.17-7.347-0.13-9.635c-9.687-0.832-2.341-4.382-2.341-4.382
				c6.502-1.521,6.658-6.242,5.891-10.676L639.349,177.418z"/>
			<path style="opacity:0.2;enable-background:new    ;" d="M634.628,183.322l-6.853,5.5c0.2,1.037,0.305,2.09,0.312,3.147
				c2.458-0.351,5.995-3.017,6.502-5.565C634.791,185.387,634.804,184.343,634.628,183.322z"/>
			<path style="fill:#FDAC6D;" d="M644.225,168.134c-1.742,9.206-2.276,13.133-7.529,17.554c-7.906,6.645-18.764,3.134-19.804-6.268
				c-0.936-8.452,2.055-22.106,11.534-25.136c6.246-2.24,13.126,1.008,15.365,7.255
				C644.549,163.654,644.699,165.939,644.225,168.134z"/>
			<path style="fill:#263238;" d="M636.293,161.476c5.084,6.567-5.357,14.109,5.084,13.667c10.442-0.442,6.203-15.175,0-18.53
				C635.174,153.258,636.293,161.476,636.293,161.476z"/>
			<path style="fill:#263238;" d="M641.351,156.73c-1.3,6.281-2.315,7.906-7.906,6.203c0.834-1.262,1.202-2.775,1.04-4.278
				c-0.551,1.515-1.671,2.755-3.121,3.459c-1.497-0.64-3.057-1.12-4.655-1.43c0.293-0.874,0.386-1.803,0.273-2.718
				c-0.436,1.056-1.173,1.96-2.12,2.601c-1.715,0.016-3.415,0.315-5.032,0.884C619.856,154.805,631.065,147.666,641.351,156.73z"/>
			<path style="fill:#FDAC6D;" d="M644.955,175.186c-0.758,1.644-2.174,2.891-3.901,3.433c-2.146,0.572-3.069-1.885-2.354-4.343
				c0.637-2.211,2.523-5.201,4.616-4.629C645.41,170.219,646.021,173.027,644.955,175.186z"/>
			<path style="fill:#263238;" d="M648.1,260.315l-1.079-3.771c-13.106,1.303-26.312,1.22-39.4-0.247l-0.208,4.174
				c-2.445,7.035-8.712,55.667-8.712,76.655c17.054,4.241,38.588,3.953,63.949-2.032C662.731,326.419,660.232,273.799,648.1,260.315
				z"/>
			<path style="fill:#263238;" d="M660.336,452.479h-1.859l-0.52-2.302l-6.164,2.744h-15.604c0,0-2.484-2.497,4.954-4.486
				c0.364-0.099,0.717-0.234,1.053-0.403c3.966-1.859,9.61-8.14,9.61-8.14h8.569c0.261,0.396,0.495,0.809,0.702,1.235
				C662.026,443.051,663.613,447.004,660.336,452.479z"/>
			<path style="fill:#FDAC6D;" d="M661.064,441.218L661.064,441.218c-1.131-1.3-6.281,4.278-10.052,6.164
				c-3.368,1.677-7.152,2.419-8.829,0.715c3.966-1.859,10.208-9.974,10.208-9.974h6.892
				C659.283,438.123,660.726,440.359,661.064,441.218z"/>
			<path style="fill:#263238;" d="M604.382,452.479h-1.859l-0.52-2.302l-6.164,2.744h-15.604c0,0-2.484-2.497,4.954-4.486
				c0.364-0.099,0.717-0.234,1.053-0.403c3.966-1.859,9.609-8.14,9.609-8.14h8.569c0.261,0.396,0.495,0.809,0.702,1.235
				C606.112,443.051,607.672,447.004,604.382,452.479z"/>
			<path style="fill:#FDAC6D;" d="M605.111,441.218L605.111,441.218c-1.131-1.3-6.281,4.278-10.052,6.164
				c-3.368,1.677-7.152,2.419-8.829,0.715c3.966-1.859,10.208-9.974,10.208-9.974h6.892
				C603.329,438.123,604.707,440.359,605.111,441.218z"/>
			<path style="fill:#263238;" d="M612.015,257.415v2.965c-1.651-0.26-3.29-0.572-4.889-0.962v-2.744
				C607.126,256.674,608.895,257.025,612.015,257.415z"/>
			<path style="fill:#263238;" d="M633.094,258.325l0.273,2.822c-6.827,0.454-13.683,0.236-20.467-0.65l-0.065-2.978
				C619.559,258.277,626.33,258.546,633.094,258.325z"/>
			<path style="fill:#263238;" d="M648.321,259.495c-4.671,0.788-9.38,1.322-14.109,1.599l-0.299-2.809
				c4.226-0.143,8.829-0.481,13.719-1.105L648.321,259.495z"/>
			<path style="opacity:0.4;fill:#FFFFFF;enable-background:new    ;" d="M612.015,257.415v2.965
				c-1.651-0.26-3.29-0.572-4.889-0.962v-2.744C607.126,256.674,608.895,257.025,612.015,257.415z"/>
			<path style="opacity:0.4;fill:#FFFFFF;enable-background:new    ;" d="M633.094,258.325l0.273,2.822
				c-6.827,0.454-13.683,0.236-20.467-0.65l-0.065-2.978C619.559,258.277,626.33,258.546,633.094,258.325z"/>
			<path style="opacity:0.4;fill:#FFFFFF;enable-background:new    ;" d="M648.321,259.495c-4.671,0.788-9.38,1.322-14.109,1.599
				l-0.299-2.809c4.226-0.143,8.829-0.481,13.719-1.105L648.321,259.495z"/>
			<path style="fill:#FFFFFF;" d="M619.206,258.299v2.601c0.006,0.368,0.296,0.669,0.663,0.689l4.2,0.182
				c0.373,0.022,0.693-0.262,0.715-0.635c0.002-0.027,0.002-0.054,0-0.08l-0.143-2.601c-0.013-0.353-0.297-0.637-0.65-0.65
				l-4.057-0.221c-0.38-0.022-0.706,0.268-0.728,0.648C619.206,258.255,619.205,258.277,619.206,258.299z"/>
			<path style="fill:#407BFF;" d="M627.216,201.955c0,0,7.555-1.938,11.703-6.645c0,0,3.446,1.001,4.044,2.21
				c0.598,1.209-0.845,8.933-4.421,9.18C634.25,206.879,630.1,205.14,627.216,201.955z"/>
			<path style="fill:#407BFF;" d="M624.226,201.76c0,0-6.008,4.07-8.569,3.212c-2.562-0.858,2.393-8.413,10.793-9.688
				C626.449,195.285,622.418,197.924,624.226,201.76z"/>
			<path style="opacity:0.7;fill:#FFFFFF;enable-background:new    ;" d="M627.216,201.955c0,0,7.555-1.938,11.703-6.645
				c0,0,3.446,1.001,4.044,2.21c0.598,1.209-0.845,8.933-4.421,9.18C634.25,206.879,630.1,205.14,627.216,201.955z"/>
			<path style="opacity:0.7;fill:#FFFFFF;enable-background:new    ;" d="M624.226,201.76c0,0-6.008,4.07-8.569,3.212
				c-2.562-0.858,2.393-8.413,10.793-9.688C626.449,195.285,622.418,197.924,624.226,201.76z"/>
			<path style="fill:#407BFF;" d="M616.635,226.872c-0.137-0.016-0.274-0.023-0.41-0.012c-1.007,0.078-1.888,0.713-2.661,1.346
				c-1.388,1.135-2.664,2.399-3.844,3.75c-2.503,2.866-5.601,6.185-9.566,7.076c-3.805,0.855-7.932-0.774-10.535-3.679
				c-2.603-2.905-4.42-6.275-4.34-10.175c0.053-2.578,1.313-5.876,2.929-7.884c1.435-1.782,3.563-2.916,5.784-3.465
				c2.221-0.549,4.542-0.551,6.823-0.376c1.669,0.128,3.388,0.344,4.985-0.156c1.597-0.5,3.042-1.969,2.881-3.635l0.781,1.506
				l-19.205-42.057c0,0,0,0-0.001,0l-42.683,19.491c0,0,0,0.001,0,0.001c0.869,1.04,2.027,1.836,3.127,2.65
				c1.839,1.361,3.591,2.884,4.91,4.753c1.319,1.869,2.184,4.12,2.102,6.407c-0.094,2.577-1.302,5.894-2.95,7.876
				c-2.493,2.999-6.074,4.356-9.943,4.847c-3.869,0.491-8.055-0.981-10.371-4.119c-1.754-2.376-2.321-5.421-2.506-8.369
				c-0.141-2.253-0.091-4.526-0.301-6.769c0,0,0,0-0.001-0.001l-42.224,19.282l18.572,40.67c0,0,0,0,0,0
				c1.879,0.387,4.552,0.218,5.564-0.407c1.424-0.88,2.386-2.321,3.383-3.666c1.362-1.839,2.884-3.591,4.753-4.91
				c1.869-1.319,4.12-2.185,6.406-2.102c2.577,0.093,5.894,1.302,7.877,2.95c2.999,2.493,4.356,6.074,4.847,9.943
				c0.491,3.869-0.981,8.055-4.119,10.371c-3.271,2.414-7.809,2.581-11.615,2.595c-1.793,0.007-3.583,0.143-5.35,0.449
				c-0.984,0.17-2.039,0.42-2.758,1.129c-0.445,0.44-0.697,1.104-0.636,1.71c0.029,0.294,0.126,0.575,0.321,0.808l18.424,40.466
				c0,0,0,0,0,0l48.138-21.982c0,0,0,0,0,0c0.233-1.135-0.108-2.439-0.796-3.413c-1.005-1.423-2.563-2.33-4.024-3.279
				c-1.997-1.297-3.914-2.766-5.404-4.623c-1.49-1.857-2.533-4.14-2.593-6.52c-0.068-2.682,0.975-6.205,2.56-8.37
				c2.398-3.275,6.03-4.913,10.018-5.671c3.987-0.757,8.429,0.504,11.035,3.615c2.716,3.242,3.18,7.944,3.439,11.896
				c0.122,1.862,0.378,3.714,0.809,5.53c0.24,1.011,0.566,2.092,1.35,2.793c0.147,0.131,0.317,0.238,0.496,0.328l35.813-16.354
				c0,0,0,0,0-0.001L616.635,226.872z"/>
			<path style="opacity:0.2;enable-background:new    ;" d="M616.635,226.872c-0.137-0.016-0.274-0.023-0.41-0.012
				c-1.007,0.078-1.888,0.713-2.661,1.346c-1.388,1.135-2.664,2.399-3.844,3.75c-2.503,2.866-5.601,6.185-9.566,7.076
				c-3.805,0.855-7.932-0.774-10.535-3.679c-2.603-2.905-4.42-6.275-4.34-10.175c0.053-2.578,1.313-5.876,2.929-7.884
				c1.435-1.782,3.563-2.916,5.784-3.465c2.221-0.549,4.542-0.551,6.823-0.376c1.669,0.128,3.388,0.344,4.985-0.156
				c1.597-0.5,3.042-1.969,2.881-3.635l0.781,1.506l-19.205-42.057c0,0,0,0-0.001,0l-42.683,19.491c0,0,0,0.001,0,0.001
				c0.869,1.04,2.027,1.836,3.127,2.65c1.839,1.361,3.591,2.884,4.91,4.753c1.319,1.869,2.184,4.12,2.102,6.407
				c-0.094,2.577-1.302,5.894-2.95,7.876c-2.493,2.999-6.074,4.356-9.943,4.847c-3.869,0.491-8.055-0.981-10.371-4.119
				c-1.754-2.376-2.321-5.421-2.506-8.369c-0.141-2.253-0.091-4.526-0.301-6.769c0,0,0,0-0.001-0.001l-42.224,19.282l18.572,40.67
				c0,0,0,0,0,0c1.879,0.387,4.552,0.218,5.564-0.407c1.424-0.88,2.386-2.321,3.383-3.666c1.362-1.839,2.884-3.591,4.753-4.91
				c1.869-1.319,4.12-2.185,6.406-2.102c2.577,0.093,5.894,1.302,7.877,2.95c2.999,2.493,4.356,6.074,4.847,9.943
				c0.491,3.869-0.981,8.055-4.119,10.371c-3.271,2.414-7.809,2.581-11.615,2.595c-1.793,0.007-3.583,0.143-5.35,0.449
				c-0.984,0.17-2.039,0.42-2.758,1.129c-0.445,0.44-0.697,1.104-0.636,1.71c0.029,0.294,0.126,0.575,0.321,0.808l18.424,40.466
				c0,0,0,0,0,0l48.138-21.982c0,0,0,0,0,0c0.233-1.135-0.108-2.439-0.796-3.413c-1.005-1.423-2.563-2.33-4.024-3.279
				c-1.997-1.297-3.914-2.766-5.404-4.623c-1.49-1.857-2.533-4.14-2.593-6.52c-0.068-2.682,0.975-6.205,2.56-8.37
				c2.398-3.275,6.03-4.913,10.018-5.671c3.987-0.757,8.429,0.504,11.035,3.615c2.716,3.242,3.18,7.944,3.439,11.896
				c0.122,1.862,0.378,3.714,0.809,5.53c0.24,1.011,0.566,2.092,1.35,2.793c0.147,0.131,0.317,0.238,0.496,0.328l35.813-16.354
				c0,0,0,0,0-0.001L616.635,226.872z"/>
		</g>
		<path style="opacity:0.2;enable-background:new    ;" d="M521.268,270.832l20.576,41.247l-6.76,3.087l-19.961-42.439
			C515.122,272.727,519.198,271.007,521.268,270.832z"/>
		<g>
			<g>
				<path style="fill:#263238;" d="M630.912,170.316c-0.034,0.889-0.567,1.628-1.191,1.652c-0.623,0.024-1.101-0.677-1.067-1.566
					c0.034-0.889,0.567-1.629,1.191-1.652C630.469,168.726,630.946,169.427,630.912,170.316z"/>
				<path style="fill:#263238;" d="M632.671,166.123c-0.121,0.004-0.241-0.04-0.328-0.133c-1.354-1.46-3.031-1.111-3.051-1.107
					c-0.249,0.052-0.484-0.104-0.521-0.356c-0.036-0.252,0.138-0.501,0.39-0.556c0.088-0.019,2.192-0.459,3.873,1.354
					c0.167,0.181,0.148,0.476-0.042,0.661C632.9,166.073,632.784,166.119,632.671,166.123z"/>
				<path style="fill:#263238;" d="M618.558,163.839c-0.109-0.039-0.2-0.117-0.249-0.226c-0.102-0.224,0.013-0.494,0.254-0.602
					c2.426-1.082,4.26-0.026,4.337,0.02c0.218,0.129,0.275,0.406,0.127,0.619c-0.147,0.213-0.442,0.281-0.66,0.153
					c-0.071-0.042-1.506-0.841-3.435,0.02C618.807,163.879,618.673,163.881,618.558,163.839z"/>
				<path style="fill:#FE7F3A;" d="M623.648,168.457c0,0-1.716,3.445-3.532,5.543c-0.318,0.367-0.174,0.942,0.269,1.139
					c1.14,0.508,2.534,0.209,2.534,0.209L623.648,168.457z"/>
				<path style="fill:#263238;" d="M630.077,168.729l-2.186-0.477C627.891,168.252,629.414,169.861,630.077,168.729z"/>
				<path style="fill:#263238;" d="M621.795,169.244c-0.034,0.889-0.567,1.628-1.191,1.652c-0.623,0.024-1.101-0.677-1.067-1.566
					c0.034-0.889,0.567-1.629,1.191-1.652C621.351,167.654,621.829,168.355,621.795,169.244z"/>
				<path style="fill:#263238;" d="M620.82,167.69l-2.186-0.477C618.634,167.213,620.157,168.822,620.82,167.69z"/>
				
					<path style="opacity:0.2;fill:none;stroke:#000000;stroke-width:0.5;stroke-linecap:round;stroke-linejoin:round;stroke-miterlimit:10;" d="
					M641.842,171.618c0.812-0.284,1.63,0.272,1.874,0.943c0.295,0.813-0.203,2.665-2.681,3.177"/>
			</g>
			<g>
				<path style="fill:#263238;" d="M622.847,178.272c0.696,1.068,1.533,3.137,1.533,3.137c0.201-0.042,0.402-0.084,0.601-0.136
					c2.714-0.639,3.762-1.832,4.1-2.961c0.183-0.618,0.146-1.223,0.053-1.701c-0.102-0.554-0.3-0.926-0.3-0.926
					c-1.237,1.198-3.72,1.988-5.065,2.355C623.207,178.199,622.847,178.272,622.847,178.272z"/>
				<path style="fill:#FFFFFF;" d="M623.768,178.04l0.476,0.913c2.555-0.608,4.272-1.379,4.889-2.342
					c-0.102-0.554-0.3-0.926-0.3-0.926C627.597,176.883,625.113,177.673,623.768,178.04z"/>
				<path style="fill:#D7504D;" d="M624.98,181.272c2.714-0.639,3.762-1.832,4.1-2.961c-0.916,0.253-1.993,0.661-2.873,1.307
					C625.533,180.109,625.177,180.706,624.98,181.272z"/>
			</g>
		</g>
		<path style="fill:#FDAC6D;" d="M656.383,208.99c1.599,5.201,3.017,10.403,4.278,15.669c0.637,2.601,1.235,5.305,1.768,8.023
			c0.26,1.365,0.533,2.731,0.741,4.174c0.104,0.728,0.208,1.456,0.286,2.25c0,0.403,0.078,0.819,0.104,1.3c0,0.208,0,0.481,0,0.78
			v0.429c0.012,0.217,0.012,0.434,0,0.65c-0.155,1.65-0.773,3.223-1.781,4.538c-0.74,0.933-1.617,1.748-2.601,2.419
			c-1.454,0.986-3.027,1.786-4.681,2.38c-2.787,0.99-5.66,1.717-8.582,2.172c-5.498,0.882-11.065,1.257-16.631,1.118
			c-1.623-0.039-2.906-1.386-2.867-3.009c0.032-1.338,2.088-5.141,3.392-5.445l-1.032,2.655c5.084-1.131,10.26-2.406,15.097-3.901
			c2.313-0.694,4.569-1.563,6.749-2.601c0.838-0.395,1.62-0.898,2.328-1.495c0.234-0.221,0.351-0.416,0.299-0.39
			c-0.201,0.234-0.324,0.525-0.351,0.832v0.156v-0.078v-0.234l-0.117-0.702c-0.104-0.533-0.234-1.118-0.377-1.703l-0.923-3.693
			c-0.676-2.51-1.391-5.045-2.107-7.581c-1.443-5.084-2.9-10.221-4.304-15.318l0,0c-0.879-3.14,0.953-6.398,4.092-7.277
			c3.099-0.868,6.321,0.905,7.247,3.987L656.383,208.99z"/>
		<path style="fill:#407BFF;" d="M645.824,197.794c6.359,0.975,13.485,7.581,18.673,20.35
			c-6.008,10.403-14.941,11.703-14.941,11.703S637.086,212.579,645.824,197.794z"/>
		<path style="opacity:0.8;fill:#FFFFFF;enable-background:new    ;" d="M645.824,197.794c6.359,0.975,13.485,7.581,18.673,20.35
			c-6.008,10.403-14.941,11.703-14.941,11.703S637.086,212.579,645.824,197.794z"/>
		<path style="opacity:0.2;enable-background:new    ;" d="M612.015,254.191c0,0,3.139,2.69,8.051,3.664
			c4.911,0.974,10.178-1.182,10.178-1.182l-1.175-2.95l-10.64,1.52L612.015,254.191z"/>
		<g>
			<g>
				<g>
					<g>
						<g>
							<g>
								<g>
									<path style="fill:#FDAC6D;" d="M631.752,248.272c0,0-0.635-3.189-2.888-4.655c-2.253-1.467-3.661-3.237-5.412-4.212
										c-1.75-0.975-0.822,1.565-0.056,2.816c0.767,1.251,1.624,2.677,0.591,3.101c-1.033,0.424-10.554-0.831-11.919-0.08
										c-1.365,0.751,0.111,1.436,0.111,1.436s-2.321-0.243-2.667,0.651c-0.09,0.232,0.077,0.917,1.117,1.194
										c2.34,0.622,7.319,1.673,7.319,1.673c-0.285-0.066-6.522-0.925-7.473-0.932c-1.243-0.009-1.834,0.621-1.815,1.342
										c0.026,1.026,7.724,2.355,8.009,2.637c0,0-4.406-0.913-5.264,0.095c-0.858,1.008,1.884,1.734,4.423,1.915
										c2.328,0.166,6.852,1.101,9.235,1.04c2.936-0.075,4.891-0.785,5.966-3.321
										C632.103,250.436,631.752,248.272,631.752,248.272z"/>
								</g>
							</g>
						</g>
					</g>
				</g>
			</g>
		</g>
		<path style="opacity:0.2;enable-background:new    ;" d="M507.081,207.092c0.462,0.978,9.853,44.664,9.853,44.664
			s-1.353,3.083-4.926,4.54l-10.908-46.473L507.081,207.092z"/>
	</g>
</g>
<g id="Character_1">
	<g>
		<path style="fill:#407BFF;" d="M151.665,169.795c0,0,3.887,2.076,6.712,11.523c2.825,9.447,4.024,22.552,8.757,23.748
			c4.734,1.196,17.29-10.103,17.29-10.103s9.053,5.928,8.66,6.113c-0.394,0.185-15.84,16.976-25.95,18.811
			c-10.11,1.834-20.146-18.811-20.146-18.811L151.665,169.795z"/>
		<path style="opacity:0.5;fill:#FFFFFF;enable-background:new    ;" d="M151.665,169.795c0,0,3.887,2.076,6.712,11.523
			c2.825,9.447,4.024,22.552,8.757,23.748c4.734,1.196,17.29-10.103,17.29-10.103s9.053,5.928,8.66,6.113
			c-0.394,0.185-15.84,16.976-25.95,18.811c-10.11,1.834-20.146-18.811-20.146-18.811L151.665,169.795z"/>
		<path style="opacity:0.2;enable-background:new    ;" d="M153.888,211.833c-0.537-0.637-1.046-1.285-1.556-1.921
			c-1.677-2.206-3.22-4.51-4.623-6.9c-0.895-1.527-1.751-3.05-2.551-4.596l6.195-17.875
			C151.354,180.541,156.323,198.026,153.888,211.833z"/>
	</g>
	<g>
		<g>
			<path style="fill:#407BFF;" d="M308.984,264.51c-1.171-2.43-3.802-5.021-6.213-6.23c-2.14-1.072-4.658-1.227-7.009-0.784
				c-2.352,0.443-4.562,1.449-6.656,2.607c-1.223,0.676-4.505,1.369-6.664,1.732v-48.994h-48.558
				c0.775-2.226,1.81-4.367,2.655-6.573c1.105-2.885,1.888-6.029,1.252-9.052c-0.84-3.993-4.184-7.212-8.079-8.426
				c-3.895-1.214-7.892-1.479-11.568,0.292c-2.43,1.171-5.021,3.802-6.23,6.213c-1.072,2.139-1.227,4.657-0.784,7.009
				c0.443,2.352,1.449,4.562,2.607,6.656c0.693,1.253,1.449,2.514,1.824,3.881h-49.086v115.967h115.967v-49.341
				c0.236,0.042,0.47,0.095,0.699,0.152c2.998,0.746,5.772,2.181,8.656,3.285c2.885,1.105,6.029,1.888,9.052,1.252
				c3.993-0.84,7.212-4.183,8.426-8.079C310.491,272.182,310.755,268.186,308.984,264.51z"/>
		</g>
		<rect x="282.087" y="328.754" style="fill:#407BFF;" width="115.967" height="115.967"/>
		<g>
			<g>
				<path style="fill:#407BFF;" d="M397.888,212.771h-48.976c-0.298,0.741-0.404,1.584-0.305,2.371
					c0.218,1.737,1.171,3.279,2.018,4.812c1.158,2.094,2.164,4.305,2.607,6.656c0.443,2.352,0.288,4.87-0.784,7.009
					c-1.209,2.411-3.8,5.043-6.23,6.213c-3.676,1.771-7.673,1.506-11.568,0.292c-3.895-1.215-7.238-4.434-8.079-8.426
					c-0.636-3.023,0.147-6.167,1.252-9.052c1.105-2.885,2.54-5.659,3.286-8.657c0.099-0.398,0.182-0.808,0.223-1.218h-49.412
					v115.967h48.559c-0.775,2.226-1.81,4.367-2.655,6.573c-1.105,2.885-1.888,6.029-1.252,9.052c0.84,3.992,4.184,7.212,8.079,8.426
					c3.895,1.215,7.892,1.479,11.568-0.292c2.43-1.171,5.021-3.802,6.23-6.213c1.072-2.139,1.227-4.658,0.784-7.009
					c-0.443-2.352-1.449-4.562-2.607-6.656c-0.693-1.253-1.449-2.514-1.824-3.881h49.086V212.771z"/>
			</g>
			<g style="opacity:0.2;enable-background:new    ;">
				<path d="M397.888,212.771h-48.976c-0.298,0.741-0.404,1.584-0.305,2.371c0.218,1.737,1.171,3.279,2.018,4.812
					c1.158,2.094,2.164,4.305,2.607,6.656c0.443,2.352,0.288,4.87-0.784,7.009c-1.209,2.411-3.8,5.043-6.23,6.213
					c-3.676,1.771-7.673,1.506-11.568,0.292c-3.895-1.215-7.238-4.434-8.079-8.426c-0.636-3.023,0.147-6.167,1.252-9.052
					c1.105-2.885,2.54-5.659,3.286-8.657c0.099-0.398,0.182-0.808,0.223-1.218h-49.412v115.967h48.559
					c-0.775,2.226-1.81,4.367-2.655,6.573c-1.105,2.885-1.888,6.029-1.252,9.052c0.84,3.992,4.184,7.212,8.079,8.426
					c3.895,1.215,7.892,1.479,11.568-0.292c2.43-1.171,5.021-3.802,6.23-6.213c1.072-2.139,1.227-4.658,0.784-7.009
					c-0.443-2.352-1.449-4.562-2.607-6.656c-0.693-1.253-1.449-2.514-1.824-3.881h49.086V212.771z"/>
			</g>
		</g>
		<g>
			<g>
				<path style="fill:#407BFF;" d="M310.544,153.094c-1.171-2.43-3.802-5.021-6.213-6.23c-2.139-1.072-4.657-1.227-7.009-0.784
					c-2.352,0.443-4.562,1.449-6.656,2.607c-1.532,0.847-3.074,1.8-4.812,2.018c-1.193,0.15-2.515-0.166-3.412-0.915V96.804h-94.599
					c-11.801,0-21.368,9.567-21.368,21.368v94.599h115.967v-44.778c0.742-0.107,1.522,0.027,2.259,0.211
					c2.998,0.746,5.771,2.181,8.656,3.286c2.885,1.105,6.029,1.888,9.052,1.252c3.993-0.84,7.212-4.183,8.426-8.079
					C312.05,160.767,312.315,156.77,310.544,153.094z"/>
			</g>
			<g style="opacity:0.2;enable-background:new    ;">
				<path d="M310.544,153.094c-1.171-2.43-3.802-5.021-6.213-6.23c-2.139-1.072-4.657-1.227-7.009-0.784
					c-2.352,0.443-4.562,1.449-6.656,2.607c-1.532,0.847-3.074,1.8-4.812,2.018c-1.193,0.15-2.515-0.166-3.412-0.915V96.804h-94.599
					c-11.801,0-21.368,9.567-21.368,21.368v94.599h115.967v-44.778c0.742-0.107,1.522,0.027,2.259,0.211
					c2.998,0.746,5.771,2.181,8.656,3.286c2.885,1.105,6.029,1.888,9.052,1.252c3.993-0.84,7.212-4.183,8.426-8.079
					C312.05,160.767,312.315,156.77,310.544,153.094z"/>
			</g>
		</g>
		<g>
			<g>
				<path style="fill:#407BFF;" d="M310.544,380.423c-1.171-2.43-3.802-5.021-6.213-6.23c-2.139-1.072-4.657-1.227-7.009-0.784
					c-2.352,0.443-4.562,1.449-6.656,2.607c-1.532,0.847-3.074,1.8-4.812,2.018c-1.193,0.15-2.515-0.166-3.412-0.915v-48.366
					h-49.184c0.747-2.992,2.178-5.76,3.281-8.64c1.105-2.885,1.888-6.029,1.252-9.052c-0.84-3.992-4.184-7.212-8.079-8.426
					c-3.895-1.214-7.892-1.479-11.568,0.291c-2.43,1.171-5.021,3.802-6.23,6.213c-1.072,2.139-1.227,4.658-0.784,7.009
					c0.443,2.352,1.449,4.562,2.607,6.656c0.847,1.532,1.8,3.074,2.018,4.812c0.047,0.372,0.045,0.756,0.003,1.137h-49.283v94.599
					c0,11.801,9.567,21.368,21.368,21.368h94.599v-49.4c0.742-0.107,1.522,0.027,2.259,0.211c2.998,0.746,5.771,2.181,8.656,3.286
					c2.885,1.105,6.029,1.888,9.052,1.252c3.993-0.84,7.212-4.184,8.426-8.079C312.05,388.095,312.315,384.098,310.544,380.423z"/>
			</g>
			<g style="opacity:0.2;enable-background:new    ;">
				<path d="M310.544,380.423c-1.171-2.43-3.802-5.021-6.213-6.23c-2.139-1.072-4.657-1.227-7.009-0.784
					c-2.352,0.443-4.562,1.449-6.656,2.607c-1.532,0.847-3.074,1.8-4.812,2.018c-1.193,0.15-2.515-0.166-3.412-0.915v-48.366
					h-49.184c0.747-2.992,2.178-5.76,3.281-8.64c1.105-2.885,1.888-6.029,1.252-9.052c-0.84-3.992-4.184-7.212-8.079-8.426
					c-3.895-1.214-7.892-1.479-11.568,0.291c-2.43,1.171-5.021,3.802-6.23,6.213c-1.072,2.139-1.227,4.658-0.784,7.009
					c0.443,2.352,1.449,4.562,2.607,6.656c0.847,1.532,1.8,3.074,2.018,4.812c0.047,0.372,0.045,0.756,0.003,1.137h-49.283v94.599
					c0,11.801,9.567,21.368,21.368,21.368h94.599v-49.4c0.742-0.107,1.522,0.027,2.259,0.211c2.998,0.746,5.771,2.181,8.656,3.286
					c2.885,1.105,6.029,1.888,9.052,1.252c3.993-0.84,7.212-4.184,8.426-8.079C312.05,388.095,312.315,384.098,310.544,380.423z"/>
			</g>
		</g>
		<g>
			<g>
				<path style="fill:#407BFF;" d="M464.509,328.755c-0.043-0.38-0.044-0.765,0.002-1.137c0.218-1.737,1.171-3.279,2.018-4.812
					c1.158-2.095,2.164-4.305,2.607-6.656c0.443-2.352,0.288-4.87-0.784-7.009c-1.209-2.411-3.8-5.043-6.23-6.213
					c-3.676-1.771-7.673-1.506-11.568-0.292c-3.895,1.215-7.238,4.434-8.079,8.426c-0.636,3.023,0.147,6.167,1.252,9.052
					c1.103,2.88,2.534,5.649,3.281,8.64h-49.184v48.366c-0.897,0.749-2.219,1.065-3.412,0.915c-1.737-0.218-3.279-1.171-4.812-2.018
					c-2.094-1.158-4.305-2.164-6.657-2.607c-2.352-0.443-4.87-0.288-7.009,0.784c-2.411,1.209-5.043,3.8-6.213,6.23
					c-1.771,3.676-1.506,7.673-0.292,11.568c1.215,3.895,4.434,7.238,8.426,8.079c3.023,0.636,6.167-0.147,9.052-1.252
					c2.885-1.105,5.659-2.54,8.657-3.285c0.737-0.183,1.517-0.318,2.259-0.211v49.4h94.599c11.801,0,21.368-9.567,21.368-21.368
					v-94.599H464.509z"/>
			</g>
			<g style="opacity:0.2;enable-background:new    ;">
				<path d="M464.509,328.755c-0.043-0.38-0.044-0.765,0.002-1.137c0.218-1.737,1.171-3.279,2.018-4.812
					c1.158-2.095,2.164-4.305,2.607-6.656c0.443-2.352,0.288-4.87-0.784-7.009c-1.209-2.411-3.8-5.043-6.23-6.213
					c-3.676-1.771-7.673-1.506-11.568-0.292c-3.895,1.215-7.238,4.434-8.079,8.426c-0.636,3.023,0.147,6.167,1.252,9.052
					c1.103,2.88,2.534,5.649,3.281,8.64h-49.184v48.366c-0.897,0.749-2.219,1.065-3.412,0.915c-1.737-0.218-3.279-1.171-4.812-2.018
					c-2.094-1.158-4.305-2.164-6.657-2.607c-2.352-0.443-4.87-0.288-7.009,0.784c-2.411,1.209-5.043,3.8-6.213,6.23
					c-1.771,3.676-1.506,7.673-0.292,11.568c1.215,3.895,4.434,7.238,8.426,8.079c3.023,0.636,6.167-0.147,9.052-1.252
					c2.885-1.105,5.659-2.54,8.657-3.285c0.737-0.183,1.517-0.318,2.259-0.211v49.4h94.599c11.801,0,21.368-9.567,21.368-21.368
					v-94.599H464.509z"/>
			</g>
		</g>
		<g style="opacity:0.1;enable-background:new    ;">
			<path style="fill:#FFFFFF;" d="M166.481,380.502c34.222,2.093,68.682-1.228,101.365-11.591c7.471-2.369,14.962-5.115,21.268-9.77
				c6.306-4.655,11.366-11.499,12.277-19.284c0.897-7.67-2.239-15.304-1.932-23.021c0.566-14.194,12.475-25.361,24.924-32.204
				c12.449-6.843,26.454-11.223,37.251-20.455c13.893-11.878,20.715-31.472,17.203-49.41l-1.226-1.995h17.183
				c0,0,3.602,41.456-36.057,63.913c-39.659,22.457-46.587,25.802-46.348,41.092c0.239,15.29,20.785,34.881-6.212,53.755
				c-26.997,18.874-126.403,17.154-139.702,43.706L166.481,380.502z"/>
		</g>
		<g style="opacity:0.1;enable-background:new    ;">
			<path style="fill:#FFFFFF;" d="M281.958,126.846c-13.288,5.121-26.421,8.128-39.217,14.395
				c-12.796,6.268-24.701,16.303-28.896,30.017c-6.927,22.647,8.793,48.001,0.838,70.302c-3.42,9.588-10.958,17.279-19.659,22.452
				c-8.701,5.173-18.547,8.051-28.409,10.245l-0.14,22.64c9.862-2.194,24.967-12.239,33.668-17.412
				c8.701-5.173,16.239-12.864,19.659-22.452c7.955-22.301-6.259-57.949,0.668-80.596c4.195-13.714,13.816-18.427,26.612-24.695
				c12.796-6.268,21.418-3.572,34.876-3.567V126.846z"/>
		</g>
		<g style="opacity:0.1;enable-background:new    ;">
			<path style="fill:#FFFFFF;" d="M480.155,328.528c6.226,6.798,5.862,17.313,3.698,26.274
				c-6.403,26.516-25.887,49.536-50.98,60.233c-9.162,3.906-18.936,6.234-28.078,10.184c-9.142,3.95-17.945,9.907-22.442,18.793
				l35.915,0.934c1.812-13.246,12.831-21.616,24.472-28.191c11.641-6.574,24.598-11.273,34.416-20.348
				c8.909-8.235,14.542-19.556,17.564-31.305c3.022-11.749,3.59-23.986,3.59-36.117L480.155,328.528z"/>
		</g>
	</g>
	<g>
		<g>
			<polygon style="fill:#DE7F72;" points="142.527,441.707 151.527,439.967 150.106,418.713 141.107,420.453 			"/>
			<polygon style="opacity:0.2;enable-background:new    ;" points="150.305,421.401 151.161,434.105 142.031,434.105 
				141.293,423.141 			"/>
			<path style="fill:#263238;" d="M152.23,438.162l-10.018,0.233c-0.372,0.015-0.687,0.279-0.767,0.642l-1.688,8.167
				c-0.152,0.715,0.303,1.418,1.018,1.57c0.123,0.026,0.25,0.035,0.375,0.025c3.61-0.156,8.828-0.487,13.368-0.577
				c5.294-0.122,8.666-0.559,14.886-0.708c3.772-0.083,4.76-3.901,3.184-4.204c-7.201-1.398-11.826-0.815-18.092-4.519
				C153.816,438.371,153.03,438.152,152.23,438.162z"/>
			<path style="fill:#407BFF;" d="M153.005,439.228c-0.017-0.089,0.028-0.178,0.11-0.217c0.414-0.23,4.065-2.189,5.232-1.551
				c0.214,0.111,0.354,0.327,0.369,0.567c0.057,0.398-0.09,0.798-0.391,1.063c-0.994,0.904-3.616,0.62-5.098,0.352l0,0
				C153.116,439.423,153.028,439.338,153.005,439.228z M153.9,439.083c2.026,0.284,3.544,0.165,4.092-0.349
				c0.202-0.172,0.296-0.439,0.248-0.699c0.005-0.096-0.045-0.186-0.129-0.233l-0.079,0.003
				C157.331,437.558,155.378,438.357,153.9,439.083L153.9,439.083z"/>
			<path style="fill:#407BFF;" d="M153.091,439.37c-0.062-0.044-0.096-0.119-0.088-0.195c0.077-1.295,0.556-2.533,1.371-3.543
				c0.326-0.298,0.761-0.446,1.201-0.41c0.598,0.054,0.77,0.351,0.82,0.587c0.177,1.039-1.987,3.066-3.078,3.577
				c-0.055,0.022-0.115,0.024-0.172,0.007L153.091,439.37z M155.58,435.659c-0.323-0.03-0.645,0.075-0.888,0.29
				c-0.684,0.803-1.104,1.797-1.202,2.847c1.122-0.698,2.551-2.283,2.524-2.904c0,0-0.006-0.132-0.207-0.19L155.58,435.659z"/>
		</g>
		<g>
			<polygon style="fill:#DE7F72;" points="75.621,439.527 84.444,441.931 92.521,422.164 83.685,419.759 			"/>
			<polygon style="opacity:0.2;enable-background:new    ;" points="82.206,423.5 91.042,425.906 86.877,436.099 78.041,433.694 			
				"/>
			<path style="fill:#263238;" d="M84.231,439.291l-10.025-0.852c-0.371-0.025-0.713,0.203-0.832,0.556l-2.572,7.936
				c-0.229,0.694,0.149,1.442,0.843,1.671c0.12,0.039,0.244,0.062,0.37,0.066c3.606,0.235,8.829,0.469,13.353,0.869
				c5.276,0.449,8.676,0.379,14.876,0.902c3.759,0.324,5.153-3.365,3.605-3.837c-6.995-2.166-11.669-2.086-17.486-6.443
				C85.746,439.68,85.008,439.379,84.231,439.291z"/>
			<path style="fill:#407BFF;" d="M84.886,440.435c-0.007-0.09,0.047-0.174,0.133-0.204c0.436-0.184,4.278-1.738,5.369-0.977
				c0.2,0.134,0.316,0.363,0.306,0.604c-0.007,0.397-0.192,0.769-0.504,1.015c-1.086,0.791-3.675,0.225-5.12-0.201l0,0
				C84.954,440.658,84.871,440.552,84.886,440.435C84.886,440.435,84.886,440.435,84.886,440.435z M85.791,440.388
				c1.983,0.501,3.493,0.546,4.105,0.095c0.21-0.157,0.33-0.407,0.322-0.669c0.017-0.098-0.03-0.197-0.117-0.246l-0.079-0.005
				C89.367,439.241,87.3,439.823,85.791,440.388L85.791,440.388z"/>
			<path style="fill:#407BFF;" d="M84.956,440.585c-0.063-0.047-0.09-0.128-0.066-0.203c0.216-1.279,0.826-2.459,1.745-3.375
				c0.351-0.26,0.796-0.361,1.225-0.278c0.589,0.118,0.741,0.433,0.752,0.672c0.077,1.053-2.293,2.835-3.446,3.224
				c-0.052,0.016-0.109,0.012-0.158-0.01L84.956,440.585z M87.831,437.165c-0.314-0.064-0.641,0.006-0.901,0.193
				c-0.758,0.731-1.281,1.671-1.502,2.701c1.191-0.572,2.782-1.994,2.823-2.615c0,0,0.009-0.132-0.185-0.211
				c-0.09-0.041-0.188-0.066-0.287-0.072L87.831,437.165z"/>
		</g>
		<path style="fill:#263238;" d="M156.076,430.067L138.589,431c0,0-3.383-51.387-5.007-79.839
			c-0.904-11.327-2.461-22.592-4.661-33.739c-3.009-16.31-6.91-33.96-10.116-47.785c-3.384-14.559-6.003-24.911-6.003-24.911
			l32.185-1.388c0,0,12.906,72.239,13.949,100.08C159.966,372.556,156.076,430.067,156.076,430.067z"/>
		<path style="opacity:0.2;enable-background:new    ;" d="M128.92,317.421c-3.009-16.31-6.91-33.96-10.116-47.785l3.603-7.071
			C129.939,272.242,130.992,301.567,128.92,317.421z"/>
		<path style="fill:#263238;" d="M127.56,244.141c0,0-6.835,78.933-10.71,105.502c-4.242,29.103-25.009,84.116-25.009,84.116
			l-18.411-2.916c0,0,14.775-50.276,17.135-79.39c2.017-24.794,4.1-73.237,4.978-94.962c0.223-6.225,5.204-11.226,11.428-11.475
			L127.56,244.141z"/>
		<path style="fill:#407BFF;" d="M100.389,165.827c1.199,10.143,1.64,20.362,1.319,30.572c-0.182,7.135-0.725,13.902-1.256,20.018
			c-1.356,14.326-3.287,25.14-3.405,28.868l49.525,3.074c3.742-35.566,4.964-78.578,4.964-78.578
			c-3.721-1.247-7.517-2.26-11.365-3.034c-0.816-0.177-1.643-0.313-2.483-0.449c-6.894-0.874-13.832-1.348-20.781-1.422
			c-1.326-0.022-2.65-0.018-3.974,0.012C106.33,165.041,100.389,165.827,100.389,165.827z"/>
		<path style="opacity:0.5;fill:#FFFFFF;enable-background:new    ;" d="M100.389,165.827c1.199,10.143,1.64,20.362,1.319,30.572
			c-0.182,7.135-0.725,13.902-1.256,20.018c-1.356,14.326-3.287,25.14-3.405,28.868l49.525,3.074
			c3.742-35.566,4.964-78.578,4.964-78.578c-3.721-1.247-7.517-2.26-11.365-3.034c-0.816-0.177-1.643-0.313-2.483-0.449
			c-6.894-0.874-13.832-1.348-20.781-1.422c-1.326-0.022-2.65-0.018-3.974,0.012C106.33,165.041,100.389,165.827,100.389,165.827z"
			/>
		<path style="fill:#DE7F72;" d="M132.451,172.327c-6.015-0.103-11.686-2.824-15.53-7.451c5.026-4.191,4.669-16.443,3.887-23.205
			l2.089,2.056l9.811,9.698c-0.564,1.528-0.94,3.119-1.12,4.738c-0.262,3.456,1.012,6.58,6.061,8.138
			C138.808,168.595,138.212,172.595,132.451,172.327z"/>
		<path style="opacity:0.2;enable-background:new    ;" d="M132.708,153.424c-0.564,1.528-0.94,3.119-1.12,4.738
			c-5.224,1.736-9.777-3.698-10.024-9.411c-0.086-1.983,0.998-3.885,1.281-5.01L132.708,153.424z"/>
		<path style="fill:#263238;" d="M145.94,128.478c1.145,3.514,0.623,10.757-4.325,8.453
			C136.667,134.627,143.971,122.469,145.94,128.478z"/>
		<path style="fill:#DE7F72;" d="M120.616,133.518c-0.43,9.067-1.156,14.357,2.892,19.429c6.094,7.686,17.7,4.641,20.846-4.132
			c2.825-7.898,3.051-21.394-5.368-25.866c-6.111-3.235-13.688-0.904-16.924,5.207C121.184,129.813,120.69,131.645,120.616,133.518z
			"/>
		<path style="fill:#263238;" d="M142.479,130.548c6.321-0.273,11.21-6.697,3.439-12.416c-1.825-1.243-3.85-2.164-5.986-2.722
			c0,0,1.6,2.382-0.101,4.111c-1.474-3.759-5.247-6.098-9.27-5.747c1.026,1.969-0.388,6.058-3.383,4.796
			c-4.546-1.897-11.224-1-10.661,4.673c-5.937,3.025-3.008,12.265,5.054,16.726c4.351-3.553,3.747-12.018,3.747-12.018
			C129.608,129.779,136.763,130.728,142.479,130.548z"/>
		<path style="fill:#263238;" d="M117.74,123.985c0,0-3.582-2.27-0.651-5.271C113.149,119.824,114.238,122.957,117.74,123.985z"/>
		<path style="fill:#263238;" d="M118.257,124.903c0,0-3.219-2.762-5.26,0.916C112.928,121.755,116.258,121.876,118.257,124.903z"/>
		<path style="fill:#DE7F72;" d="M116.326,140.645c0.454,2.228,1.778,4.184,3.679,5.432c2.534,1.626,4.724-0.442,4.772-3.306
			c0.061-2.573-1.198-6.572-4.117-7.003c-2.177-0.262-4.155,1.291-4.417,3.468C116.186,139.707,116.215,140.184,116.326,140.645z"/>
		<path style="fill:#263238;" d="M97.981,237.137c0,0-4.546,13.165-3.346,40.973l17.132,5.593l12.248-18.559l22.836-0.376
			l-0.463-15.043l0.337-4.15L97.981,237.137z"/>
		<g>
			<g>
				<g>
					<path style="fill:#263238;" d="M133.643,137.816c-0.105,0.928,0.303,1.732,0.911,1.795c0.608,0.063,1.187-0.639,1.292-1.567
						c0.105-0.928-0.302-1.731-0.911-1.794C134.326,136.187,133.748,136.888,133.643,137.816z"/>
					<path style="fill:#263238;" d="M142.725,139.03c-0.106,0.928,0.302,1.731,0.91,1.794c0.608,0.063,1.187-0.638,1.292-1.567
						c0.105-0.928-0.302-1.732-0.911-1.794C143.408,137.4,142.83,138.102,142.725,139.03z"/>
					<path style="fill:#D7504D;" d="M139.822,138.179c0,0,2.415,4.945,3.144,6.93c-1.424,1.02-3.588,0.23-3.588,0.23
						L139.822,138.179z"/>
					<path style="fill:#263238;" d="M131.87,133.184c0.134,0.073,0.303,0.074,0.443-0.012c1.67-1.022,3.137-0.359,3.152-0.352
						c0.219,0.102,0.481,0.008,0.585-0.209c0.104-0.218,0.01-0.477-0.208-0.579c-0.077-0.036-1.916-0.868-3.987,0.4
						c-0.207,0.127-0.272,0.395-0.146,0.599C131.75,133.098,131.806,133.149,131.87,133.184z"/>
				</g>
				<path style="fill:#263238;" d="M147.185,135.568c0.083-0.008,0.164-0.04,0.233-0.097c0.188-0.153,0.218-0.429,0.066-0.616
					c-1.516-1.875-3.515-1.662-3.605-1.664c-0.24,0.027-0.415,0.243-0.391,0.483c0.024,0.239,0.236,0.412,0.474,0.388
					c0.083-0.012,1.625-0.156,2.842,1.349C146.9,135.528,147.045,135.582,147.185,135.568z"/>
			</g>
		</g>
		<path style="fill:#407BFF;" d="M114.809,164.877l4.57-4.923c0.047-0.132,11.053,6.236,11.053,6.236
			c0.227,0.003,2.149-4.168,2.149-4.168l7.582,4.74c0,0-5.132,7.707-5.381,7.789c-0.248,0.083-9.351-0.993-9.351-0.993
			L114.809,164.877z"/>
		<path style="opacity:0.5;fill:#FFFFFF;enable-background:new    ;" d="M114.818,164.877l4.57-4.923
			c0.047-0.132,11.053,6.236,11.053,6.236c0.227,0.003,2.149-4.168,2.149-4.168l7.582,4.74c0,0-5.132,7.707-5.381,7.789
			c-0.248,0.083-9.351-0.993-9.351-0.993L114.818,164.877z"/>
		<path style="fill:#407BFF;" d="M133.44,173.744c1.143,4.595,5.03,45.416,5.914,57.225l-5.632,6.168l-5.407-6.506
			c0.099-11.297,3.408-50.854,2.292-56.689L133.44,173.744z"/>
		<polygon style="fill:#407BFF;" points="130.869,174.555 133.407,174.449 134.213,170.679 130.366,167.931 127.897,171.738 		"/>
		<path style="opacity:0.2;enable-background:new    ;" d="M100.094,220.002c0,0,0.088,6.292,17.612,9.414
			c17.524,3.122,30.426,2.102,30.422,2.147c-0.004,0.044,1.504-7.421,1.504-7.421l-49.136-12.309L100.094,220.002z"/>
		<path style="opacity:0.2;enable-background:new    ;" d="M110.369,178.975c0,0,5.594,26.723,10.842,28.799
			c5.248,2.077,28.062,8.26,28.062,8.26l-0.491,7.053l-24.49-5.292c0,0-14.006-10.226-13.923-11.184
			C110.452,205.652,110.369,178.975,110.369,178.975z"/>
		<g style="opacity:0.2;">
			<g>
				<path d="M118.562,138.918c0.426-0.178,0.885-0.214,1.316-0.029c0.376,0.161,0.693,0.452,0.906,0.799
					c0.238,0.385,0.369,0.834,0.405,1.284c0.032,0.398,0.033,0.884-0.231,1.213c-0.127,0.158-0.154,0.376,0,0.53
					c0.131,0.131,0.403,0.159,0.53,0c0.378-0.47,0.49-1.048,0.458-1.642c-0.033-0.615-0.188-1.236-0.514-1.764
					c-0.638-1.034-1.906-1.599-3.069-1.114c-0.187,0.078-0.32,0.248-0.262,0.461C118.15,138.832,118.374,138.996,118.562,138.918
					L118.562,138.918z"/>
			</g>
		</g>
		<path style="opacity:0.2;enable-background:new    ;" d="M114.818,164.877c0,0,10.986,11.288,11.03,11.157
			c0.043-0.13,4.518-8.103,4.518-8.103l-4.257,6.016L114.818,164.877z"/>
		<polygon style="opacity:0.2;enable-background:new    ;" points="130.366,167.931 136.804,172.339 140.173,166.762 
			136.978,173.744 		"/>
		<g>
			<path style="fill:#263238;" d="M138.775,146.915c-0.844,1.041-1.945,3.115-1.945,3.115c-0.206-0.066-0.412-0.132-0.613-0.208
				c-2.769-0.964-3.736-2.325-3.967-3.543c-0.124-0.667-0.02-1.295,0.129-1.785c0.167-0.569,0.415-0.936,0.415-0.936
				c1.163,1.388,3.675,2.485,5.042,3.015C138.406,146.799,138.775,146.915,138.775,146.915z"/>
			<path style="fill:#FFFFFF;" d="M137.836,146.572l-0.597,0.903c-2.606-0.914-4.318-1.907-4.86-2.982
				c0.167-0.569,0.415-0.936,0.415-0.936C133.957,144.945,136.47,146.042,137.836,146.572z"/>
			<path style="fill:#D7504D;" d="M136.217,149.821c-2.769-0.964-3.736-2.325-3.967-3.543c0.931,0.365,2.013,0.908,2.863,1.679
				C135.765,148.545,136.072,149.208,136.217,149.821z"/>
		</g>
		<g>
			<g>
				<path style="fill:#DE7F72;" d="M152.736,220.002c0,0,6.908,0.699,6.708,0.699c-0.2,0,0.004,7.535,0.004,7.535
					s-7.179,0.104-7.288,0C152.052,228.132,152.736,220.002,152.736,220.002z"/>
				<path style="opacity:0.2;enable-background:new    ;" d="M166.475,235.014c0,0,7.896-0.652,10.54-3.769
					c2.644-3.117,1.944-3.95,1.944-3.95l-12.484-0.492V235.014z"/>
				<g>
					<g>
						<g>
							<g>
								<g>
									<g>
										<g>
											<path style="fill:#DE7F72;" d="M157.719,221.537c0,0,1.246-2.926,3.696-3.88c2.45-0.954,4.153-2.368,6.024-2.951
												c1.871-0.583,0.475,1.663-0.51,2.708c-0.985,1.045-2.09,2.239-1.186,2.851c0.904,0.613,10.272,1.314,11.428,2.306
												c1.157,0.992-0.394,1.352-0.394,1.352s2.271,0.232,2.424,1.156c0.04,0.24-0.257,0.863-1.308,0.919
												c-2.365,0.127-7.342,0.139-7.342,0.139c0.286-0.006,6.43,0.418,7.342,0.602c1.192,0.24,1.632,0.961,1.47,1.648
												c-0.23,0.977-7.866,0.71-8.196,0.924c0,0,4.401,0.007,5.021,1.144s-2.151,1.284-4.618,0.95
												c-2.262-0.306-6.781-0.316-9.05-0.85c-2.797-0.659-4.526-1.73-5.048-4.373
												C156.95,223.539,157.719,221.537,157.719,221.537z"/>
										</g>
									</g>
								</g>
							</g>
						</g>
					</g>
				</g>
			</g>
			<path style="fill:#407BFF;" d="M94.191,173.814c0,0-4.264,40.558,15.574,49.032c19.838,8.474,44.641,6.327,44.641,6.327v-9.841
				c0,0-35.586-6.821-37.364-12.521c-1.778-5.7-7.203-31.293-8.746-35.808C107.377,168.315,97.746,159.491,94.191,173.814z"/>
			<path style="opacity:0.5;fill:#FFFFFF;enable-background:new    ;" d="M94.191,173.814c0,0-4.264,40.558,15.574,49.032
				c19.838,8.474,44.641,6.327,44.641,6.327v-9.841c0,0-35.586-6.821-37.364-12.521c-1.778-5.7-7.203-31.293-8.746-35.808
				C107.377,168.315,97.746,159.491,94.191,173.814z"/>
		</g>
		<g style="opacity:0.3;">
			<g>
				<path d="M105.07,167.596c2.955,2.341,4.83,5.881,5.074,9.647c0.019,0.288,0.469,0.29,0.45,0
					c-0.251-3.878-2.157-7.55-5.206-9.965C105.163,167.099,104.842,167.416,105.07,167.596L105.07,167.596z"/>
			</g>
		</g>
	</g>
</g>
<g id="Shadow_2">
	<path style="opacity:0.2;enable-background:new    ;" d="M364.855,212.771c0.717,0,33.034,52.502,33.034,52.502v-52.502H364.855z"
		/>
	<path style="opacity:0.2;enable-background:new    ;" d="M450.555,302.496c0,0,20.072,71.763,18.185,75.654
		c-1.887,3.891-11.873,14.04-12.188,17.463c0,0-12.311-0.908-13.522,0.706c-2.81,3.746-0.404,8.981-0.404,8.981l9.246,0.52
		l-9.762,38.985c0.329-0.224,4.464,0,4.464,0s8.684-38.68,8.913-38.795c0.229-0.115,25.807,0,25.807,0s6.886,27.99,6.542,28.105
		c-0.344,0.115-3.097,10.466-3.097,10.466l10.914-0.243l-2.891-11.829l6.775-27.188h14.254c0,0-0.1-7.901,0-7.801
		c0.1,0.1-23.499,0-23.499,0s-6.356-54.26-6.7-54.604c-0.137-0.137-3.567-6.523-7.646-14.162l-11.438,0
		c-5.309-9.96-2.386-25.968-2.386-25.968S456.52,300.274,450.555,302.496z"/>
</g>
<g id="Character_2">
	<g>
		<path style="fill:#AA524B;" d="M497.406,162.955c-0.143,0.057-0.515,4.322-1.288,4.98s-5.037-6.297-4.952-6.297
			c0.086,0,2.401-1.233,2.42-1.26C493.606,160.352,497.406,162.955,497.406,162.955z"/>
		<g>
			<path style="fill:#407BFF;" d="M441.089,115.064c1.46-2.06,3.727-3.454,6.137-4.209c2.409-0.755,4.966-0.915,7.491-0.877
				c1.847,0.028,3.755,0.15,5.481-0.509c1.726-0.659,3.217-2.375,2.927-4.199l0.962,1.606L440.084,61.85L394.386,86.21
				c1.027,1.087,2.358,1.885,3.624,2.708c2.117,1.375,4.151,2.933,5.73,4.903c1.579,1.97,2.685,4.391,2.749,6.915
				c0.072,2.845-1.035,6.58-2.716,8.876c-2.543,3.473-6.396,5.21-10.625,6.012c-4.229,0.802-8.939-0.535-11.703-3.835
				c-2.093-2.499-2.924-5.814-3.327-9.049c-0.308-2.473-0.407-4.98-0.79-7.437l-45.207,24.099l23.211,43.542
				c2.096,0.3,5.029-0.068,6.101-0.825c1.509-1.065,2.472-2.718,3.478-4.267c1.375-2.117,2.933-4.151,4.903-5.73
				c1.97-1.58,4.391-2.685,6.915-2.749c2.845-0.072,6.58,1.035,8.876,2.716c3.473,2.543,5.21,6.396,6.012,10.625
				c0.803,4.229-0.535,8.939-3.835,11.703c-2.499,2.093-5.815,2.924-9.049,3.327c-3.234,0.403-6.528,0.444-9.689,1.237
				c-0.995,0.25-2.02,0.604-2.705,1.368c-0.461,0.515-0.692,1.263-0.585,1.926c0.052,0.322,0.178,0.625,0.408,0.868l23.034,43.327
				l107.962-57.553l-24.11-45.227c-0.152-0.008-0.303-0.006-0.452,0.014c-1.016,0.142-1.881,0.796-2.643,1.483
				c-2.421,2.182-4.291,4.895-6.428,7.355c-2.137,2.46-4.676,4.75-7.806,5.658c-4.134,1.199-8.79-0.316-11.854-3.339
				c-3.064-3.024-5.294-6.613-5.47-10.914C438.281,121.104,439.444,117.386,441.089,115.064z"/>
			<path style="opacity:0.1;fill:#FFFFFF;enable-background:new    ;" d="M415.79,74.8c0,0,10.6,21.868,3.504,35.721
				c-7.097,13.853-29.126,82.224-13.995,107.366c0,0,22.605-12.051,22.398-11.94c-0.207,0.111-16.067-23.554-11.809-50.009
				c4.258-26.454,21.887-58.488,18.892-71.709c-2.995-13.221-1.316-18.85-2.586-18.173c-1.27,0.677-14.582,7.773-14.582,7.773"/>
		</g>
		<path style="opacity:0.2;enable-background:new    ;" d="M389.321,172.13c0,0,2.042,2.39,8.756,2.39
			c6.714,0,33.014-2.572,35.754-4.482c2.74-1.91,12.459-23.462,12.459-23.462l-8.551-9.132l-11.396,26.197L389.321,172.13z"/>
		<path style="fill:#AA524B;" d="M394.154,166.854c0,0,27.835-6.715,28.968-8.519c1.133-1.804,11.56-33.039,11.56-33.039
			l10.474,5.857c0.726,0-7.773,30.765-14.7,35.7c-6.927,4.935-34.323,5.891-34.323,5.891L394.154,166.854z"/>
		<g id="freepik--character-2--inject-2_00000123417796791071632170000014687889745517108105_">
			<g>
				<polygon style="fill:#AA524B;" points="490.121,354.933 480.79,355.618 483.567,377.043 492.898,376.359 				"/>
				<polygon style="fill:#AA524B;" points="539.712,335.141 531.131,339.129 542.62,357.316 551.201,353.329 				"/>
				<path style="fill:#263238;" d="M539.37,356.632c-0.684,3.145-0.316,5.554-5.264,11.305c-1.092,1.277,1.408,4.185,4.553,1.763
					c3.145-2.422,6.317-5.225,8.594-6.975c3.711-2.843,5.264-3.764,8.252-5.975c0.043-0.032,0.084-0.067,0.124-0.104
					c0.606-0.565,0.639-1.515,0.073-2.121l-5.935-5.751c-0.28-0.253-0.707-0.253-0.987,0l-8.436,6.488
					C539.878,355.601,539.536,356.082,539.37,356.632z"/>
				<path style="fill:#263238;" d="M481.448,376.293c-2.408,2.066-5.238,4.238-12.516,5.817c-1.592,0.355-1.29,4.225,2.632,4.225
					c3.922,0,9.778-0.29,12.621-0.29c4.619,0,6.383,0.211,10.042,0.276c0.076,0.001,0.151-0.004,0.226-0.015
					c0.791-0.116,1.338-0.852,1.222-1.643l-1.408-8.304c-0.059-0.375-0.384-0.649-0.763-0.645h-10.529
					C482.414,375.723,481.874,375.928,481.448,376.293z"/>
				<polygon style="opacity:0.2;enable-background:new    ;" points="490.519,357.691 491.94,368.746 482.715,370.285 
					481.175,358.388 				"/>
				<polygon style="opacity:0.2;enable-background:new    ;" points="544.621,342.906 536.224,347.196 531.131,339.142 
					539.712,335.154 				"/>
				<path style="fill:#263238;" d="M491.426,163.593c14.74,14.279,5.909,29.177,24.334,99.467
					c9.107,34.625,28.532,76.252,28.532,76.252l-11.844,6.58c0,0-32.02-43.575-41.416-80.674
					c-8.91-35.139-27.15-96.243-27.15-96.243L491.426,163.593z"/>
				<path style="opacity:0.2;enable-background:new    ;" d="M470.245,183.703c4.211,14.305,8.613,36.349,14.693,58.551
					c0.276-15.885,8.304-44.051-3.659-53.264C479.081,187.292,471.39,182.729,470.245,183.703z"/>
				<path style="fill:#407BFF;" d="M536,358.58c-0.137-0.231-0.137-0.519,0-0.75c0.553-1.053,3.948-1.408,4.343-1.408
					c0.088-0.043,0.195-0.015,0.25,0.066c0.045,0.073,0.045,0.164,0,0.237c-0.803,0.987-2.343,2.606-3.527,2.5
					c-0.113-0.012-0.223-0.039-0.329-0.079C536.431,359.053,536.169,358.852,536,358.58z M539.896,356.869
					c-1.356,0.171-3.145,0.566-3.422,1.119c-0.059,0.102-0.059,0.227,0,0.329c0.113,0.258,0.353,0.437,0.632,0.474
					C537.751,358.843,538.777,358.185,539.896,356.869L539.896,356.869z"/>
				<path style="fill:#263238;" d="M480.753,270.352c3.619,28.756,12.121,95.282,12.121,95.282l-13.45,1.698
					c0,0-16.543-65.803-21.965-94.756c-5.225-27.821-5.681-101.178-5.681-101.178l30.199-5.857c0,0,4.6,12.909,3.817,31.305
					C484.785,220.569,478.529,252.687,480.753,270.352"/>
				<path style="fill:#407BFF;" d="M536.435,355.487c-0.166-0.326-0.077-0.723,0.211-0.947c0.251-0.255,0.605-0.381,0.961-0.342
					c1.342,0.092,2.948,2.171,3.027,2.25c0.033,0.071,0.033,0.153,0,0.224c-0.031,0.07-0.095,0.12-0.171,0.132
					c-0.993,0.064-1.987-0.098-2.909-0.474C537.096,356.184,536.701,355.887,536.435,355.487z M539.988,356.422
					c-0.579-0.684-1.645-1.737-2.448-1.79c-0.225-0.021-0.448,0.062-0.605,0.224c-0.211,0.197-0.132,0.342-0.132,0.434
					c0.276,0.579,2.04,1.105,3.185,1.105V356.422z"/>
				<path style="fill:#407BFF;" d="M477.237,376.727c-0.314-0.265-0.473-0.671-0.421-1.079c-0.001-0.245,0.136-0.469,0.355-0.579
					c1.119-0.645,4.896,1.263,5.33,1.487c0.082,0.043,0.129,0.132,0.118,0.224c-0.01,0.092-0.08,0.167-0.171,0.184
					c-0.966,0.201-1.948,0.311-2.935,0.329C478.712,377.37,477.909,377.17,477.237,376.727z M481.698,376.701
					c-1.553-0.724-3.764-1.54-4.317-1.25c-0.08,0.052-0.13,0.141-0.132,0.237c-0.022,0.267,0.08,0.529,0.276,0.711
					c0.579,0.5,2.119,0.592,4.172,0.25V376.701z"/>
				<path style="fill:#407BFF;" d="M482.304,377.069c-1.132-0.513-3.395-2.527-3.224-3.58c0.04-0.25,0.211-0.553,0.816-0.619h0.184
					c2.092,0,2.54,3.777,2.54,3.948c0.012,0.078-0.025,0.156-0.092,0.197c-0.043,0.013-0.089,0.013-0.132,0L482.304,377.069z
					 M479.922,373.24c-0.434,0.04-0.434,0.25-0.434,0.25c-0.066,0.632,1.461,2.224,2.632,2.908
					c-0.171-0.947-0.737-3.159-2.053-3.159H479.922z"/>
			</g>
			<path style="fill:#AA524B;" d="M489.218,113.588c1.224,0.842,2.172,1.553,3.132,2.343c0.961,0.79,1.908,1.606,2.829,2.435
				c1.824,1.663,3.559,3.42,5.198,5.264c3.346,3.741,6.207,7.888,8.515,12.345l0.829,1.698c0.183,0.341,0.346,0.693,0.487,1.053
				c0.204,0.493,0.362,1.005,0.474,1.527c0.393,1.789,0.366,3.645-0.079,5.422c-0.702,2.708-1.879,5.27-3.474,7.567
				c-2.785,4.076-6.14,7.733-9.962,10.857l-3.698-3.553c2.543-3.558,4.792-7.316,6.725-11.239c0.828-1.657,1.392-3.433,1.671-5.264
				c0.072-0.487,0.023-0.984-0.145-1.448c0.145,0.184-0.684-1.171-1.171-1.974c-2.25-3.6-4.851-6.967-7.765-10.055
				c-1.474-1.553-3.04-3.027-4.619-4.475c-0.803-0.776-1.619-1.435-2.422-2.092s-1.711-1.369-2.382-1.869L489.218,113.588z"/>
			<path style="fill:#407BFF;" d="M477.593,116.026c1.448,9.383,14.608,16.477,14.608,16.477l10.41-12.345
				c0,0-9.752-13.029-16.227-13.319C480.015,106.55,476.896,111.341,477.593,116.026z"/>
			<path style="opacity:0.3;fill:#FFFFFF;" d="M477.593,116.026c1.448,9.383,14.608,16.477,14.608,16.477l10.41-12.345
				c0,0-9.752-13.029-16.227-13.319C480.015,106.55,476.896,111.341,477.593,116.026z"/>
			<path style="fill:#263238;" d="M436.493,89.376c-0.434,0.224-0.487,0.961-0.224,1.632c0.263,0.671,0.869,1.053,1.316,0.829
				c0.447-0.224,0.553-0.961,0.237-1.632C437.506,89.521,436.927,89.152,436.493,89.376z"/>
			<path style="fill:#263238;" d="M434.808,89.652l1.856-0.342C436.243,90.508,434.808,89.652,434.808,89.652z"/>
			<path style="fill:#942625;" d="M439.796,95.943c-0.726,0.622-1.687,0.896-2.632,0.75c0.379-1.821,0.512-3.684,0.395-5.541
				L439.796,95.943z"/>
			<path style="fill:#263238;" d="M434.374,86.02c-0.001-0.001-0.003-0.003-0.004-0.004c-0.168-0.171-0.166-0.446,0.004-0.614
				c1.01-1.023,2.444-1.511,3.869-1.316c0.239,0.053,0.391,0.287,0.342,0.526c-0.001,0.006-0.003,0.013-0.004,0.019
				c-0.055,0.233-0.289,0.378-0.522,0.323c-1.136-0.143-2.275,0.251-3.08,1.066c-0.05,0.052-0.114,0.088-0.184,0.105
				C434.646,86.165,434.487,86.125,434.374,86.02z"/>
			<path style="fill:#AA524B;" d="M453.983,100.931c1.764,4.014,2.659,8.489-3.198,11.121c0,0-4.922,6.646,6.251,4.475
				c10.16-1.961,13.016-8.067,13.016-8.067c-4.422-2.882-6.843-11.989-6.659-17.635L453.983,100.931z"/>
			<path style="fill:#AA524B;" d="M397.103,166.563l-7.147-2.886c-0.154-0.062-0.322-0.042-0.462,0.056l-3.59,2.496l-1.604,10.207
				c2.114-0.55,3.747-2.068,5.022-4.305c1.556,0.85,6.67,3.16,8.756-1.858L397.103,166.563z"/>
			<path style="opacity:0.2;enable-background:new    ;" d="M486.169,128.387c0,0-1.839-12.257-1.691-12.036
				c0.148,0.222,7.723,16.152,7.723,16.152S486.826,129.266,486.169,128.387z"/>
			<path style="fill:#407BFF;" d="M486.45,106.787c0,0-2.922-0.053-7.015,0.145l-2.422,0.132c-0.711,0.053-1.448,0.092-2.198,0.184
				c-1.092,0.105-2.237,0.224-3.395,0.368c-0.395,0.039-0.803,0.171-1.211,0.171c-6.343,0.908-11.476,1.961-16.99,3.277
				c-3.211,0.934-3.711,1.066-6.106,1.935l-0.5,0.197c-2.907,1.143-5.741,2.462-8.488,3.948c0,0-2.029,3.262,13.24,55.173
				c3.957,7.855,37.81,4.117,41.509-8.724C489.741,148.577,484.318,139.32,486.45,106.787z"/>
			<path style="opacity:0.3;fill:#FFFFFF;" d="M486.45,106.787c0,0-2.922-0.053-7.015,0.145l-2.422,0.132
				c-0.711,0.053-1.448,0.092-2.198,0.184c-1.092,0.105-2.237,0.224-3.395,0.368c-0.395,0.039-0.803,0.171-1.211,0.171
				c-6.343,0.908-11.476,1.961-16.99,3.277c-3.211,0.934-3.711,1.066-6.106,1.935l-0.5,0.197c-2.907,1.143-5.741,2.462-8.488,3.948
				c0,0-2.029,3.262,13.24,55.173c3.957,7.855,37.81,4.117,41.509-8.724C489.741,148.577,484.318,139.32,486.45,106.787z"/>
			<path style="opacity:0.2;enable-background:new    ;" d="M439.279,126.805c0.948,4.804,2.573,12.012,5.437,22.049
				c1.789-5.254,2.558-11.023,1.485-16.469C445.201,127.358,442.148,126.437,439.279,126.805z"/>
			<path style="fill:#407BFF;" d="M446.903,125.067c2.632,4.501-5.264,22.123-5.264,22.123l-14.477-11.844
				c1.053-5.172,5.04-14.266,11.279-18.333C440.796,115.46,444.258,120.329,446.903,125.067z"/>
			<path style="opacity:0.3;fill:#FFFFFF;" d="M446.903,125.067c2.632,4.501-5.264,22.123-5.264,22.123l-14.477-11.844
				c1.053-5.172,5.04-14.266,11.279-18.333C440.796,115.46,444.258,120.329,446.903,125.067z"/>
			<path style="fill:#AA524B;" d="M456.046,71.99c-5.214-4.393-13.002-3.727-17.394,1.488c-6.607,7.383-1.948,20.346,3.316,26.927
				c5.856,7.344,17.109,4.738,20.425-4.856c2.211-6.383,0.592-9.949-2.777-18.543C458.868,75.059,457.64,73.334,456.046,71.99z"/>
			<path style="fill:#AA524B;" d="M439.994,85.888c-1.408,1.79-0.948,4.554-0.092,6.159c0.855,1.606,2.632,1.658,3.488-0.605
				c0.624-1.603,0.734-3.359,0.316-5.027C443.165,84.572,441.402,84.099,439.994,85.888z"/>
			<path style="fill:#263238;" d="M437.164,65.779c-5.514,5.593-4.843,10.305-3.356,14.806c1.487,4.501,1.579,0.026,3.356-2.79
				c-0.79,4.553,4.014,15.911,6.791,20.017c2.777,4.106-0.382,11.344-2.408,12.002c1.974,2.737,8.752,6.08,23.386,3.448
				c16.464-2.882,21.491-11.029,21.491-11.029s-4.304,1.711-5.12-6.067c-0.658-6.291-1.263-8.778-4.33-11.845
				c0.921,0.605,3.619-0.855,4.475-2.171c-4.54,1.75-7.58-6.672-10.752-13.055c-2.088-4.711-7.043-7.47-12.147-6.765
				C456.405,58.278,442.073,60.738,437.164,65.779z"/>
			<path style="fill:#263238;" d="M483.141,455.79h1.9l5.425-26.727l0.95-4.682l5.916-29.118h22.682l12.26,60.535h1.9
				l-12.529-61.646c-0.075-0.444-0.461-0.769-0.912-0.766h-24.16c-0.451-0.003-0.837,0.322-0.912,0.766l-5.195,25.578l-0.95,4.674
				L483.141,455.79z"/>
			<path style="fill:#263238;" d="M446.728,455.79h1.9l12.26-60.535h22.674l5.916,29.118l0.95,4.667l5.425,26.728h1.9l-6.375-31.417
				l-0.95-4.659l-5.157-25.547c-0.075-0.444-0.461-0.769-0.912-0.766h-24.191c-0.451-0.003-0.837,0.322-0.912,0.766L446.728,455.79z
				"/>
			<path style="fill:#263238;" d="M523.447,386.343h-65.961c-3.149-0.004-5.705,2.545-5.709,5.693c0,0.005,0,0.01,0,0.015v0.192
				c-0.004,1.147,0.922,2.08,2.069,2.084c0.003,0,0.005,0,0.008,0h73.225c1.147,0,2.077-0.93,2.077-2.077c0-0.003,0-0.005,0-0.008
				v-0.192c0.004-3.149-2.545-5.704-5.693-5.709C523.457,386.343,523.452,386.343,523.447,386.343z"/>
		</g>
	</g>
</g>
</svg>
