<?xml version="1.0" encoding="utf-8"?>
<!-- Generator: Adobe Illustrator 27.5.0, SVG Export Plug-In . SVG Version: 6.00 Build 0)  -->
<svg version="1.1" xmlns="http://www.w3.org/2000/svg" xmlns:xlink="http://www.w3.org/1999/xlink" x="0px" y="0px"
	 viewBox="0 0 500 500" style="enable-background:new 0 0 500 500;" xml:space="preserve">
<g id="Background_Complete">
	<g>
		<rect y="382.398" style="fill:#EBEBEB;" width="500" height="0.25"/>
		<rect x="416.779" y="398.494" style="fill:#EBEBEB;" width="33.122" height="0.25"/>
		<rect x="322.527" y="401.208" style="fill:#EBEBEB;" width="8.693" height="0.25"/>
		<rect x="396.586" y="389.208" style="fill:#EBEBEB;" width="19.192" height="0.25"/>
		<rect x="52.459" y="390.888" style="fill:#EBEBEB;" width="43.193" height="0.25"/>
		<rect x="104.556" y="390.888" style="fill:#EBEBEB;" width="6.333" height="0.25"/>
		<rect x="131.471" y="395.111" style="fill:#EBEBEB;" width="93.676" height="0.25"/>
		<path style="fill:#EBEBEB;" d="M237.014,337.8H43.915c-3.147,0-5.708-2.56-5.708-5.708V60.66c0-3.147,2.561-5.708,5.708-5.708
			h193.099c3.146,0,5.707,2.561,5.707,5.708v271.432C242.721,335.239,240.16,337.8,237.014,337.8z M43.915,55.203
			c-3.01,0-5.458,2.448-5.458,5.458v271.432c0,3.01,2.448,5.458,5.458,5.458h193.099c3.009,0,5.457-2.448,5.457-5.458V60.66
			c0-3.009-2.448-5.458-5.457-5.458H43.915z"/>
		<path style="fill:#EBEBEB;" d="M453.31,337.8H260.212c-3.147,0-5.707-2.56-5.707-5.708V60.66c0-3.147,2.561-5.708,5.707-5.708
			H453.31c3.148,0,5.708,2.561,5.708,5.708v271.432C459.019,335.239,456.458,337.8,453.31,337.8z M260.212,55.203
			c-3.009,0-5.457,2.448-5.457,5.458v271.432c0,3.01,2.448,5.458,5.457,5.458H453.31c3.01,0,5.458-2.448,5.458-5.458V60.66
			c0-3.009-2.448-5.458-5.458-5.458H260.212z"/>
	</g>
	<g>
		<g>
			<g>
				<g>
					<g>
						
							<rect x="202.303" y="79.691" transform="matrix(-1 -1.224647e-16 1.224647e-16 -1 501.8923 375.4115)" style="fill:#E6E6E6;" width="97.286" height="216.03"/>
						
							<rect x="196.36" y="79.691" transform="matrix(-1 -1.224647e-16 1.224647e-16 -1 490.0051 375.4115)" style="fill:#F5F5F5;" width="97.286" height="216.03"/>
						
							<rect x="146.714" y="149.732" transform="matrix(-1.836970e-16 1 -1 -1.836970e-16 432.7085 -57.2967)" style="fill:#FFFFFF;" width="196.577" height="75.948"/>
						
							<rect x="110.987" y="185.459" transform="matrix(-1.836970e-16 1 -1 -1.836970e-16 396.9809 -21.5692)" style="fill:#E6E6E6;" width="196.577" height="4.493"/>
						
							<rect x="200.772" y="227.619" transform="matrix(-1 -1.224647e-16 1.224647e-16 -1 490.005 468.2969)" style="fill:#F5F5F5;" width="88.46" height="13.058"/>
						
							<rect x="200.772" y="106.564" transform="matrix(-1 -1.224647e-16 1.224647e-16 -1 490.005 226.1865)" style="fill:#F5F5F5;" width="88.46" height="13.058"/>
					</g>
				</g>
			</g>
			<g>
				<g>
					<g>
						
							<rect x="71.138" y="79.691" transform="matrix(-1 -1.224647e-16 1.224647e-16 -1 239.5629 375.4115)" style="fill:#E6E6E6;" width="97.286" height="216.03"/>
						
							<rect x="65.195" y="79.691" transform="matrix(-1 -1.224647e-16 1.224647e-16 -1 227.6756 375.4115)" style="fill:#F5F5F5;" width="97.286" height="216.03"/>
						
							<rect x="15.55" y="149.732" transform="matrix(-1.836970e-16 1 -1 -1.836970e-16 301.5437 73.868)" style="fill:#FFFFFF;" width="196.577" height="75.949"/>
						
							<rect x="-20.178" y="185.459" transform="matrix(-1.836970e-16 1 -1 -1.836970e-16 265.8162 109.5956)" style="fill:#E6E6E6;" width="196.577" height="4.493"/>
						
							<rect x="69.608" y="227.619" transform="matrix(-1 -1.224647e-16 1.224647e-16 -1 227.6756 468.2969)" style="fill:#F5F5F5;" width="88.46" height="13.058"/>
						
							<rect x="69.608" y="106.564" transform="matrix(-1 -1.224647e-16 1.224647e-16 -1 227.6756 226.1865)" style="fill:#F5F5F5;" width="88.46" height="13.058"/>
					</g>
				</g>
			</g>
			<g>
				<g>
					<g>
						
							<rect x="333.468" y="79.691" transform="matrix(-1 -1.224647e-16 1.224647e-16 -1 764.2219 375.4115)" style="fill:#E6E6E6;" width="97.286" height="216.03"/>
						
							<rect x="327.524" y="79.691" transform="matrix(-1 -1.224647e-16 1.224647e-16 -1 752.3345 375.4115)" style="fill:#F5F5F5;" width="97.286" height="216.03"/>
						
							<rect x="277.879" y="149.732" transform="matrix(-1.836970e-16 1 -1 -1.836970e-16 563.8732 -188.4615)" style="fill:#FFFFFF;" width="196.577" height="75.949"/>
						
							<rect x="242.151" y="185.459" transform="matrix(-1.836970e-16 1 -1 -1.836970e-16 528.1456 -152.7339)" style="fill:#E6E6E6;" width="196.577" height="4.493"/>
						
							<rect x="331.937" y="227.619" transform="matrix(-1 -1.224647e-16 1.224647e-16 -1 752.3345 468.2969)" style="fill:#F5F5F5;" width="88.46" height="13.058"/>
						
							<rect x="331.937" y="106.564" transform="matrix(-1 -1.224647e-16 1.224647e-16 -1 752.3345 226.1865)" style="fill:#F5F5F5;" width="88.46" height="13.058"/>
					</g>
				</g>
			</g>
		</g>
		<g>
			<g>
				<rect x="55.716" y="326.111" style="fill:#F5F5F5;" width="171.461" height="56.287"/>
				
					<rect x="227.177" y="326.111" transform="matrix(-1 -1.224647e-16 1.224647e-16 -1 481.6815 708.5095)" style="fill:#E6E6E6;" width="27.328" height="56.287"/>
				<path style="fill:#EBEBEB;" d="M237.827,326.111H52.546c-2.7,0-4.889-2.189-4.889-4.889l0,0c0-2.7,2.189-4.889,4.889-4.889
					h185.281V326.111z"/>
				<path style="fill:#E0E0E0;" d="M224.16,326.111h30.345v-9.778H224.16c-2.7,0-4.889,2.189-4.889,4.889l0,0
					C219.271,323.922,221.46,326.111,224.16,326.111z"/>
			</g>
			<g>
				<rect x="240.652" y="326.111" style="fill:#F5F5F5;" width="171.461" height="56.287"/>
				
					<rect x="412.113" y="326.111" transform="matrix(-1 -1.224647e-16 1.224647e-16 -1 851.5547 708.5095)" style="fill:#E6E6E6;" width="27.328" height="56.287"/>
				<path style="fill:#EBEBEB;" d="M422.763,326.111H237.483c-2.7,0-4.889-2.189-4.889-4.889l0,0c0-2.7,2.189-4.889,4.889-4.889
					h185.281V326.111z"/>
				<path style="fill:#E0E0E0;" d="M409.097,326.111h30.345v-9.778h-30.345c-2.7,0-4.889,2.189-4.889,4.889l0,0
					C404.208,323.922,406.397,326.111,409.097,326.111z"/>
			</g>
		</g>
	</g>
</g>
<g id="Background_Simple" style="display:none;">
	<g style="display:inline;">
		<path style="fill:#407BFF;" d="M219.341,157.233c56.427,4.204,80.722-33.9,136.641-29.615
			c49.911,3.825,84.613,30.896,73.42,68.048c-9.936,32.978-59.024,43.878-76.154,74.866c-18.159,32.849-32.127,68.207-88.006,80.233
			c-109.723,23.614-164.396-80.453-172.598-140.502c-3.148-23.051-8.82-78.178,30.042-85.794
			C161.8,116.803,184.727,154.654,219.341,157.233z"/>
		<path style="opacity:0.9;fill:#FFFFFF;" d="M219.341,157.233c56.427,4.204,80.722-33.9,136.641-29.615
			c49.911,3.825,84.613,30.896,73.42,68.048c-9.936,32.978-59.024,43.878-76.154,74.866c-18.159,32.849-32.127,68.207-88.006,80.233
			c-109.723,23.614-164.396-80.453-172.598-140.502c-3.148-23.051-8.82-78.178,30.042-85.794
			C161.8,116.803,184.727,154.654,219.341,157.233z"/>
	</g>
</g>
<g id="Shadow_1_">
	<ellipse id="_x3C_Path_x3E__180_" style="fill:#F5F5F5;" cx="250" cy="416.238" rx="193.889" ry="11.323"/>
</g>
<g id="Character_1_">
	<g>
		<polygon style="fill:#B55B52;" points="274.347,403.272 266.674,401.457 270.92,383.017 278.593,384.832 		"/>
		<polygon style="fill:#B55B52;" points="333.273,408.042 325.247,408.042 324.299,389.454 332.326,389.454 		"/>
		<path style="fill:#263238;" d="M323.935,407.113h9.786c0.328,0,0.612,0.228,0.683,0.548l1.585,7.135
			c0.165,0.74-0.417,1.44-1.175,1.427c-3.148-0.054-5.446-0.239-9.412-0.239c-2.44,0-7.803,0.254-11.173,0.254
			c-3.295,0-3.809-3.331-2.43-3.633c6.184-1.353,8.851-3.219,10.831-4.998C322.989,407.285,323.455,407.113,323.935,407.113z"/>
		<path style="fill:#263238;" d="M266.31,400.521l8.536,1.994c0.319,0.075,0.544,0.361,0.541,0.689l-0.079,7.308
			c-0.008,0.758-0.714,1.313-1.449,1.128c-3.067-0.772-7.474-1.991-11.345-2.895c-4.525-1.057-4.615-0.881-9.921-2.121
			c-3.209-0.75-3.342-4.202-1.93-4.182c6.427,0.091,7.577,0.272,13.622-1.752C264.942,400.47,265.636,400.363,266.31,400.521z"/>
		<path style="fill:#B65B52;" d="M307.651,160.721c-3.638,4.906-7.067,9.852-10.391,14.944c-1.655,2.544-3.296,5.104-4.872,7.72
			c-1.595,2.601-3.146,5.246-4.63,7.972l-0.557,1.023l-0.279,0.511l-0.436,0.863c-0.295,0.686-0.589,1.382-0.776,2.448
			c-0.172,1.009-0.243,2.391,0.311,3.905c0.532,1.503,1.615,2.688,2.54,3.338c0.943,0.678,1.786,1.015,2.479,1.233l7.526-9.546
			c2.802-4.237,5.738-8.475,8.702-12.695l10.229-14.568L307.651,160.721z"/>
		<polygon style="opacity:0.2;" points="270.921,383.022 268.73,392.527 276.407,394.343 278.597,384.838 		"/>
		<g>
			<path style="fill:#407BFF;" d="M322.723,162.463c2.18,7.358-10.711,21.465-10.711,21.465l-15.605-9.929
				c0,0,3.199-5.524,9.248-13.385C312.243,152.052,320.081,153.549,322.723,162.463z"/>
			<path style="opacity:0.4;" d="M322.723,162.463c2.18,7.358-10.711,21.465-10.711,21.465l-15.605-9.929
				c0,0,3.199-5.524,9.248-13.385C312.243,152.052,320.081,153.549,322.723,162.463z"/>
		</g>
		<polygon style="opacity:0.2;" points="332.328,389.459 324.298,389.459 324.79,399.04 332.82,399.04 		"/>
		<g>
			<path style="fill:#407BFF;" d="M355.504,165.256c-9.409,28.613-10.219,58.368-11.17,64.588
				c-6.26-0.663-29.836-3.205-42.688-4.593c-3.392-37.897,6.145-61.087,9.554-67.99c0.677-1.371,2.012-2.286,3.536-2.408
				c1.113-0.089,2.551-0.183,4.17-0.235c1.18-0.038,2.45-0.056,3.771-0.033c0.73,0.007,1.469,0.035,2.219,0.073
				c4.837,0.258,12.675,1.577,18.064,2.621c1.128,0.221,2.276,0.473,3.383,0.734c1.028,0.25,2.035,0.51,2.983,0.77
				c1.199,0.327,2.32,0.656,3.314,0.958C354.974,160.452,356.266,162.937,355.504,165.256z"/>
			<path style="opacity:0.3;" d="M355.504,165.256c-9.409,28.613-10.219,58.368-11.17,64.588c-6.26-0.663-29.836-3.205-42.688-4.593
				c-3.392-37.897,6.145-61.087,9.554-67.99c0.677-1.371,2.012-2.286,3.536-2.408c1.113-0.089,2.551-0.183,4.17-0.235
				c1.18-0.038,2.45-0.056,3.771-0.033c0.73,0.007,1.469,0.035,2.219,0.073c4.837,0.258,12.675,1.577,18.064,2.621
				c1.128,0.221,2.276,0.473,3.383,0.734c1.028,0.25,2.035,0.51,2.983,0.77c1.199,0.327,2.32,0.656,3.314,0.958
				C354.974,160.452,356.266,162.937,355.504,165.256z"/>
		</g>
		<path style="fill:#407BFF;" d="M322.368,154.585c0.1-0.003,0.21,0.004,0.311,0.002c0.732,0.001,1.471,0.032,2.22,0.075
			c4.834,0.257,12.671,1.576,18.062,2.615c0.87,0.171,1.739,0.362,2.597,0.562l-1.406,1.045c-4.165,3.087-8.961,5.88-15.745,5.406
			c-0.289-0.02-0.579-0.04-0.867-0.07c-3.452-0.382-5.588-1.663-6.368-3.833C320.459,158.391,321.198,156.268,322.368,154.585z"/>
		<path style="fill:#B55B52;" d="M344.116,136.679c-1.982,5.646-4.663,16.129-1.16,20.597c-3.614,2.681-8.269,5.71-15.205,4.952
			c-6.936-0.758-5.042-5.33-2.856-7.57c6.705-0.608,7.235-5.44,6.761-10.119L344.116,136.679z"/>
		<path style="opacity:0.2;" d="M339.036,139.886l-7.374,4.647c0.116,1.108,0.169,2.222,0.092,3.287
			c2.527,0.001,6.322-2.223,6.961-4.777C339.034,141.769,339.159,140.519,339.036,139.886z"/>
		<path style="fill:#263238;" d="M331.332,128.107l2.951,0.407c3.78-0.094,10.751-7.701,8.243-14.281
			C334.082,112.766,325.228,116.94,331.332,128.107z"/>
		<path style="fill:#B55B52;" d="M349.764,132.226c-4.137,6.808-6.213,11.002-11.668,12.742
			c-8.205,2.617-15.193-5.179-13.172-13.085c1.818-7.117,8.278-17.054,16.639-16.227C349.8,116.471,353.901,125.419,349.764,132.226
			z"/>
		<path style="fill:#263238;" d="M354.559,122.22l-2.978,0.071c-3.716,0.697-9.381,9.321-5.852,15.416
			C354.172,139.158,364.5,131.276,354.559,122.22z"/>
		<path style="fill:#263238;" d="M349.424,125.072c-7.664-1.622-15.103-10.423-14.723-15.87c0.402-5.764,8.49-2.72,10.009-0.901
			c-0.239-3.179,2.014-2.429,3.525-0.479c1.511,1.95,3.443,8.97,9.219,14.093C361.303,125.329,358.188,126.926,349.424,125.072z"/>
		<path style="fill:#263238;" d="M356.389,124.972c0,0,3.194,1.278,3.944,0.25C360.917,127.458,358.611,127.194,356.389,124.972z"/>
		<path style="fill:#B55B52;" d="M348.857,141.654c-1.85,1.092-4.031,1.227-5.733,0.759c-2.56-0.704-2.479-3.323-0.627-5.026
			c1.667-1.533,5.007-3.014,7.028-1.394C351.517,137.59,350.972,140.406,348.857,141.654z"/>
		<path style="fill:#407BFF;" d="M302.586,310.979c5.098-17.098,27.122-82.705,27.122-82.705l-28.062-3.02
			c0,0-15.982,58.6-20.049,82.758c-4.232,25.118-15.608,80.295-15.608,80.295l13.718,3.779
			C279.708,392.086,297.488,328.077,302.586,310.979z"/>
		<path style="opacity:0.2;" d="M319.25,244.506c-6.928,10.783-10.497,34.462-10.743,47.758
			c4.558-14.027,10.462-31.818,14.876-45.073C321.617,245.925,320.007,244.86,319.25,244.506z"/>
		<path style="fill:#407BFF;" d="M316.786,226.884c0,0-2.287,65.908-1.362,89.409c1.013,25.735,5.673,80.892,5.673,80.892h14.702
			c0,0-1.366-54.941-0.174-80.025c1.357-28.572,8.705-87.309,8.705-87.309L316.786,226.884z"/>
		<g>
			<polygon style="fill:#407BFF;" points="319.892,397.503 337.204,397.503 337.204,392.331 319.008,391.5 			"/>
			<polygon style="opacity:0.5;fill:#FFFFFF;" points="319.892,397.503 337.204,397.503 337.204,392.331 319.008,391.5 			"/>
		</g>
		<g>
			<polygon style="fill:#407BFF;" points="264.45,389.954 280.222,393.638 281.413,388.542 265.392,383.93 			"/>
			<polygon style="opacity:0.5;fill:#FFFFFF;" points="264.45,389.954 280.222,393.638 281.413,388.542 265.392,383.93 			"/>
		</g>
		<path style="fill:#263238;" d="M338.057,128.573c-0.302,0.573-0.85,0.877-1.224,0.68c-0.375-0.197-0.434-0.822-0.132-1.394
			s0.85-0.877,1.224-0.68C338.3,127.375,338.359,128,338.057,128.573z"/>
		<path style="fill:#263238;" d="M331.582,125.162c-0.302,0.573-0.85,0.877-1.224,0.68c-0.374-0.197-0.433-0.821-0.132-1.394
			c0.302-0.573,0.85-0.877,1.224-0.68C331.825,123.965,331.884,124.59,331.582,125.162z"/>
		<path style="fill:#A02724;" d="M333.491,126.532c0,0-3.043,2.619-5.317,3.458c0.515,1.48,2.466,1.955,2.466,1.955L333.491,126.532
			z"/>
		<path style="fill:#263238;" d="M332.247,134.749c2.334,0.854,4.141-0.127,4.225-0.173c0.092-0.051,0.124-0.167,0.073-0.258
			c-0.051-0.092-0.167-0.125-0.258-0.074c-0.021,0.012-2.127,1.146-4.634-0.175c-0.093-0.048-0.208-0.013-0.257,0.08
			c-0.049,0.093-0.013,0.208,0.08,0.257C331.738,134.543,331.996,134.657,332.247,134.749z"/>
		<path style="fill:#263238;" d="M342.574,125.851c0.06,0.022,0.125,0.029,0.192,0.018c0.207-0.034,0.348-0.23,0.314-0.437
			c-0.341-2.076-1.94-2.801-2.008-2.831c-0.192-0.085-0.417,0.003-0.501,0.195c-0.084,0.192,0.002,0.415,0.193,0.5l0,0
			c0.053,0.024,1.293,0.603,1.565,2.259C342.352,125.696,342.449,125.806,342.574,125.851z"/>
		<path style="fill:#263238;" d="M333.712,121.144c-0.094-0.08-0.225-0.112-0.352-0.076c-1.613,0.465-2.668-0.407-2.712-0.444
			c-0.16-0.135-0.399-0.116-0.535,0.043c-0.136,0.159-0.119,0.397,0.04,0.534c0.059,0.048,1.398,1.181,3.418,0.598
			c0.202-0.058,0.318-0.269,0.26-0.471C333.81,121.254,333.767,121.191,333.712,121.144z"/>
		<g>
			<path style="fill:#407BFF;" d="M321.28,408.515c0.742,0,1.543-0.154,2.101-0.289c0.074-0.018,0.131-0.079,0.143-0.154
				c0.012-0.076-0.022-0.151-0.087-0.192c-0.292-0.183-2.882-1.773-3.769-1.317c-0.138,0.071-0.306,0.221-0.326,0.538
				c-0.027,0.425,0.106,0.763,0.393,1.005C320.098,408.411,320.669,408.515,321.28,408.515z M322.829,407.96
				c-1.363,0.273-2.411,0.224-2.85-0.145c-0.193-0.162-0.277-0.387-0.258-0.69c0.009-0.148,0.069-0.197,0.12-0.223
				C320.302,406.665,321.777,407.351,322.829,407.96z"/>
			<path style="fill:#407BFF;" d="M323.336,408.232c0.036,0,0.072-0.01,0.103-0.031c0.059-0.038,0.092-0.105,0.086-0.174
				c-0.008-0.098-0.199-2.414-1.132-3.176c-0.243-0.198-0.516-0.281-0.81-0.245c0,0,0,0,0,0c-0.454,0.056-0.574,0.336-0.605,0.498
				c-0.17,0.895,1.436,2.653,2.267,3.104C323.273,408.225,323.305,408.232,323.336,408.232z M321.716,404.979
				c0.156,0,0.3,0.055,0.437,0.167c0.598,0.488,0.854,1.838,0.948,2.515c-0.826-0.627-1.849-1.956-1.748-2.484
				c0.009-0.048,0.031-0.161,0.277-0.192l0,0C321.659,404.98,321.687,404.979,321.716,404.979z"/>
			<path style="fill:#407BFF;" d="M265.289,401.421c0.07-0.007,0.132-0.053,0.158-0.12c0.029-0.075,0.008-0.161-0.054-0.213
				c-0.312-0.266-3.082-2.593-4.155-2.286c-0.207,0.059-0.353,0.205-0.421,0.421c0,0,0,0,0,0c-0.114,0.362-0.068,0.693,0.137,0.981
				c0.68,0.959,2.992,1.175,4.31,1.218C265.272,401.422,265.28,401.422,265.289,401.421z M261.416,399.153
				c0.637-0.066,2.189,0.981,3.29,1.862c-1.793-0.116-3.062-0.492-3.443-1.03c-0.134-0.189-0.162-0.401-0.084-0.647
				c0.03-0.095,0.079-0.146,0.163-0.17C261.365,399.16,261.39,399.155,261.416,399.153z"/>
			<path style="fill:#407BFF;" d="M265.289,401.421c0.018-0.002,0.036-0.006,0.053-0.013c0.063-0.026,0.107-0.083,0.116-0.15
				c0.012-0.091,0.293-2.246-0.51-3.294c-0.245-0.32-0.566-0.507-0.952-0.557l0,0c-0.521-0.067-0.728,0.157-0.81,0.356
				c-0.35,0.851,1.125,2.977,1.97,3.621C265.193,401.413,265.241,401.426,265.289,401.421z M263.748,397.777
				c0.052-0.005,0.117-0.005,0.198,0.006h0c0.287,0.037,0.516,0.172,0.699,0.411c0.528,0.689,0.512,2.013,0.469,2.651
				c-0.828-0.803-1.788-2.428-1.578-2.939C263.549,397.875,263.582,397.794,263.748,397.777z M263.97,397.594l-0.005,0.001
				L263.97,397.594z"/>
		</g>
		<g>
			<path style="fill:#B65B52;" d="M357.773,172.074c-0.79,1.494-1.539,2.757-2.358,4.083c-0.81,1.305-1.606,2.613-2.472,3.875
				c-1.701,2.543-3.509,5.01-5.39,7.428c-1.898,2.403-3.863,4.763-5.961,7.02l-0.814,0.892c-0.475,0.523-1.055,1.106-1.952,1.697
				c-0.471,0.298-0.992,0.587-1.675,0.824c-0.671,0.234-1.462,0.395-2.291,0.401c-1.691,0.024-3.205-0.64-4.1-1.272
				c-0.947-0.654-1.494-1.277-1.955-1.847c-0.444-0.568-0.765-1.084-1.044-1.575c-0.548-0.979-0.916-1.856-1.24-2.706
				c-1.233-3.361-1.836-6.385-2.371-9.451c-0.529-3.044-0.9-6.054-1.194-9.058c-0.588-6.012-0.866-11.955-0.87-17.984l6.005-0.516
				c1.08,5.719,2.218,11.496,3.457,17.141c0.631,2.822,1.295,5.624,2.032,8.342c0.754,2.684,1.579,5.411,2.571,7.521
				c0.243,0.511,0.501,0.973,0.71,1.261c0.101,0.141,0.191,0.24,0.214,0.243c0.011-0.006-0.019-0.091-0.349-0.338
				c-0.289-0.218-1.078-0.616-2.028-0.6c-0.95,0.001-1.629,0.347-1.901,0.52c-0.285,0.178-0.331,0.244-0.323,0.211l0.602-0.808
				c1.687-2.268,3.35-4.565,4.936-6.922c1.609-2.34,3.161-4.724,4.69-7.118l2.27-3.597l2.143-3.536L357.773,172.074z"/>
			<path style="fill:#B65B52;" d="M291.039,204.677c1.431,0.444,2.498,0.518,3.513,0.575c1.998,0.073,3.689-0.087,5.342-0.326
				c1.646-0.237,3.219-0.544,4.766-0.884c6.169-1.42,11.922-3.367,17.655-5.717l-1.3-5.755c-2.892,0.445-6.244,0.9-9.156,1.288
				c-2.914,0.405-5.815,0.787-8.655,1.024c-1.415,0.131-2.819,0.224-4.162,0.246c-0.161,0.002-0.318,0.001-0.478,0.002"/>
			<path style="fill:#B55B52;" d="M319.276,192.824l6.43-1.365l1.394,9.523c0,0-7.138,1.1-9.321-4.322L319.276,192.824z"/>
			<polygon style="fill:#B55B52;" points="332.957,194.422 331.725,200.271 327.1,200.982 325.706,191.459 			"/>
			<g>
				<path style="fill:#407BFF;" d="M359.106,165.791c3.466,6.847-6.684,23.04-6.684,23.04l-17.134-6.967
					c0,0,2.155-6.009,6.695-14.827C346.927,157.43,354.908,157.496,359.106,165.791z"/>
				<path style="opacity:0.3;" d="M359.106,165.791c3.466,6.847-6.684,23.04-6.684,23.04l-17.134-6.967
					c0,0,2.155-6.009,6.695-14.827C346.927,157.43,354.908,157.496,359.106,165.791z"/>
			</g>
			<path style="fill:#B55B52;" d="M328.881,155.803l0.596-8.131l-9.466,1.705c0,0,0.345,7.46,4.282,8.055L328.881,155.803z"/>
			<polygon style="fill:#B55B52;" points="326.708,140.033 318.647,142.978 320.011,149.377 329.477,147.672 			"/>
		</g>
	</g>
</g>
<g id="Thoughts">
	<g>
		<g>
			<g>
				<circle style="fill:#407BFF;" cx="246.08" cy="157.432" r="16.475"/>
				<circle style="opacity:0.7;fill:#FFFFFF;" cx="246.08" cy="157.432" r="16.475"/>
			</g>
			<g>
				<circle style="fill:#407BFF;" cx="280.272" cy="143.853" r="7.586"/>
				<circle style="opacity:0.6;fill:#FFFFFF;" cx="280.272" cy="143.853" r="7.586"/>
			</g>
			<g>
				<path style="fill:#407BFF;" d="M300.209,127.16c0,1.87-1.516,3.386-3.386,3.386c-1.87,0-3.386-1.516-3.386-3.386
					c0-1.87,1.516-3.386,3.386-3.386C298.693,123.773,300.209,125.29,300.209,127.16z"/>
				<path style="opacity:0.5;fill:#FFFFFF;" d="M300.209,127.16c0,1.87-1.516,3.386-3.386,3.386c-1.87,0-3.386-1.516-3.386-3.386
					c0-1.87,1.516-3.386,3.386-3.386C298.693,123.773,300.209,125.29,300.209,127.16z"/>
			</g>
			<g>
				<path style="fill:#407BFF;" d="M243.985,107.602c0-11.853-6.35-22.219-15.832-27.892c-0.074-20.243-16.504-36.631-36.765-36.631
					c-9.464,0-18.091,3.578-24.607,9.452c-5.958-7.219-14.975-11.821-25.066-11.821c-12.444,0-23.249,7-28.705,17.275
					c-3.553-1.785-7.562-2.796-11.809-2.796c-14.552,0-26.35,11.797-26.35,26.349c0,2.387,0.323,4.697,0.918,6.895
					c-6.376,4.27-10.574,11.537-10.574,19.787c0,9.096,5.104,16.997,12.604,21.003c2.029,11.085,11.731,19.488,23.402,19.488
					c1.521,0,3.008-0.149,4.45-0.422c3.629,8.506,12.067,14.469,21.899,14.469c4.202,0,8.147-1.093,11.574-3.005
					c4.236,3.891,9.885,6.267,16.091,6.267c8.144,0,15.33-4.093,19.62-10.332c4.832,5.873,12.157,9.619,20.356,9.619
					c14.552,0,26.349-11.797,26.349-26.349c0-0.154-0.009-0.305-0.012-0.458C234.56,134.275,243.985,122.042,243.985,107.602z"/>
				<path style="opacity:0.8;fill:#FFFFFF;" d="M243.985,107.602c0-11.853-6.35-22.219-15.832-27.892
					c-0.074-20.243-16.504-36.631-36.765-36.631c-9.464,0-18.091,3.578-24.607,9.452c-5.958-7.219-14.975-11.821-25.066-11.821
					c-12.444,0-23.249,7-28.705,17.275c-3.553-1.785-7.562-2.796-11.809-2.796c-14.552,0-26.35,11.797-26.35,26.349
					c0,2.387,0.323,4.697,0.918,6.895c-6.376,4.27-10.574,11.537-10.574,19.787c0,9.096,5.104,16.997,12.604,21.003
					c2.029,11.085,11.731,19.488,23.402,19.488c1.521,0,3.008-0.149,4.45-0.422c3.629,8.506,12.067,14.469,21.899,14.469
					c4.202,0,8.147-1.093,11.574-3.005c4.236,3.891,9.885,6.267,16.091,6.267c8.144,0,15.33-4.093,19.62-10.332
					c4.832,5.873,12.157,9.619,20.356,9.619c14.552,0,26.349-11.797,26.349-26.349c0-0.154-0.009-0.305-0.012-0.458
					C234.56,134.275,243.985,122.042,243.985,107.602z"/>
			</g>
		</g>
		<g>
			<g>
				<path style="fill:#FFFFFF;" d="M157.784,141.456l-1.071,0.122c-0.034-0.3-2.821-23.853-11.168-35.451
					c-4.153,1.571-7.352,0.095-8.708-2.119c-1.069-1.746-0.862-3.71,0.515-4.888l0.206-0.177l0.265,0.061
					C153.18,102.549,157.603,139.869,157.784,141.456z M137.86,100.123c-0.792,0.843-0.841,2.116-0.103,3.322
					c1.089,1.779,3.679,2.959,7.109,1.781C142.849,102.674,140.526,100.824,137.86,100.123z"/>
				<path style="fill:#FFFFFF;" d="M162.568,140.725c-0.301-1.569-7.215-38.508,6.384-46.474l0.235-0.137l0.25,0.107
					c1.665,0.713,2.449,2.526,1.95,4.512c-0.633,2.517-3.247,4.883-7.679,4.62c-4.506,13.561-0.138,36.871-0.081,37.168
					L162.568,140.725z M164.086,102.292c3.626,0.102,5.746-1.798,6.254-3.821c0.344-1.371-0.082-2.572-1.089-3.14
					C166.915,96.795,165.25,99.254,164.086,102.292z"/>
			</g>
			<g>
				<path style="fill:#407BFF;" d="M122.07,94.005l-0.995,0.097c-0.137-1.411-0.184-2.836-0.139-4.235l1,0.032
					C121.892,91.254,121.937,92.636,122.07,94.005z"/>
				<path style="fill:#407BFF;" d="M122.358,85.695l-0.986-0.168c0.786-4.614,2.542-8.886,5.219-12.695l0.818,0.575
					C124.819,77.094,123.12,81.228,122.358,85.695z"/>
				<path style="fill:#407BFF;" d="M168.747,126.327l-21.159,3.23c-1.554,0.237-3.101-0.597-3.764-2.03
					c-2.558-5.533-6.284-10.576-11.075-14.99c-5.276-4.861-8.566-11.491-9.264-18.671c-1.502-15.446,8.924-29.019,24.253-31.572l0,0
					c7.781-1.304,15.558,0.537,21.93,5.156c6.373,4.619,10.538,11.448,11.726,19.229c1.012,6.628-0.303,13.454-3.704,19.219
					c-3.158,5.353-5.162,11.194-5.955,17.36C171.533,124.828,170.304,126.089,168.747,126.327z M148.092,64.421
					c-14.196,2.364-23.853,14.933-22.461,29.237c0.647,6.651,3.694,12.793,8.579,17.294c5,4.607,8.893,9.879,11.571,15.671
					c0.266,0.575,0.861,0.898,1.482,0.803l21.159-3.23c0.612-0.094,1.095-0.592,1.175-1.213c0.831-6.457,2.929-12.573,6.236-18.18
					c3.149-5.339,4.367-11.66,3.43-17.799c-1.1-7.206-4.957-13.531-10.86-17.809C162.502,64.919,155.289,63.241,148.092,64.421
					L148.092,64.421z"/>
				<path style="fill:#407BFF;" d="M167.753,145.569l-13.472,2.057c-2.063,0.315-3.996-1.107-4.311-3.169l-0.054-0.353
					c-0.063-0.416-0.057-0.836,0.019-1.245c-0.685-0.599-1.149-1.425-1.288-2.333l-0.024-0.156c-0.075-0.494-0.055-0.99,0.059-1.469
					c-0.655-0.602-1.089-1.408-1.226-2.306c-0.33-2.16,1.159-4.185,3.319-4.515l15.685-2.395c2.16-0.33,4.185,1.159,4.515,3.318
					c0.137,0.898-0.037,1.796-0.482,2.566c0.251,0.423,0.419,0.891,0.495,1.384l0.024,0.156c0.139,0.908-0.058,1.835-0.533,2.611
					c0.194,0.368,0.326,0.767,0.39,1.183l0.054,0.353C171.237,143.32,169.815,145.254,167.753,145.569z M151.1,134.211
					c-0.985,0.15-1.664,1.074-1.514,2.059c0.084,0.549,0.415,1.023,0.909,1.3l0.905,0.508l-0.474,0.923
					c-0.168,0.327-0.228,0.687-0.174,1.042l0.024,0.156c0.082,0.537,0.424,1.011,0.915,1.268l0.903,0.473l-0.421,0.928
					c-0.131,0.288-0.175,0.602-0.128,0.91l0.054,0.353c0.135,0.887,0.968,1.499,1.855,1.363l13.472-2.057
					c0.887-0.135,1.499-0.968,1.364-1.855l-0.054-0.353c-0.047-0.308-0.183-0.594-0.394-0.83l-0.679-0.76l0.721-0.72
					c0.392-0.392,0.577-0.946,0.495-1.483l-0.024-0.156c-0.054-0.355-0.219-0.681-0.476-0.942l-0.729-0.741l0.713-0.755
					c0.389-0.411,0.564-0.963,0.48-1.512c-0.15-0.985-1.074-1.664-2.059-1.513L151.1,134.211z"/>
			</g>
		</g>
	</g>
</g>
</svg>
